<svg xmlns="http://www.w3.org/2000/svg" xmlns:xlink="http://www.w3.org/1999/xlink" width="500" zoomAndPan="magnify" viewBox="0 0 375 187.499995" height="250" preserveAspectRatio="xMidYMid meet" version="1.0"><defs><g/><clipPath id="c03d16d0d5"><path d="M 0.5 10 L 374.5 10 L 374.5 187 L 0.5 187 Z M 0.5 10 " clip-rule="nonzero"/></clipPath></defs><g clip-path="url(#c03d16d0d5)"><path stroke-linecap="butt" transform="matrix(0.868621, 0, 0, 0.868621, 24.032682, 43.55493)" fill="none" stroke-linejoin="miter" d="M 67.93107 46.373493 C 70.071675 48.995284 71.564702 52.093764 72.410151 55.668934 C 73.264594 59.226115 73.457968 63.021641 72.990272 67.051014 C 72.522577 71.080388 71.384819 75.150235 69.576997 79.256059 C 66.901242 85.453019 63.15968 90.853998 58.356811 95.458997 C 53.562936 100.063995 47.955091 103.7381 41.533278 106.481312 C 35.120458 109.224524 28.13651 110.870451 20.572441 111.419093 C 20.572441 111.419093 20.545458 111.419093 20.491493 111.419093 C 19.502138 111.419093 18.980478 110.924416 18.926514 109.935061 C 18.872549 109.489851 18.99397 109.103103 19.286279 108.77032 C 19.596577 108.446531 19.942851 108.284636 20.334096 108.284636 C 27.50692 107.735994 34.117611 106.171014 40.166169 103.589697 C 46.228217 101.017374 51.534758 97.568122 56.085792 93.228451 C 60.636825 88.906768 64.176018 83.843069 66.707868 78.032856 C 68.353795 74.300289 69.392618 70.599201 69.819839 66.929593 C 70.260552 63.250991 70.112149 59.824225 69.379126 56.653792 C 68.641607 53.46537 67.337457 50.695176 65.46218 48.338712 C 62.399676 44.55218 58.181426 42.303646 52.816423 41.593109 C 50.513924 44.003538 47.887635 46.37799 44.946553 48.720963 C 42.014464 51.050444 39.055393 53.173061 36.069339 55.084315 C 33.087783 57.000066 30.290606 58.578537 27.677809 59.824225 C 25.083001 61.056422 22.906419 61.775953 21.15706 61.991812 C 19.951845 67.909954 18.773613 73.828097 17.622364 79.75973 C 16.471114 85.673375 15.414303 91.263232 14.45193 96.520305 C 13.485061 101.795366 12.675588 106.512791 12.019016 110.677077 C 11.366941 114.836865 10.894749 118.182684 10.615931 120.714534 C 10.737352 120.431219 10.849778 120.156898 10.957708 119.891571 C 11.119602 119.450858 11.398421 119.14056 11.79866 118.965174 C 12.216887 118.807777 12.644109 118.812274 13.084821 118.98766 C 13.471569 119.149554 13.745891 119.428372 13.907785 119.828612 C 14.083171 120.246839 14.083171 120.647078 13.907785 121.033826 C 13.039851 123.174431 12.279846 124.761896 11.641262 125.791725 C 11.011673 126.835045 10.314627 127.356704 9.550126 127.356704 C 9.338763 127.356704 9.118407 127.307237 8.889056 127.199307 C 8.5158 127.091377 8.174023 126.803565 7.863725 126.33587 C 7.571415 125.868175 7.409521 124.928287 7.382538 123.525202 C 7.355556 122.131111 7.51745 120.021986 7.863725 117.202324 C 8.227987 114.378164 8.817103 110.582639 9.631073 105.815746 C 10.46303 101.05335 11.560315 95.022781 12.922927 87.728536 C 14.290036 80.434291 16.01691 71.606545 18.10355 61.249796 C 17.838223 61.033936 17.599878 60.692159 17.402007 60.224464 C 17.21313 59.756769 17.199639 59.140671 17.361534 58.380666 C 17.910176 56.397459 18.73314 54.504193 19.830424 52.696371 C 20.325102 50.18251 20.846762 47.592198 21.395404 44.929934 C 21.944047 42.263172 22.492689 39.506469 23.041331 36.655328 C 24.40844 29.977181 25.681111 23.762232 26.854846 18.005984 C 28.033078 12.249736 29.013438 7.25799 29.786934 3.030745 C 27.205617 3.687317 24.790691 4.591228 22.542157 5.737981 C 16.516085 8.643087 12.24387 12.721928 9.71202 17.96551 C 7.198159 23.200098 6.649516 29.100252 8.066093 35.674967 C 8.187514 36.115679 8.120058 36.515918 7.863725 36.875684 C 7.62538 37.226455 7.310585 37.451309 6.923837 37.559238 C 6.478628 37.680659 6.064897 37.622197 5.678149 37.379356 C 5.300396 37.123023 5.089033 36.776748 5.035069 36.336036 C 3.389141 28.987826 3.978257 22.395123 6.802417 16.562425 C 9.626576 10.72523 14.411457 6.160705 21.15706 2.868851 C 24.057669 1.438783 27.156149 0.368481 30.4525 -0.342056 C 30.501968 -0.61188 30.555933 -0.863716 30.609898 -1.106558 C 30.663863 -1.358394 30.717827 -1.628218 30.771792 -1.907036 C 30.825757 -2.338754 31.023628 -2.671538 31.3744 -2.914379 C 31.734165 -3.166215 32.138901 -3.242665 32.579614 -3.134736 C 33.020327 -3.080771 33.362104 -2.873906 33.600448 -2.509643 C 33.856781 -2.163369 33.924237 -1.767627 33.802817 -1.326914 C 33.802817 -1.272949 33.802817 -1.218984 33.802817 -1.16502 C 33.802817 -1.111055 33.802817 -1.05709 33.802817 -1.007622 C 37.481419 -1.488809 41.106056 -1.520288 44.663237 -1.106558 C 48.224916 -0.706319 51.458308 0.157119 54.358917 1.483754 C 57.277515 2.796898 59.638476 4.541761 61.446297 6.722839 C 63.523943 9.200724 64.706672 11.836006 64.998982 14.633182 C 65.309279 17.430359 65.052946 20.200553 64.238977 22.943765 C 63.42051 25.673486 62.309735 28.250306 60.906649 30.674226 C 59.512558 33.084655 58.154443 35.162301 56.827808 36.916157 C 56.400586 37.57273 55.887921 38.229302 55.285313 38.885874 C 60.596351 39.983158 64.814602 42.479031 67.93107 46.373493 Z M 21.795643 58.699958 C 23.068314 58.31321 24.714241 57.629656 26.737922 56.653792 C 28.770597 55.659939 31.046113 54.405257 33.559975 52.876254 C 36.091824 51.338257 38.655154 49.611382 41.249962 47.700128 C 43.862759 45.770886 46.318159 43.684246 48.620658 41.435711 C 46.475556 41.435711 44.227022 41.68305 41.875055 42.177728 C 39.572556 42.61844 37.207098 43.346966 34.787675 44.3678 C 32.377246 45.370646 30.128711 46.652311 28.042072 48.221788 C 25.968923 49.786768 24.219563 51.662045 22.802987 53.843124 C 22.627601 54.670584 22.46121 55.489051 22.299315 56.289529 C 22.137421 57.081013 21.971029 57.881491 21.795643 58.699958 Z M 51.570735 38.301255 C 52.614055 37.20397 53.544948 36.106685 54.358917 35.0094 C 58.361308 29.590433 60.771737 24.630166 61.585706 20.133097 C 62.417664 15.636029 61.572215 11.858491 59.058354 8.79149 C 57.412427 6.81278 55.231349 5.243303 52.515119 4.092054 C 49.807884 2.940804 46.772362 2.221273 43.399561 1.924467 C 40.02676 1.618666 36.613484 1.767069 33.159736 2.365179 C 32.38624 6.596921 31.378897 11.714585 30.151197 17.727166 C 28.919 23.721758 27.592365 30.224519 26.175788 37.239946 C 25.838508 38.885874 25.492234 40.558783 25.132468 42.258675 C 24.781697 43.958567 24.43992 45.685441 24.107137 47.439298 C 26.247741 45.402126 28.784088 43.675252 31.716177 42.258675 C 34.648265 40.82411 37.836687 39.753808 41.290436 39.047768 C 44.91957 38.337231 48.346336 38.089892 51.570735 38.301255 Z M 116.602844 61.330743 C 116.994089 61.555596 117.26841 61.879385 117.425808 62.293116 C 117.587702 62.693355 117.56072 63.089097 117.34486 63.475845 C 116.30154 65.724379 115.024373 68.247235 113.513358 71.044411 C 112.011337 73.828097 110.414878 76.634268 108.714986 79.458427 C 107.015094 82.282586 105.288219 84.859406 103.534363 87.188888 C 101.780506 89.513872 100.080614 91.411635 98.434687 92.868685 C 96.78876 94.325735 95.309224 95.058758 94.000577 95.058758 C 93.609332 95.058758 93.249567 94.968816 92.912286 94.797928 C 91.765534 94.366209 91.005529 93.331883 90.645764 91.685956 C 90.29949 90.040029 90.34446 87.674571 90.785173 84.598576 C 91.549675 79.071679 93.577853 71.233288 96.869707 61.087901 C 96.815742 61.087901 96.775268 61.101393 96.748286 61.128375 C 96.721304 61.155357 96.68083 61.168849 96.626865 61.168849 C 95.52958 61.93335 94.211939 62.729331 92.673942 63.556792 C 91.149436 64.375258 89.56197 64.923901 87.916043 65.202719 C 86.270116 65.472543 84.705136 65.112778 83.216607 64.118926 C 81.143458 62.648384 80.077653 60.602218 80.023688 57.97593 C 79.960729 55.340648 80.94109 52.458027 82.978262 49.32357 C 83.634834 48.334215 84.498271 47.23693 85.568573 46.031716 C 86.638876 44.826501 87.763143 43.895608 88.941375 43.243533 C 90.11511 42.586961 91.176418 42.559979 92.111808 43.162586 C 92.592995 43.427913 92.95276 43.895608 93.195602 44.565671 C 93.451935 45.222243 93.438443 46.238581 93.155128 47.619181 C 92.889801 48.981793 92.233229 50.816597 91.189909 53.119096 C 90.155583 55.421595 88.599598 58.403151 86.508461 62.072759 C 87.76764 62.234654 89.17972 61.879385 90.744699 61.006954 C 92.314176 60.125529 93.699273 59.302565 94.899991 58.538063 C 96.05124 57.778059 97.009116 57.215925 97.773618 56.851663 C 98.547113 56.491897 99.266644 56.559353 99.918719 57.054031 C 100.521327 57.548708 100.764168 58.155813 100.642747 58.879841 C 100.534818 59.590377 100.431385 60.130026 100.323456 60.507779 C 98.515634 66.210062 97.117046 70.95447 96.127691 74.741002 C 95.14733 78.514042 94.481763 81.554061 94.117501 83.85656 C 93.757735 86.168053 93.577853 87.903921 93.577853 89.055171 C 93.577853 90.206421 93.6588 90.952934 93.816197 91.303705 C 93.991583 91.663471 94.077027 91.870336 94.077027 91.924301 C 94.733599 92.03223 96.087217 90.975419 98.133383 88.753867 C 100.193041 86.532316 102.652937 83.190994 105.504079 78.734399 C 108.350723 74.264312 111.345771 68.737415 114.47573 62.153707 C 114.69159 61.712994 114.99739 61.425181 115.39763 61.290269 C 115.815857 61.155357 116.216096 61.168849 116.602844 61.330743 Z M 83.459448 55.749881 C 83.135659 56.90113 83.045718 57.841018 83.176133 58.578537 C 83.311045 59.316056 83.51791 59.905172 83.801225 60.345885 C 85.555082 57.278884 86.87722 54.792005 87.776634 52.876254 C 88.685042 50.951509 89.30114 49.462979 89.620432 48.419659 C 89.957712 47.376339 90.151086 46.63882 90.205051 46.211598 C 89.602444 46.535387 88.846936 47.164977 87.934032 48.100367 C 87.039115 49.022266 86.162186 50.146533 85.307743 51.473169 C 84.462295 52.781816 83.846196 54.207386 83.459448 55.749881 Z M 141.098377 61.67252 C 141.485125 61.883882 141.705481 62.212168 141.759446 62.652881 C 141.813411 63.098091 141.732463 63.475845 141.521101 63.799634 C 138.278715 68.296702 135.315146 72.011281 132.625899 74.938873 C 129.950144 77.870961 127.265394 80.299378 124.576147 82.228621 C 122.552466 83.645197 120.555767 84.355734 118.57256 84.355734 C 117.034563 84.355734 115.689939 83.946501 114.538689 83.132532 C 113.774188 82.583889 113.023177 81.608025 112.290155 80.200443 C 111.552636 78.810849 111.156894 76.782671 111.102929 74.115909 C 111.035473 71.453644 111.692045 67.959422 113.072645 63.637739 C 113.072645 63.637739 113.072645 63.610757 113.072645 63.556792 C 114.718572 58.299719 116.643318 54.283836 118.855875 51.513642 C 121.077427 48.743448 122.984184 47.331368 124.576147 47.277404 C 125.835326 47.223439 126.658289 47.772081 127.045037 48.923331 C 127.647644 50.501802 126.932611 52.763827 124.895438 55.709407 C 122.876255 58.641496 119.890201 61.74897 115.941775 65.045322 C 114.73656 68.872327 114.160936 71.867375 114.214901 74.039459 C 114.268865 76.207046 114.570169 77.772026 115.118811 78.734399 C 115.667454 79.68328 116.108166 80.299378 116.445447 80.582694 C 118.091374 81.787908 120.200499 81.459622 122.768325 79.597836 C 125.286683 77.830488 127.827527 75.54148 130.395353 72.730812 C 132.981168 69.906653 135.809824 66.326986 138.890316 61.991812 C 139.155643 61.659029 139.510911 61.452164 139.951624 61.371217 C 140.396834 61.290269 140.774588 61.389205 141.098377 61.67252 Z M 123.991528 50.731152 C 123.38892 51.104409 122.565957 51.913881 121.522637 53.159569 C 120.492808 54.391766 119.4315 56.181599 118.329718 58.538063 C 120.299434 56.626809 121.689029 54.99887 122.507495 53.658744 C 123.339453 52.309623 123.83413 51.333759 123.991528 50.731152 Z M 206.638655 31.479202 C 206.908479 31.811985 207.016409 32.198733 206.962444 32.639445 C 206.908479 33.071164 206.69262 33.426432 206.319363 33.70525 C 205.6493 34.145963 205.015213 34.118981 204.412606 33.624303 C 203.702069 33.345485 202.069633 33.152111 199.515298 33.044181 C 196.969957 32.936252 193.777039 32.868796 189.936542 32.841813 C 186.109537 32.814831 181.895783 32.828322 177.290785 32.882287 C 172.685787 32.936252 167.95487 33.003708 163.098036 33.084655 C 158.250196 33.165602 153.555257 33.264538 149.004223 33.385959 C 147.304331 40.504818 145.514498 48.24877 143.643718 56.613318 C 141.781931 64.964374 139.947127 73.441349 138.143803 82.048738 C 135.787339 93.345375 133.966026 102.613833 132.679864 109.854113 C 131.384708 117.094394 130.548254 122.324485 130.1705 125.55338 C 130.27843 125.55338 130.386359 125.580362 130.494289 125.62983 C 130.935002 125.73776 131.236305 125.99859 131.3982 126.416817 C 131.555597 126.830547 131.555597 127.230787 131.3982 127.617534 C 131.074411 128.543931 130.705651 129.398374 130.291921 130.189858 C 129.878191 130.990336 129.316057 131.395072 128.60552 131.395072 C 128.443626 131.395072 128.250252 131.36809 128.025398 131.314125 C 127.260897 131.03081 126.838172 130.437196 126.757225 129.528789 C 126.680775 128.629375 126.743734 127.383687 126.959593 125.791725 C 127.175452 123.489225 127.67013 120.179383 128.443626 115.853203 C 129.100198 111.801344 129.950144 107.056937 130.993464 101.619981 C 132.036783 96.201013 133.241998 90.251391 134.609107 83.775612 C 136.416928 75.006329 138.274218 66.295507 140.189969 57.634153 C 142.114714 48.977296 143.958512 40.918549 145.712369 33.462409 C 143.07259 33.516374 140.576717 33.570338 138.220253 33.624303 C 135.868286 33.678268 133.732178 33.732233 131.816427 33.786198 C 128.137825 33.894127 124.931415 33.975075 122.201694 34.024542 C 119.458483 34.078507 117.511252 34.10549 116.360002 34.10549 C 115.91929 34.10549 115.55053 33.961583 115.253723 33.664777 C 114.947923 33.358976 114.795022 32.990217 114.795022 32.562995 C 114.795022 32.117785 114.947923 31.753523 115.253723 31.456716 C 115.55053 31.150916 115.91929 30.993518 116.360002 30.993518 C 117.511252 30.993518 119.444991 30.953045 122.161221 30.876594 C 124.863959 30.795647 128.056878 30.692215 131.739977 30.575291 C 134.361768 30.521326 136.902612 30.467361 139.367005 30.413396 C 141.840393 30.359431 144.232834 30.305467 146.535333 30.251502 C 147.349302 26.743788 148.154277 23.447437 148.941264 20.353454 C 149.74624 17.250476 150.501747 14.403832 151.212284 11.822515 C 151.333705 11.395293 151.581044 11.071504 151.9543 10.860142 C 152.341048 10.630791 152.732293 10.57233 153.119041 10.680259 C 153.546263 10.783692 153.870052 11.035528 154.081414 11.422275 C 154.310764 11.809023 154.369226 12.218257 154.261297 12.645478 C 152.95265 17.529295 151.446132 23.370987 149.74624 30.170555 C 158.299664 30.013157 165.611898 29.891736 171.687437 29.810789 C 177.776468 29.716351 182.876144 29.67138 186.986465 29.67138 C 191.096786 29.67138 194.420119 29.729842 196.96546 29.851263 C 199.519795 29.959192 201.453535 30.080613 202.766679 30.211028 C 204.088817 30.34594 205.028704 30.525823 205.577347 30.755173 C 206.125989 30.966536 206.481257 31.209377 206.638655 31.479202 Z M 217.575526 31.479202 C 217.840853 31.811985 217.948782 32.198733 217.894817 32.639445 C 217.840853 33.071164 217.62949 33.426432 217.256234 33.70525 C 216.586171 34.145963 215.947587 34.118981 215.34498 33.624303 C 214.63894 33.345485 213.006504 33.152111 210.447672 33.044181 C 207.906828 32.936252 204.713909 32.868796 200.873413 32.841813 C 197.046407 32.814831 192.828157 32.828322 188.223159 32.882287 C 183.622658 32.936252 178.887244 33.003708 174.03041 33.084655 C 169.187067 33.165602 164.487631 33.264538 159.936597 33.385959 C 158.236705 40.504818 156.451369 48.24877 154.576091 56.613318 C 152.718802 64.964374 150.883998 73.441349 149.076176 82.048738 C 146.719712 93.345375 144.902897 102.613833 143.616735 109.854113 C 142.317082 117.094394 141.480628 122.324485 141.107371 125.55338 C 141.2153 125.55338 141.32323 125.580362 141.426663 125.62983 C 141.871873 125.73776 142.173176 125.99859 142.330574 126.416817 C 142.492468 126.830547 142.492468 127.230787 142.330574 127.617534 C 142.011282 128.543931 141.642522 129.398374 141.228792 130.189858 C 140.810564 130.990336 140.248431 131.395072 139.542391 131.395072 C 139.380497 131.395072 139.187123 131.36809 138.957772 131.314125 C 138.197767 131.03081 137.775043 130.437196 137.694096 129.528789 C 137.613149 128.629375 137.680605 127.383687 137.896464 125.791725 C 138.107826 123.489225 138.602504 120.179383 139.380497 115.853203 C 140.037069 111.801344 140.887014 107.056937 141.930334 101.619981 C 142.973654 96.201013 144.178869 90.251391 145.541481 83.775612 C 147.349302 75.006329 149.211088 66.295507 151.12684 57.634153 C 153.051585 48.977296 154.890886 40.918549 156.644743 33.462409 C 154.009461 33.516374 151.513588 33.570338 149.157124 33.624303 C 146.80066 33.678268 144.669049 33.732233 142.753298 33.786198 C 139.074696 33.894127 135.868286 33.975075 133.138565 34.024542 C 130.395353 34.078507 128.448123 34.10549 127.296873 34.10549 C 126.851663 34.10549 126.487401 33.961583 126.190594 33.664777 C 125.884794 33.358976 125.727396 32.990217 125.727396 32.562995 C 125.727396 32.117785 125.884794 31.753523 126.190594 31.456716 C 126.487401 31.150916 126.851663 30.993518 127.296873 30.993518 C 128.448123 30.993518 130.381862 30.953045 133.098092 30.876594 C 135.80083 30.795647 138.993749 30.692215 142.672351 30.575291 C 145.294142 30.521326 147.839483 30.467361 150.303876 30.413396 C 152.777264 30.359431 155.165207 30.305467 157.467706 30.251502 C 158.286173 26.743788 159.086651 23.447437 159.878135 20.353454 C 160.678613 17.250476 161.438618 14.403832 162.144658 11.822515 C 162.266079 11.395293 162.513417 11.071504 162.891171 10.860142 C 163.277919 10.630791 163.664667 10.57233 164.051415 10.680259 C 164.483134 10.783692 164.802425 11.035528 165.018285 11.422275 C 165.243138 11.809023 165.306097 12.218257 165.198167 12.645478 C 163.885023 17.529295 162.378505 23.370987 160.678613 30.170555 C 169.232038 30.013157 176.548769 29.891736 182.624308 29.810789 C 188.713339 29.716351 193.813015 29.67138 197.923336 29.67138 C 202.029159 29.67138 205.35699 29.729842 207.897834 29.851263 C 210.456666 29.959192 212.390406 30.080613 213.699052 30.211028 C 215.025688 30.34594 215.961078 30.525823 216.50972 30.755173 C 217.058363 30.966536 217.413631 31.209377 217.575526 31.479202 Z M 257.864763 47.196456 C 257.972693 47.623678 257.927722 48.032911 257.725354 48.419659 C 257.540974 48.810904 257.257659 49.085225 256.884402 49.242623 C 254.352553 50.007124 251.348511 50.924526 247.86778 51.994829 C 244.391546 53.065131 240.569037 54.229872 236.404752 55.489051 C 235.85611 58.511081 235.293976 61.501632 234.718351 64.460703 C 234.142726 67.419774 233.607575 70.297898 233.112898 73.095075 C 231.804251 79.948607 230.653001 85.947697 229.659149 91.101337 C 228.669794 96.254978 227.927778 99.983048 227.4331 102.285547 C 227.271206 103.099516 226.749546 103.50875 225.86812 103.50875 C 225.760191 103.50875 225.652261 103.50875 225.544331 103.50875 C 225.157583 103.40082 224.842789 103.166972 224.599947 102.807207 C 224.361602 102.456436 224.294146 102.065191 224.402076 101.619981 C 224.667403 100.095475 225.090127 97.887414 225.665752 94.995799 C 226.241377 92.117675 226.897949 88.744873 227.630971 84.877394 C 228.381982 81.023406 229.164471 76.899595 229.982938 72.510456 C 230.477615 69.996594 230.972293 67.392792 231.466971 64.703544 C 231.961648 62.014297 232.483308 59.275583 233.03195 56.491897 C 232.977986 56.545862 232.937512 56.572844 232.915027 56.572844 C 232.888044 56.572844 232.847571 56.572844 232.793606 56.572844 C 227.572509 58.151316 222.018629 59.837716 216.12747 61.632047 C 210.240807 63.412886 204.417103 65.202719 198.665352 67.010541 C 196.682145 76.431899 195.036218 84.517629 193.723074 91.263232 C 192.414427 98.008835 191.330633 103.643662 190.471693 108.167713 C 189.630741 112.691764 188.974169 116.316401 188.506474 119.046122 C 188.038779 121.789334 187.697002 123.88047 187.481142 125.310538 C 188.403042 125.697286 188.704345 126.353858 188.385053 127.280254 C 188.101738 128.16168 187.782446 128.94417 187.422681 129.627724 C 187.071909 130.311279 186.572735 130.653056 185.916163 130.653056 C 185.754268 130.653056 185.560894 130.626073 185.331544 130.572109 C 184.517574 130.356249 184.09485 129.780624 184.067867 128.845234 C 184.040885 127.905347 184.162306 126.533741 184.43213 124.730416 C 184.764913 122.212058 185.340538 118.623397 186.154507 113.968931 C 187.643037 105.910184 189.837606 94.667513 192.742713 80.240917 C 193.115969 78.275698 193.511711 76.265508 193.925442 74.219342 C 194.339172 72.155187 194.770891 70.109021 195.211603 68.076346 C 192.963069 68.782386 190.7685 69.488425 188.627895 70.180974 C 186.482793 70.864528 184.405148 71.561574 182.381467 72.272111 C 176.076576 74.358751 171.066842 76.103613 167.347766 77.511196 C 163.610702 78.90079 160.813526 80.02056 158.956236 80.861512 C 157.080959 81.706961 155.7903 82.377024 155.079763 82.871702 C 155.628405 83.25845 155.848762 83.78011 155.740832 84.436682 C 155.569944 85.318107 155.043786 85.763317 154.175852 85.763317 C 154.067923 85.763317 153.955496 85.736334 153.834075 85.68237 C 152.73679 85.453019 152.012762 85.106745 151.666488 84.63905 C 151.306722 84.180349 151.099857 83.735139 151.045892 83.294426 C 151.045892 82.745784 151.252758 82.197141 151.666488 81.644002 C 152.080218 81.09536 152.916673 80.456776 154.175852 79.719257 C 155.435031 78.968246 157.292321 78.077827 159.756714 77.047998 C 164.361713 75.123252 170.967906 72.70383 179.570799 69.80322 C 182.156613 68.984754 184.796392 68.143802 187.503628 67.271371 C 190.219857 66.389945 193.003543 65.47704 195.854684 64.54165 C 196.898004 59.495939 197.914342 54.589637 198.903697 49.827241 C 199.893052 45.046858 200.823945 40.590263 201.696376 36.457456 C 202.577802 32.320153 203.346801 28.682025 204.003373 25.534077 C 204.659945 22.377135 205.181605 19.894753 205.568352 18.086931 L 205.973089 16.441004 C 206.467766 14.08454 206.701614 12.344175 206.674631 11.219907 C 206.647649 10.09564 206.548713 9.353624 206.373328 8.993858 C 206.211433 8.629596 206.130486 8.449713 206.130486 8.449713 C 206.027053 8.395748 205.658294 8.472198 205.028704 8.67007 C 204.399115 8.858946 203.427748 9.52901 202.114604 10.680259 C 200.189858 12.326186 198.170675 14.547738 196.052555 17.344915 C 193.952424 20.142092 192.077147 23.047198 190.431219 26.055737 C 188.677363 29.347591 187.463154 32.302165 186.7796 34.910465 C 186.096045 37.505273 186.028589 39.488481 186.577232 40.851093 C 186.685161 41.134408 187.026939 41.561629 187.602563 42.137254 C 188.178188 42.712879 189.396894 42.946727 191.254183 42.838797 C 191.699393 42.784832 192.077147 42.915247 192.400936 43.221048 C 192.733719 43.517854 192.927093 43.87762 192.981057 44.304841 C 192.981057 44.745554 192.841648 45.136799 192.56283 45.469582 C 192.293006 45.788874 191.937737 45.950768 191.497025 45.950768 C 188.978666 46.126154 187.148359 45.757394 185.99711 44.848987 C 184.84586 43.936082 184.049879 42.991697 183.609166 42.015833 C 182.952594 40.369906 182.844665 38.368711 183.285377 36.012247 C 183.72609 33.66028 184.535562 31.150916 185.713794 28.484154 C 186.892026 25.821889 188.299609 23.204595 189.932045 20.636769 C 191.577972 18.050955 193.291355 15.685497 195.072194 13.531401 C 196.862028 11.359317 198.494463 9.614454 199.969502 8.287819 C 203.261356 5.436677 205.838177 4.591228 207.699963 5.737981 C 209.948497 7.064616 210.38921 10.819668 209.022101 17.003138 L 208.680324 18.730012 C 206.823035 27.50829 205.123143 35.612008 203.580648 43.041165 C 202.056142 50.470322 200.630571 57.278884 199.308433 63.475845 C 204.848821 61.775953 210.416192 60.076061 216.010546 58.380666 C 221.604899 56.680774 226.888955 55.057332 231.86721 53.519335 C 232.150525 53.46537 232.438337 53.384423 232.730647 53.28099 C 233.040945 53.173061 233.360236 53.092113 233.697517 53.038148 C 234.727345 47.443795 235.775162 41.889915 236.849962 36.376509 C 237.920264 30.863103 238.950093 25.642006 239.939448 20.717716 C 240.928803 15.779935 241.846205 11.395293 242.691654 7.568288 C 243.546097 3.727791 244.24764 0.678779 244.796282 -1.565259 C 244.904212 -2.010468 245.147053 -2.338754 245.52031 -2.550117 C 245.907058 -2.779467 246.298303 -2.837929 246.685051 -2.729999 C 247.125764 -2.613076 247.45405 -2.356743 247.669909 -1.969995 C 247.881271 -1.592241 247.935236 -1.214487 247.827306 -0.823242 C 247.278664 1.357836 246.604104 4.303416 245.803625 8.009 C 245.012141 11.701094 244.135213 15.923841 243.17284 20.677243 C 242.219462 25.412656 241.225609 30.458367 240.18229 35.814376 C 239.134473 41.152396 238.100147 46.535387 237.070318 51.954355 C 240.897323 50.803105 244.409534 49.750791 247.60695 48.80191 C 250.822354 47.839537 253.583554 46.9761 255.899544 46.211598 C 256.272801 46.090177 256.668543 46.130651 257.082273 46.333019 C 257.500501 46.521896 257.761331 46.809708 257.864763 47.196456 Z M 284.091668 62.072759 C 284.464924 62.351578 284.680784 62.71584 284.734748 63.156553 C 284.797707 63.583774 284.694275 63.966025 284.410959 64.298808 C 282.994383 66.10663 281.334964 67.725575 279.432704 69.160139 C 277.543936 70.576716 275.569723 71.62903 273.510065 72.312585 C 271.463899 72.991642 269.476195 73.113063 267.546952 72.67235 C 266.786948 74.601593 265.698657 76.085625 264.295571 77.128945 C 262.90148 78.158774 261.498395 78.675937 260.081818 78.675937 C 260.081818 78.675937 260.068327 78.675937 260.041345 78.675937 C 260.014362 78.675937 260.000871 78.675937 260.000871 78.675937 C 258.512341 78.621972 257.208191 78.1183 256.083924 77.169419 C 254.959657 76.207046 254.177167 74.875914 253.736454 73.176022 C 253.241777 71.260271 253.16083 69.438958 253.493613 67.712083 C 253.830893 65.985209 254.4335 64.469697 255.301434 63.156553 C 256.18286 61.829918 257.176712 60.81358 258.273997 60.103043 C 258.647253 59.824225 259.083469 59.77026 259.578147 59.945646 C 260.072824 58.72694 260.76987 57.79155 261.664786 57.134978 C 262.577691 56.478406 263.526573 56.231067 264.515928 56.392962 C 265.118535 56.509885 265.775107 56.887639 266.485644 57.517229 C 267.191684 58.142321 267.767308 59.266589 268.208021 60.89003 C 268.653231 62.508975 268.79264 64.874433 268.630746 67.995399 C 268.576781 68.544041 268.491337 69.092683 268.369916 69.641326 C 269.858445 69.906653 271.423425 69.740261 273.069352 69.137654 C 274.715279 68.535047 276.302745 67.622142 277.827251 66.389945 C 279.365248 65.157748 280.709872 63.799634 281.861122 62.311104 C 282.144437 61.991812 282.495208 61.802935 282.926927 61.74897 C 283.36764 61.699503 283.754387 61.802935 284.091668 62.072759 Z M 260.081818 75.483018 C 260.787858 75.483018 261.579342 75.154732 262.447276 74.49816 C 263.333199 73.828097 264.048233 72.838742 264.596875 71.530095 C 262.627159 70.43281 261.215079 69.173631 260.360636 67.752557 C 259.519685 66.322489 259.060984 64.896918 258.993528 63.475845 C 257.842278 64.573129 257.086771 65.971718 256.727005 67.67161 C 256.380731 69.371502 256.398719 70.905002 256.785467 72.272111 C 256.947361 72.874718 257.275647 73.56277 257.770325 74.340763 C 258.265002 75.100767 259.034001 75.483018 260.081818 75.483018 Z M 265.419839 67.833504 C 265.527768 65.638935 265.478301 63.939043 265.28043 62.733828 C 265.091553 61.528614 264.862202 60.70565 264.596875 60.264938 C 264.327051 59.824225 264.133677 59.576886 264.012256 59.522921 C 263.962788 59.522921 263.935806 59.522921 263.935806 59.522921 C 263.773912 59.522921 263.526573 59.689313 263.189293 60.026593 C 262.870001 60.345885 262.59568 60.836065 262.366329 61.48814 C 262.047037 62.535957 262.07402 63.678213 262.447276 64.923901 C 262.838521 66.156098 263.827876 67.284862 265.419839 68.314691 C 265.419839 68.157293 265.419839 67.995399 265.419839 67.833504 Z M 331.036567 61.48814 C 331.306391 61.771456 331.454794 62.131221 331.481777 62.576431 C 331.504262 63.003653 331.360356 63.385903 331.036567 63.718686 C 328.455249 66.353969 325.833458 68.19327 323.166697 69.241087 C 320.517923 70.270915 318.067021 70.455295 315.818487 69.80322 C 314.829132 69.479431 313.785812 68.939783 312.688527 68.175281 C 311.604733 67.397289 310.646858 66.187577 309.819397 64.54165 C 309.000931 67.608651 308.070037 70.536242 307.026718 73.333419 C 305.875468 76.359946 304.845639 78.594989 303.937231 80.038548 C 303.037818 81.500096 302.228345 82.457971 301.504317 82.912175 C 300.798277 83.37987 300.168688 83.613718 299.620045 83.613718 C 298.63069 83.613718 297.861692 83.244958 297.308552 82.507439 C 296.773401 81.774417 296.368665 80.964945 296.08535 80.079022 C 295.820023 79.211088 295.622151 78.527533 295.505228 78.032856 C 295.343333 77.097466 295.208421 76.000181 295.100492 74.741002 C 293.243202 77.646108 291.750175 79.818192 290.625908 81.266248 C 289.501641 82.723298 288.498795 83.861057 287.612872 84.679523 C 286.906833 85.399054 286.25026 85.880241 285.647653 86.123082 C 285.045046 86.379415 284.496404 86.505333 284.001726 86.505333 C 283.610481 86.505333 283.250716 86.442374 282.917933 86.32545 C 282.594144 86.217521 282.355799 86.082609 282.193905 85.920714 C 280.813305 85.039289 279.990341 83.146023 279.725014 80.240917 C 279.441699 77.33581 279.689037 73.778629 280.46703 69.560379 C 281.231532 65.333134 282.486214 60.755118 284.240071 55.830828 C 284.415456 55.439583 284.689778 55.151771 285.063034 54.967391 C 285.454279 54.765023 285.86801 54.751532 286.308722 54.926917 C 286.681979 55.03035 286.965294 55.295677 287.154171 55.709407 C 287.352042 56.109646 287.374528 56.505388 287.212633 56.892136 C 285.233923 62.37856 283.952258 67.033026 283.376634 70.84654 C 282.801009 74.646563 282.621126 77.592143 282.836985 79.678783 C 283.061839 81.751932 283.426101 82.957146 283.920779 83.294426 C 284.136638 83.451824 284.658298 83.15052 285.485759 82.390515 C 286.142331 81.787908 286.866359 80.978436 287.653346 79.957601 C 288.458321 78.941264 289.447676 77.556167 290.625908 75.80231 C 291.80414 74.05295 293.297167 71.750451 295.100492 68.89931 C 295.491737 68.242737 296.067361 68.022381 296.827366 68.233743 C 297.591868 68.463094 297.974118 68.984754 297.974118 69.80322 C 297.974118 70.792575 298.028083 72.002287 298.136013 73.436852 C 298.252937 74.853428 298.423825 76.193555 298.635187 77.448237 C 298.851047 78.388124 299.035427 79.076176 299.197321 79.516889 C 299.372707 79.948607 299.512116 80.240917 299.620045 80.402811 C 300.168688 80.079022 300.838751 79.157123 301.625738 77.632617 C 302.430713 76.090122 303.253677 74.223839 304.094629 72.029269 C 304.953569 69.8347 305.722568 67.532201 306.406122 65.121772 C 307.089676 62.702349 307.570863 60.453815 307.849681 58.380666 C 308.011576 57.494743 308.533235 57.054031 309.414661 57.054031 C 310.287092 57.000066 310.799758 57.413796 310.961653 58.299719 C 311.897043 63.062114 313.821788 65.886274 316.722397 66.772196 C 318.368325 67.253382 320.266088 67.033026 322.406692 66.10663 C 324.547297 65.17124 326.683404 63.633242 328.810518 61.48814 C 329.089336 61.168849 329.444605 61.006954 329.871826 61.006954 C 330.317036 61.006954 330.703784 61.168849 331.036567 61.48814 Z M 355.194819 61.67252 C 355.581567 61.883882 355.801924 62.212168 355.855889 62.652881 C 355.909853 63.098091 355.828906 63.475845 355.617544 63.799634 C 352.379655 68.296702 349.411589 72.011281 346.722342 74.938873 C 344.046586 77.870961 341.361836 80.299378 338.672589 82.228621 C 336.653406 83.645197 334.65221 84.355734 332.669003 84.355734 C 331.131005 84.355734 329.786382 83.946501 328.635132 83.132532 C 327.870631 82.583889 327.124117 81.608025 326.386598 80.200443 C 325.649079 78.810849 325.253337 76.782671 325.203869 74.115909 C 325.136413 71.453644 325.792985 67.959422 327.169088 63.637739 C 327.169088 63.637739 327.169088 63.610757 327.169088 63.556792 C 328.815015 58.299719 330.744257 54.283836 332.952318 51.513642 C 335.17387 48.743448 337.080627 47.331368 338.672589 47.277404 C 339.931769 47.223439 340.754732 47.772081 341.14148 48.923331 C 341.744087 50.501802 341.029053 52.763827 338.991881 55.709407 C 336.972697 58.641496 333.986644 61.74897 330.038218 65.045322 C 328.8375 68.872327 328.261876 71.867375 328.31584 74.039459 C 328.365308 76.207046 328.666612 77.772026 329.215254 78.734399 C 329.763896 79.68328 330.209106 80.299378 330.541889 80.582694 C 332.187816 81.787908 334.296942 81.459622 336.864768 79.597836 C 339.383126 77.830488 341.92397 75.54148 344.496293 72.730812 C 347.077611 69.906653 349.906267 66.326986 352.986759 61.991812 C 353.252086 61.659029 353.607354 61.452164 354.052564 61.371217 C 354.493277 61.290269 354.875528 61.389205 355.194819 61.67252 Z M 338.092468 50.731152 C 337.48986 51.104409 336.666897 51.913881 335.61908 53.159569 C 334.589251 54.391766 333.527943 56.181599 332.430658 58.538063 C 334.395877 56.626809 335.789968 54.99887 336.603938 53.658744 C 337.435895 52.309623 337.930573 51.333759 338.092468 50.731152 Z M 375.508078 2.949798 C 376.214118 3.993118 376.227609 6.10674 375.548552 9.295162 C 374.864998 12.465595 373.452918 16.391536 371.312313 21.077482 C 369.1852 25.763427 366.334058 30.953045 362.758889 36.655328 C 362.704924 36.722784 362.650959 36.785742 362.596994 36.83521 C 361.180418 42.645423 359.768338 48.568062 358.360756 54.603128 C 356.971162 60.6292 355.640029 66.542846 354.367359 72.353058 C 353.10818 78.158774 351.965924 83.627209 350.936095 88.753867 C 349.888279 93.880526 349.002356 98.44505 348.264837 102.442944 C 347.513826 106.445335 346.978675 109.651745 346.659383 112.062174 C 346.713348 112.062174 346.767313 112.062174 346.816781 112.062174 C 347.248499 112.233063 347.563294 112.507384 347.761165 112.885138 C 347.950042 113.271886 347.963533 113.685616 347.801639 114.130826 C 347.414891 115.174146 347.019149 116.114033 346.61891 116.959482 C 346.205179 117.813925 345.643046 118.245643 344.932509 118.245643 C 344.757123 118.245643 344.563749 118.218661 344.34789 118.164696 C 343.853212 117.989311 343.497944 117.643036 343.286582 117.121376 C 343.057231 116.599716 343.030249 115.551899 343.205635 113.986919 C 343.367529 112.435431 343.7183 110.038493 344.27144 106.800604 C 345.247304 100.886959 346.726839 93.156498 348.705549 83.613718 C 350.126623 76.935571 351.615153 70.131506 353.18463 63.197026 C 354.74961 56.249055 356.296601 49.557417 357.821108 43.122112 C 359.359105 36.68231 360.843138 30.827127 362.277703 25.556562 C 362.54303 24.522236 362.952263 23.078677 363.500905 21.216891 C 364.049548 19.34611 364.679137 17.344915 365.389674 15.217801 C 366.113702 13.0727 366.909683 11.022036 367.777617 9.05232 C 368.659043 7.07361 369.562954 5.436677 370.48935 4.155013 C 371.42474 2.85536 372.36013 2.126835 373.300018 1.96494 C 374.221917 1.803046 374.959436 2.131332 375.508078 2.949798 Z M 365.48861 25.817392 C 368.110401 20.875114 369.958696 16.76929 371.028998 13.490927 C 372.0993 10.199073 372.715399 7.806632 372.877293 6.3226 C 372.112792 7.419884 371.069472 9.493033 369.747334 12.546543 C 368.434189 15.582064 367.013116 20.007179 365.48861 25.817392 Z M 388.005432 2.949798 C 388.711472 3.993118 388.724963 6.10674 388.045906 9.295162 C 387.362351 12.465595 385.950272 16.391536 383.809667 21.077482 C 381.682554 25.763427 378.831412 30.953045 375.256243 36.655328 C 375.202278 36.722784 375.148313 36.785742 375.094348 36.83521 C 373.677771 42.645423 372.265692 48.568062 370.858109 54.603128 C 369.468515 60.6292 368.137383 66.542846 366.864713 72.353058 C 365.605533 78.158774 364.463278 83.627209 363.433449 88.753867 C 362.385632 93.880526 361.49971 98.44505 360.76219 102.442944 C 360.01118 106.445335 359.476029 109.651745 359.156737 112.062174 C 359.210702 112.062174 359.264667 112.062174 359.314134 112.062174 C 359.745853 112.233063 360.060648 112.507384 360.258519 112.885138 C 360.447396 113.271886 360.460887 113.685616 360.298992 114.130826 C 359.912244 115.174146 359.516502 116.114033 359.116263 116.959482 C 358.702533 117.813925 358.140399 118.245643 357.429863 118.245643 C 357.254477 118.245643 357.061103 118.218661 356.845244 118.164696 C 356.350566 117.989311 355.995298 117.643036 355.783935 117.121376 C 355.554585 116.599716 355.527603 115.551899 355.702988 113.986919 C 355.864883 112.435431 356.215654 110.038493 356.764296 106.800604 C 357.744657 100.886959 359.224193 93.156498 361.202903 83.613718 C 362.623977 76.935571 364.112507 70.131506 365.681983 63.197026 C 367.246963 56.249055 368.793955 49.557417 370.318461 43.122112 C 371.856459 36.68231 373.340491 30.827127 374.775056 25.556562 C 375.040383 24.522236 375.449617 23.078677 375.998259 21.216891 C 376.546901 19.34611 377.176491 17.344915 377.887028 15.217801 C 378.611056 13.0727 379.407037 11.022036 380.274971 9.05232 C 381.156397 7.07361 382.060307 5.436677 382.986704 4.155013 C 383.922094 2.85536 384.857484 2.126835 385.797371 1.96494 C 386.71927 1.803046 387.45679 2.131332 388.005432 2.949798 Z M 377.985963 25.817392 C 380.607754 20.875114 382.456049 16.76929 383.526352 13.490927 C 384.596654 10.199073 385.212752 7.806632 385.374647 6.3226 C 384.610145 7.419884 383.566825 9.493033 382.244687 12.546543 C 380.931543 15.582064 379.510469 20.007179 377.985963 25.817392 Z M 377.985963 25.817392 " stroke="#5271ff" stroke-width="6.167617" stroke-opacity="1" stroke-miterlimit="4"/></g><g fill="#000000" fill-opacity="1"><g transform="translate(24.046254, 113.044641)"><g><path d="M 59 -29.21875 C 60.851562 -26.925781 62.148438 -24.234375 62.890625 -21.140625 C 63.628906 -18.046875 63.796875 -14.75 63.390625 -11.25 C 62.984375 -7.75 61.992188 -4.210938 60.421875 -0.640625 C 58.085938 4.734375 54.835938 9.421875 50.671875 13.421875 C 46.503906 17.421875 41.632812 20.609375 36.0625 22.984375 C 30.5 25.367188 24.429688 26.800781 17.859375 27.28125 C 17.859375 27.28125 17.832031 27.28125 17.78125 27.28125 C 16.925781 27.28125 16.472656 26.851562 16.421875 26 C 16.378906 25.613281 16.488281 25.273438 16.75 24.984375 C 17.007812 24.703125 17.304688 24.5625 17.640625 24.5625 C 23.878906 24.09375 29.628906 22.738281 34.890625 20.5 C 40.148438 18.257812 44.753906 15.257812 48.703125 11.5 C 52.660156 7.738281 55.734375 3.332031 57.921875 -1.71875 C 59.347656 -4.957031 60.25 -8.171875 60.625 -11.359375 C 61.007812 -14.546875 60.878906 -17.519531 60.234375 -20.28125 C 59.597656 -23.039062 58.472656 -25.445312 56.859375 -27.5 C 54.191406 -30.78125 50.523438 -32.734375 45.859375 -33.359375 C 43.859375 -31.265625 41.582031 -29.203125 39.03125 -27.171875 C 36.488281 -25.148438 33.914062 -23.304688 31.3125 -21.640625 C 28.71875 -19.972656 26.289062 -18.601562 24.03125 -17.53125 C 21.769531 -16.457031 19.878906 -15.828125 18.359375 -15.640625 C 17.304688 -10.492188 16.28125 -5.347656 15.28125 -0.203125 C 14.28125 4.929688 13.363281 9.785156 12.53125 14.359375 C 11.695312 18.929688 10.992188 23.023438 10.421875 26.640625 C 9.859375 30.253906 9.457031 33.160156 9.21875 35.359375 C 9.3125 35.117188 9.40625 34.878906 9.5 34.640625 C 9.644531 34.253906 9.894531 33.988281 10.25 33.84375 C 10.601562 33.707031 10.972656 33.710938 11.359375 33.859375 C 11.691406 33.992188 11.925781 34.238281 12.0625 34.59375 C 12.207031 34.957031 12.207031 35.304688 12.0625 35.640625 C 11.300781 37.492188 10.644531 38.875 10.09375 39.78125 C 9.550781 40.6875 8.945312 41.140625 8.28125 41.140625 C 8.09375 41.140625 7.90625 41.09375 7.71875 41 C 7.382812 40.90625 7.082031 40.65625 6.8125 40.25 C 6.550781 39.84375 6.410156 39.03125 6.390625 37.8125 C 6.367188 36.601562 6.507812 34.769531 6.8125 32.3125 C 7.125 29.863281 7.632812 26.566406 8.34375 22.421875 C 9.0625 18.285156 10.015625 13.050781 11.203125 6.71875 C 12.398438 0.382812 13.90625 -7.28125 15.71875 -16.28125 C 15.476562 -16.46875 15.273438 -16.765625 15.109375 -17.171875 C 14.941406 -17.578125 14.925781 -18.113281 15.0625 -18.78125 C 15.539062 -20.5 16.257812 -22.144531 17.21875 -23.71875 C 17.644531 -25.90625 18.09375 -28.148438 18.5625 -30.453125 C 19.039062 -32.765625 19.519531 -35.160156 20 -37.640625 C 21.1875 -43.453125 22.289062 -48.851562 23.3125 -53.84375 C 24.34375 -58.84375 25.191406 -63.175781 25.859375 -66.84375 C 23.617188 -66.28125 21.519531 -65.5 19.5625 -64.5 C 14.332031 -61.96875 10.617188 -58.425781 8.421875 -53.875 C 6.234375 -49.332031 5.757812 -44.207031 7 -38.5 C 7.09375 -38.113281 7.03125 -37.765625 6.8125 -37.453125 C 6.601562 -37.148438 6.332031 -36.953125 6 -36.859375 C 5.613281 -36.753906 5.253906 -36.8125 4.921875 -37.03125 C 4.585938 -37.25 4.398438 -37.546875 4.359375 -37.921875 C 2.929688 -44.304688 3.441406 -50.03125 5.890625 -55.09375 C 8.347656 -60.164062 12.503906 -64.132812 18.359375 -67 C 20.878906 -68.226562 23.566406 -69.15625 26.421875 -69.78125 C 26.472656 -70.019531 26.519531 -70.242188 26.5625 -70.453125 C 26.613281 -70.671875 26.664062 -70.898438 26.71875 -71.140625 C 26.757812 -71.515625 26.9375 -71.804688 27.25 -72.015625 C 27.5625 -72.234375 27.90625 -72.296875 28.28125 -72.203125 C 28.664062 -72.160156 28.960938 -71.984375 29.171875 -71.671875 C 29.390625 -71.359375 29.453125 -71.015625 29.359375 -70.640625 C 29.359375 -70.585938 29.359375 -70.535156 29.359375 -70.484375 C 29.359375 -70.441406 29.359375 -70.394531 29.359375 -70.34375 C 32.546875 -70.78125 35.6875 -70.816406 38.78125 -70.453125 C 41.875 -70.097656 44.679688 -69.347656 47.203125 -68.203125 C 49.734375 -67.066406 51.785156 -65.546875 53.359375 -63.640625 C 55.160156 -61.492188 56.191406 -59.207031 56.453125 -56.78125 C 56.722656 -54.351562 56.5 -51.945312 55.78125 -49.5625 C 55.0625 -47.1875 54.09375 -44.945312 52.875 -42.84375 C 51.664062 -40.75 50.492188 -38.941406 49.359375 -37.421875 C 48.972656 -36.847656 48.519531 -36.273438 48 -35.703125 C 52.613281 -34.753906 56.28125 -32.59375 59 -29.21875 Z M 18.921875 -18.5 C 20.015625 -18.832031 21.441406 -19.425781 23.203125 -20.28125 C 24.972656 -21.132812 26.953125 -22.226562 29.140625 -23.5625 C 31.328125 -24.894531 33.550781 -26.394531 35.8125 -28.0625 C 38.070312 -29.726562 40.203125 -31.539062 42.203125 -33.5 C 40.347656 -33.5 38.398438 -33.285156 36.359375 -32.859375 C 34.359375 -32.472656 32.304688 -31.835938 30.203125 -30.953125 C 28.109375 -30.078125 26.15625 -28.957031 24.34375 -27.59375 C 22.539062 -26.238281 21.019531 -24.613281 19.78125 -22.71875 C 19.632812 -22 19.488281 -21.289062 19.34375 -20.59375 C 19.207031 -19.90625 19.066406 -19.207031 18.921875 -18.5 Z M 44.78125 -36.203125 C 45.6875 -37.160156 46.492188 -38.113281 47.203125 -39.0625 C 50.679688 -43.78125 52.773438 -48.09375 53.484375 -52 C 54.203125 -55.90625 53.46875 -59.1875 51.28125 -61.84375 C 49.851562 -63.5625 47.957031 -64.921875 45.59375 -65.921875 C 43.238281 -66.921875 40.597656 -67.550781 37.671875 -67.8125 C 34.742188 -68.070312 31.78125 -67.941406 28.78125 -67.421875 C 28.113281 -63.753906 27.242188 -59.3125 26.171875 -54.09375 C 25.097656 -48.882812 23.945312 -43.234375 22.71875 -37.140625 C 22.425781 -35.710938 22.125 -34.257812 21.8125 -32.78125 C 21.507812 -31.300781 21.210938 -29.800781 20.921875 -28.28125 C 22.785156 -30.039062 24.988281 -31.539062 27.53125 -32.78125 C 30.082031 -34.019531 32.859375 -34.945312 35.859375 -35.5625 C 38.992188 -36.1875 41.96875 -36.398438 44.78125 -36.203125 Z M 44.78125 -36.203125 "/></g></g></g><g fill="#000000" fill-opacity="1"><g transform="translate(93.96337, 113.044641)"><g><path d="M 31.359375 -16.21875 C 31.691406 -16.019531 31.925781 -15.742188 32.0625 -15.390625 C 32.207031 -15.035156 32.1875 -14.691406 32 -14.359375 C 31.09375 -12.398438 29.984375 -10.207031 28.671875 -7.78125 C 27.367188 -5.351562 25.976562 -2.910156 24.5 -0.453125 C 23.019531 1.992188 21.519531 4.226562 20 6.25 C 18.476562 8.269531 17 9.910156 15.5625 11.171875 C 14.132812 12.429688 12.851562 13.0625 11.71875 13.0625 C 11.382812 13.0625 11.070312 12.992188 10.78125 12.859375 C 9.78125 12.472656 9.125 11.566406 8.8125 10.140625 C 8.507812 8.710938 8.546875 6.664062 8.921875 4 C 9.585938 -0.8125 11.351562 -7.617188 14.21875 -16.421875 C 14.164062 -16.421875 14.125 -16.410156 14.09375 -16.390625 C 14.070312 -16.367188 14.039062 -16.359375 14 -16.359375 C 13.039062 -15.691406 11.894531 -15 10.5625 -14.28125 C 9.238281 -13.570312 7.859375 -13.097656 6.421875 -12.859375 C 4.992188 -12.617188 3.640625 -12.925781 2.359375 -13.78125 C 0.546875 -15.070312 -0.378906 -16.859375 -0.421875 -19.140625 C -0.472656 -21.421875 0.378906 -23.921875 2.140625 -26.640625 C 2.710938 -27.492188 3.460938 -28.441406 4.390625 -29.484375 C 5.316406 -30.535156 6.289062 -31.347656 7.3125 -31.921875 C 8.34375 -32.492188 9.265625 -32.519531 10.078125 -32 C 10.503906 -31.757812 10.820312 -31.351562 11.03125 -30.78125 C 11.25 -30.207031 11.238281 -29.328125 11 -28.140625 C 10.757812 -26.953125 10.1875 -25.359375 9.28125 -23.359375 C 8.375 -21.359375 7.019531 -18.757812 5.21875 -15.5625 C 6.3125 -15.425781 7.535156 -15.738281 8.890625 -16.5 C 10.242188 -17.257812 11.445312 -17.972656 12.5 -18.640625 C 13.5 -19.304688 14.332031 -19.789062 15 -20.09375 C 15.664062 -20.40625 16.285156 -20.347656 16.859375 -19.921875 C 17.378906 -19.492188 17.59375 -18.96875 17.5 -18.34375 C 17.40625 -17.726562 17.3125 -17.253906 17.21875 -16.921875 C 15.644531 -11.972656 14.425781 -7.851562 13.5625 -4.5625 C 12.707031 -1.28125 12.125 1.359375 11.8125 3.359375 C 11.507812 5.359375 11.359375 6.859375 11.359375 7.859375 C 11.359375 8.859375 11.425781 9.507812 11.5625 9.8125 C 11.707031 10.125 11.78125 10.304688 11.78125 10.359375 C 12.351562 10.453125 13.53125 9.535156 15.3125 7.609375 C 17.101562 5.679688 19.234375 2.78125 21.703125 -1.09375 C 24.179688 -4.976562 26.78125 -9.78125 29.5 -15.5 C 29.6875 -15.875 29.957031 -16.117188 30.3125 -16.234375 C 30.675781 -16.359375 31.023438 -16.351562 31.359375 -16.21875 Z M 2.578125 -21.0625 C 2.285156 -20.0625 2.195312 -19.238281 2.3125 -18.59375 C 2.4375 -17.957031 2.617188 -17.445312 2.859375 -17.0625 C 4.378906 -19.726562 5.53125 -21.894531 6.3125 -23.5625 C 7.101562 -25.226562 7.640625 -26.515625 7.921875 -27.421875 C 8.210938 -28.328125 8.378906 -28.972656 8.421875 -29.359375 C 7.898438 -29.066406 7.242188 -28.515625 6.453125 -27.703125 C 5.671875 -26.898438 4.910156 -25.925781 4.171875 -24.78125 C 3.441406 -23.632812 2.910156 -22.394531 2.578125 -21.0625 Z M 2.578125 -21.0625 "/></g></g></g><g fill="#000000" fill-opacity="1"><g transform="translate(122.458701, 113.044641)"><g><path d="M 24.140625 -15.921875 C 24.472656 -15.734375 24.660156 -15.445312 24.703125 -15.0625 C 24.753906 -14.6875 24.6875 -14.351562 24.5 -14.0625 C 21.6875 -10.164062 19.113281 -6.941406 16.78125 -4.390625 C 14.445312 -1.847656 12.113281 0.253906 9.78125 1.921875 C 8.019531 3.160156 6.285156 3.78125 4.578125 3.78125 C 3.242188 3.78125 2.078125 3.425781 1.078125 2.71875 C 0.410156 2.238281 -0.242188 1.390625 -0.890625 0.171875 C -1.535156 -1.035156 -1.878906 -2.796875 -1.921875 -5.109375 C -1.972656 -7.421875 -1.40625 -10.457031 -0.21875 -14.21875 C -0.21875 -14.21875 -0.21875 -14.238281 -0.21875 -14.28125 C 1.207031 -18.851562 2.882812 -22.34375 4.8125 -24.75 C 6.75 -27.15625 8.40625 -28.378906 9.78125 -28.421875 C 10.875 -28.472656 11.585938 -28 11.921875 -27 C 12.453125 -25.613281 11.832031 -23.644531 10.0625 -21.09375 C 8.300781 -18.550781 5.707031 -15.851562 2.28125 -13 C 1.238281 -9.664062 0.738281 -7.054688 0.78125 -5.171875 C 0.832031 -3.296875 1.09375 -1.941406 1.5625 -1.109375 C 2.039062 -0.273438 2.425781 0.257812 2.71875 0.5 C 4.144531 1.550781 5.976562 1.265625 8.21875 -0.359375 C 10.40625 -1.878906 12.617188 -3.863281 14.859375 -6.3125 C 17.097656 -8.769531 19.550781 -11.878906 22.21875 -15.640625 C 22.445312 -15.921875 22.753906 -16.097656 23.140625 -16.171875 C 23.523438 -16.242188 23.859375 -16.160156 24.140625 -15.921875 Z M 9.28125 -25.421875 C 8.757812 -25.085938 8.046875 -24.382812 7.140625 -23.3125 C 6.234375 -22.25 5.304688 -20.691406 4.359375 -18.640625 C 6.066406 -20.304688 7.28125 -21.722656 8 -22.890625 C 8.71875 -24.054688 9.144531 -24.898438 9.28125 -25.421875 Z M 9.28125 -25.421875 "/></g></g></g><g fill="#000000" fill-opacity="1"><g transform="translate(143.241014, 113.044641)"><g><path d="M 60.28125 -42.140625 C 60.519531 -41.847656 60.613281 -41.507812 60.5625 -41.125 C 60.519531 -40.75 60.332031 -40.441406 60 -40.203125 C 59.425781 -39.828125 58.878906 -39.851562 58.359375 -40.28125 C 57.734375 -40.519531 56.3125 -40.6875 54.09375 -40.78125 C 51.882812 -40.875 49.113281 -40.929688 45.78125 -40.953125 C 42.445312 -40.984375 38.78125 -40.972656 34.78125 -40.921875 C 30.78125 -40.878906 26.671875 -40.820312 22.453125 -40.75 C 18.242188 -40.675781 14.164062 -40.59375 10.21875 -40.5 C 8.738281 -34.3125 7.1875 -27.582031 5.5625 -20.3125 C 3.945312 -13.050781 2.351562 -5.6875 0.78125 1.78125 C -1.257812 11.59375 -2.835938 19.640625 -3.953125 25.921875 C -5.078125 32.210938 -5.804688 36.757812 -6.140625 39.5625 C -6.046875 39.5625 -5.953125 39.585938 -5.859375 39.640625 C -5.472656 39.734375 -5.207031 39.957031 -5.0625 40.3125 C -4.925781 40.675781 -4.929688 41.023438 -5.078125 41.359375 C -5.359375 42.160156 -5.675781 42.90625 -6.03125 43.59375 C -6.394531 44.289062 -6.882812 44.640625 -7.5 44.640625 C -7.644531 44.640625 -7.8125 44.613281 -8 44.5625 C -8.664062 44.320312 -9.035156 43.8125 -9.109375 43.03125 C -9.179688 42.25 -9.117188 41.164062 -8.921875 39.78125 C -8.734375 37.78125 -8.304688 34.898438 -7.640625 31.140625 C -7.066406 27.617188 -6.328125 23.5 -5.421875 18.78125 C -4.523438 14.070312 -3.476562 8.90625 -2.28125 3.28125 C -0.707031 -4.332031 0.910156 -11.898438 2.578125 -19.421875 C 4.242188 -26.953125 5.835938 -33.953125 7.359375 -40.421875 C 5.066406 -40.378906 2.894531 -40.332031 0.84375 -40.28125 C -1.195312 -40.226562 -3.050781 -40.179688 -4.71875 -40.140625 C -7.90625 -40.046875 -10.6875 -39.972656 -13.0625 -39.921875 C -15.445312 -39.878906 -17.140625 -39.859375 -18.140625 -39.859375 C -18.523438 -39.859375 -18.847656 -39.988281 -19.109375 -40.25 C -19.367188 -40.507812 -19.5 -40.828125 -19.5 -41.203125 C -19.5 -41.585938 -19.367188 -41.910156 -19.109375 -42.171875 C -18.847656 -42.429688 -18.523438 -42.5625 -18.140625 -42.5625 C -17.140625 -42.5625 -15.460938 -42.597656 -13.109375 -42.671875 C -10.753906 -42.742188 -7.976562 -42.828125 -4.78125 -42.921875 C -2.5 -42.972656 -0.285156 -43.019531 1.859375 -43.0625 C 4.003906 -43.113281 6.078125 -43.160156 8.078125 -43.203125 C 8.785156 -46.253906 9.484375 -49.125 10.171875 -51.8125 C 10.867188 -54.507812 11.523438 -56.972656 12.140625 -59.203125 C 12.234375 -59.585938 12.445312 -59.875 12.78125 -60.0625 C 13.113281 -60.25 13.445312 -60.296875 13.78125 -60.203125 C 14.164062 -60.109375 14.453125 -59.894531 14.640625 -59.5625 C 14.828125 -59.226562 14.875 -58.875 14.78125 -58.5 C 13.632812 -54.257812 12.328125 -49.1875 10.859375 -43.28125 C 18.285156 -43.425781 24.640625 -43.53125 29.921875 -43.59375 C 35.210938 -43.664062 39.640625 -43.703125 43.203125 -43.703125 C 46.773438 -43.703125 49.664062 -43.65625 51.875 -43.5625 C 54.09375 -43.46875 55.773438 -43.359375 56.921875 -43.234375 C 58.066406 -43.117188 58.875 -42.96875 59.34375 -42.78125 C 59.820312 -42.59375 60.132812 -42.378906 60.28125 -42.140625 Z M 60.28125 -42.140625 "/></g></g></g><g fill="#000000" fill-opacity="1"><g transform="translate(152.739453, 113.044641)"><g><path d="M 60.28125 -42.140625 C 60.519531 -41.847656 60.613281 -41.507812 60.5625 -41.125 C 60.519531 -40.75 60.332031 -40.441406 60 -40.203125 C 59.425781 -39.828125 58.878906 -39.851562 58.359375 -40.28125 C 57.734375 -40.519531 56.3125 -40.6875 54.09375 -40.78125 C 51.882812 -40.875 49.113281 -40.929688 45.78125 -40.953125 C 42.445312 -40.984375 38.78125 -40.972656 34.78125 -40.921875 C 30.78125 -40.878906 26.671875 -40.820312 22.453125 -40.75 C 18.242188 -40.675781 14.164062 -40.59375 10.21875 -40.5 C 8.738281 -34.3125 7.1875 -27.582031 5.5625 -20.3125 C 3.945312 -13.050781 2.351562 -5.6875 0.78125 1.78125 C -1.257812 11.59375 -2.835938 19.640625 -3.953125 25.921875 C -5.078125 32.210938 -5.804688 36.757812 -6.140625 39.5625 C -6.046875 39.5625 -5.953125 39.585938 -5.859375 39.640625 C -5.472656 39.734375 -5.207031 39.957031 -5.0625 40.3125 C -4.925781 40.675781 -4.929688 41.023438 -5.078125 41.359375 C -5.359375 42.160156 -5.675781 42.90625 -6.03125 43.59375 C -6.394531 44.289062 -6.882812 44.640625 -7.5 44.640625 C -7.644531 44.640625 -7.8125 44.613281 -8 44.5625 C -8.664062 44.320312 -9.035156 43.8125 -9.109375 43.03125 C -9.179688 42.25 -9.117188 41.164062 -8.921875 39.78125 C -8.734375 37.78125 -8.304688 34.898438 -7.640625 31.140625 C -7.066406 27.617188 -6.328125 23.5 -5.421875 18.78125 C -4.523438 14.070312 -3.476562 8.90625 -2.28125 3.28125 C -0.707031 -4.332031 0.910156 -11.898438 2.578125 -19.421875 C 4.242188 -26.953125 5.835938 -33.953125 7.359375 -40.421875 C 5.066406 -40.378906 2.894531 -40.332031 0.84375 -40.28125 C -1.195312 -40.226562 -3.050781 -40.179688 -4.71875 -40.140625 C -7.90625 -40.046875 -10.6875 -39.972656 -13.0625 -39.921875 C -15.445312 -39.878906 -17.140625 -39.859375 -18.140625 -39.859375 C -18.523438 -39.859375 -18.847656 -39.988281 -19.109375 -40.25 C -19.367188 -40.507812 -19.5 -40.828125 -19.5 -41.203125 C -19.5 -41.585938 -19.367188 -41.910156 -19.109375 -42.171875 C -18.847656 -42.429688 -18.523438 -42.5625 -18.140625 -42.5625 C -17.140625 -42.5625 -15.460938 -42.597656 -13.109375 -42.671875 C -10.753906 -42.742188 -7.976562 -42.828125 -4.78125 -42.921875 C -2.5 -42.972656 -0.285156 -43.019531 1.859375 -43.0625 C 4.003906 -43.113281 6.078125 -43.160156 8.078125 -43.203125 C 8.785156 -46.253906 9.484375 -49.125 10.171875 -51.8125 C 10.867188 -54.507812 11.523438 -56.972656 12.140625 -59.203125 C 12.234375 -59.585938 12.445312 -59.875 12.78125 -60.0625 C 13.113281 -60.25 13.445312 -60.296875 13.78125 -60.203125 C 14.164062 -60.109375 14.453125 -59.894531 14.640625 -59.5625 C 14.828125 -59.226562 14.875 -58.875 14.78125 -58.5 C 13.632812 -54.257812 12.328125 -49.1875 10.859375 -43.28125 C 18.285156 -43.425781 24.640625 -43.53125 29.921875 -43.59375 C 35.210938 -43.664062 39.640625 -43.703125 43.203125 -43.703125 C 46.773438 -43.703125 49.664062 -43.65625 51.875 -43.5625 C 54.09375 -43.46875 55.773438 -43.359375 56.921875 -43.234375 C 58.066406 -43.117188 58.875 -42.96875 59.34375 -42.78125 C 59.820312 -42.59375 60.132812 -42.378906 60.28125 -42.140625 Z M 60.28125 -42.140625 "/></g></g></g><g fill="#000000" fill-opacity="1"><g transform="translate(162.237892, 113.044641)"><g/></g></g><g fill="#000000" fill-opacity="1"><g transform="translate(184.162868, 113.044641)"><g><path d="M 63.84375 -28.5 C 63.945312 -28.113281 63.914062 -27.753906 63.75 -27.421875 C 63.582031 -27.085938 63.332031 -26.851562 63 -26.71875 C 60.800781 -26.050781 58.191406 -25.25 55.171875 -24.3125 C 52.148438 -23.382812 48.828125 -22.375 45.203125 -21.28125 C 44.734375 -18.664062 44.25 -16.070312 43.75 -13.5 C 43.25 -10.925781 42.785156 -8.425781 42.359375 -6 C 41.210938 -0.0507812 40.207031 5.160156 39.34375 9.640625 C 38.488281 14.117188 37.847656 17.359375 37.421875 19.359375 C 37.273438 20.066406 36.820312 20.421875 36.0625 20.421875 C 35.96875 20.421875 35.875 20.421875 35.78125 20.421875 C 35.445312 20.328125 35.171875 20.125 34.953125 19.8125 C 34.742188 19.507812 34.6875 19.164062 34.78125 18.78125 C 35.019531 17.445312 35.390625 15.53125 35.890625 13.03125 C 36.390625 10.53125 36.957031 7.601562 37.59375 4.25 C 38.238281 0.894531 38.921875 -2.6875 39.640625 -6.5 C 40.066406 -8.6875 40.492188 -10.945312 40.921875 -13.28125 C 41.347656 -15.613281 41.800781 -17.992188 42.28125 -20.421875 C 42.226562 -20.378906 42.191406 -20.359375 42.171875 -20.359375 C 42.148438 -20.359375 42.113281 -20.359375 42.0625 -20.359375 C 37.539062 -18.972656 32.71875 -17.503906 27.59375 -15.953125 C 22.476562 -14.410156 17.421875 -12.851562 12.421875 -11.28125 C 10.710938 -3.09375 9.285156 3.925781 8.140625 9.78125 C 6.992188 15.632812 6.050781 20.523438 5.3125 24.453125 C 4.582031 28.390625 4.015625 31.546875 3.609375 33.921875 C 3.203125 36.304688 2.90625 38.117188 2.71875 39.359375 C 3.519531 39.691406 3.78125 40.257812 3.5 41.0625 C 3.257812 41.820312 2.984375 42.5 2.671875 43.09375 C 2.367188 43.695312 1.929688 44 1.359375 44 C 1.210938 44 1.046875 43.972656 0.859375 43.921875 C 0.140625 43.734375 -0.226562 43.234375 -0.25 42.421875 C -0.269531 41.609375 -0.160156 40.421875 0.078125 38.859375 C 0.359375 36.660156 0.859375 33.539062 1.578125 29.5 C 2.859375 22.5 4.757812 12.738281 7.28125 0.21875 C 7.613281 -1.5 7.957031 -3.25 8.3125 -5.03125 C 8.675781 -6.820312 9.046875 -8.597656 9.421875 -10.359375 C 7.472656 -9.734375 5.566406 -9.125 3.703125 -8.53125 C 1.847656 -7.9375 0.0390625 -7.332031 -1.71875 -6.71875 C -7.1875 -4.90625 -11.539062 -3.390625 -14.78125 -2.171875 C -18.019531 -0.960938 -20.445312 0.0078125 -22.0625 0.75 C -23.6875 1.488281 -24.804688 2.070312 -25.421875 2.5 C -24.953125 2.832031 -24.765625 3.285156 -24.859375 3.859375 C -24.992188 4.617188 -25.445312 5 -26.21875 5 C -26.3125 5 -26.40625 4.972656 -26.5 4.921875 C -27.445312 4.734375 -28.078125 4.4375 -28.390625 4.03125 C -28.703125 3.625 -28.878906 3.234375 -28.921875 2.859375 C -28.921875 2.378906 -28.742188 1.898438 -28.390625 1.421875 C -28.035156 0.953125 -27.304688 0.394531 -26.203125 -0.25 C -25.109375 -0.894531 -23.492188 -1.671875 -21.359375 -2.578125 C -17.359375 -4.242188 -11.617188 -6.335938 -4.140625 -8.859375 C -1.898438 -9.566406 0.394531 -10.300781 2.75 -11.0625 C 5.101562 -11.832031 7.519531 -12.617188 10 -13.421875 C 10.90625 -17.804688 11.785156 -22.066406 12.640625 -26.203125 C 13.492188 -30.347656 14.300781 -34.21875 15.0625 -37.8125 C 15.832031 -41.40625 16.5 -44.570312 17.0625 -47.3125 C 17.632812 -50.050781 18.085938 -52.207031 18.421875 -53.78125 L 18.78125 -55.203125 C 19.207031 -57.253906 19.410156 -58.765625 19.390625 -59.734375 C 19.367188 -60.710938 19.285156 -61.359375 19.140625 -61.671875 C 18.992188 -61.984375 18.921875 -62.140625 18.921875 -62.140625 C 18.828125 -62.179688 18.503906 -62.117188 17.953125 -61.953125 C 17.410156 -61.785156 16.566406 -61.203125 15.421875 -60.203125 C 13.753906 -58.773438 12.003906 -56.847656 10.171875 -54.421875 C 8.335938 -51.992188 6.707031 -49.472656 5.28125 -46.859375 C 3.757812 -43.992188 2.703125 -41.429688 2.109375 -39.171875 C 1.515625 -36.910156 1.453125 -35.1875 1.921875 -34 C 2.023438 -33.757812 2.328125 -33.390625 2.828125 -32.890625 C 3.328125 -32.390625 4.382812 -32.1875 6 -32.28125 C 6.382812 -32.332031 6.71875 -32.222656 7 -31.953125 C 7.28125 -31.691406 7.445312 -31.375 7.5 -31 C 7.5 -30.613281 7.378906 -30.273438 7.140625 -29.984375 C 6.898438 -29.703125 6.59375 -29.5625 6.21875 -29.5625 C 4.019531 -29.425781 2.421875 -29.75 1.421875 -30.53125 C 0.421875 -31.320312 -0.265625 -32.144531 -0.640625 -33 C -1.210938 -34.425781 -1.304688 -36.160156 -0.921875 -38.203125 C -0.546875 -40.253906 0.148438 -42.429688 1.171875 -44.734375 C 2.203125 -47.046875 3.429688 -49.320312 4.859375 -51.5625 C 6.285156 -53.800781 7.769531 -55.859375 9.3125 -57.734375 C 10.863281 -59.617188 12.28125 -61.132812 13.5625 -62.28125 C 16.425781 -64.757812 18.664062 -65.5 20.28125 -64.5 C 22.238281 -63.351562 22.617188 -60.085938 21.421875 -54.703125 L 21.140625 -53.203125 C 19.523438 -45.585938 18.050781 -38.550781 16.71875 -32.09375 C 15.382812 -25.644531 14.144531 -19.734375 13 -14.359375 C 17.8125 -15.828125 22.644531 -17.300781 27.5 -18.78125 C 32.351562 -20.257812 36.945312 -21.664062 41.28125 -23 C 41.519531 -23.039062 41.769531 -23.109375 42.03125 -23.203125 C 42.289062 -23.304688 42.566406 -23.378906 42.859375 -23.421875 C 43.753906 -28.285156 44.664062 -33.109375 45.59375 -37.890625 C 46.53125 -42.671875 47.425781 -47.203125 48.28125 -51.484375 C 49.132812 -55.773438 49.929688 -59.585938 50.671875 -62.921875 C 51.410156 -66.253906 52.019531 -68.894531 52.5 -70.84375 C 52.59375 -71.226562 52.804688 -71.515625 53.140625 -71.703125 C 53.472656 -71.898438 53.804688 -71.945312 54.140625 -71.84375 C 54.515625 -71.75 54.796875 -71.535156 54.984375 -71.203125 C 55.179688 -70.867188 55.234375 -70.535156 55.140625 -70.203125 C 54.660156 -68.296875 54.078125 -65.734375 53.390625 -62.515625 C 52.703125 -59.304688 51.941406 -55.644531 51.109375 -51.53125 C 50.273438 -47.414062 49.40625 -43.035156 48.5 -38.390625 C 47.59375 -33.742188 46.6875 -29.066406 45.78125 -24.359375 C 49.113281 -25.359375 52.171875 -26.273438 54.953125 -27.109375 C 57.742188 -27.941406 60.140625 -28.691406 62.140625 -29.359375 C 62.472656 -29.453125 62.816406 -29.414062 63.171875 -29.25 C 63.523438 -29.082031 63.75 -28.832031 63.84375 -28.5 Z M 63.84375 -28.5 "/></g></g></g><g fill="#000000" fill-opacity="1"><g transform="translate(244.938624, 113.044641)"><g><path d="M 25.859375 -15.5625 C 26.191406 -15.332031 26.378906 -15.023438 26.421875 -14.640625 C 26.472656 -14.253906 26.378906 -13.921875 26.140625 -13.640625 C 24.898438 -12.066406 23.457031 -10.660156 21.8125 -9.421875 C 20.175781 -8.191406 18.460938 -7.273438 16.671875 -6.671875 C 14.890625 -6.078125 13.164062 -5.972656 11.5 -6.359375 C 10.832031 -4.691406 9.890625 -3.40625 8.671875 -2.5 C 7.460938 -1.59375 6.238281 -1.140625 5 -1.140625 C 5 -1.140625 4.984375 -1.140625 4.953125 -1.140625 C 4.929688 -1.140625 4.921875 -1.140625 4.921875 -1.140625 C 3.640625 -1.191406 2.507812 -1.632812 1.53125 -2.46875 C 0.5625 -3.300781 -0.113281 -4.453125 -0.5 -5.921875 C -0.925781 -7.585938 -0.992188 -9.171875 -0.703125 -10.671875 C -0.421875 -12.171875 0.0976562 -13.492188 0.859375 -14.640625 C 1.617188 -15.785156 2.472656 -16.664062 3.421875 -17.28125 C 3.753906 -17.519531 4.140625 -17.566406 4.578125 -17.421875 C 5.003906 -18.472656 5.609375 -19.285156 6.390625 -19.859375 C 7.179688 -20.429688 8.003906 -20.644531 8.859375 -20.5 C 9.378906 -20.40625 9.945312 -20.082031 10.5625 -19.53125 C 11.1875 -18.988281 11.6875 -18.015625 12.0625 -16.609375 C 12.445312 -15.203125 12.566406 -13.140625 12.421875 -10.421875 C 12.378906 -9.953125 12.3125 -9.476562 12.21875 -9 C 13.5 -8.757812 14.851562 -8.898438 16.28125 -9.421875 C 17.707031 -9.953125 19.085938 -10.75 20.421875 -11.8125 C 21.753906 -12.882812 22.921875 -14.066406 23.921875 -15.359375 C 24.160156 -15.640625 24.46875 -15.800781 24.84375 -15.84375 C 25.226562 -15.894531 25.566406 -15.800781 25.859375 -15.5625 Z M 5 -3.921875 C 5.613281 -3.921875 6.300781 -4.207031 7.0625 -4.78125 C 7.832031 -5.351562 8.453125 -6.210938 8.921875 -7.359375 C 7.210938 -8.304688 5.988281 -9.398438 5.25 -10.640625 C 4.507812 -11.878906 4.117188 -13.117188 4.078125 -14.359375 C 3.078125 -13.398438 2.421875 -12.179688 2.109375 -10.703125 C 1.796875 -9.234375 1.804688 -7.90625 2.140625 -6.71875 C 2.285156 -6.1875 2.570312 -5.585938 3 -4.921875 C 3.425781 -4.253906 4.09375 -3.921875 5 -3.921875 Z M 9.640625 -10.578125 C 9.734375 -12.472656 9.695312 -13.941406 9.53125 -14.984375 C 9.363281 -16.035156 9.160156 -16.753906 8.921875 -17.140625 C 8.691406 -17.523438 8.523438 -17.738281 8.421875 -17.78125 C 8.378906 -17.78125 8.359375 -17.78125 8.359375 -17.78125 C 8.210938 -17.78125 7.992188 -17.632812 7.703125 -17.34375 C 7.421875 -17.0625 7.1875 -16.632812 7 -16.0625 C 6.71875 -15.164062 6.742188 -14.179688 7.078125 -13.109375 C 7.410156 -12.035156 8.265625 -11.046875 9.640625 -10.140625 C 9.640625 -10.285156 9.640625 -10.429688 9.640625 -10.578125 Z M 9.640625 -10.578125 "/></g></g></g><g fill="#000000" fill-opacity="1"><g transform="translate(267.792025, 113.044641)"><g><path d="M 43.78125 -16.0625 C 44.019531 -15.832031 44.148438 -15.523438 44.171875 -15.140625 C 44.191406 -14.753906 44.0625 -14.421875 43.78125 -14.140625 C 41.539062 -11.859375 39.265625 -10.265625 36.953125 -9.359375 C 34.648438 -8.453125 32.519531 -8.285156 30.5625 -8.859375 C 29.707031 -9.140625 28.800781 -9.613281 27.84375 -10.28125 C 26.894531 -10.945312 26.066406 -11.992188 25.359375 -13.421875 C 24.640625 -10.753906 23.828125 -8.207031 22.921875 -5.78125 C 21.921875 -3.164062 21.023438 -1.226562 20.234375 0.03125 C 19.453125 1.289062 18.753906 2.125 18.140625 2.53125 C 17.523438 2.9375 16.976562 3.140625 16.5 3.140625 C 15.644531 3.140625 14.976562 2.816406 14.5 2.171875 C 14.019531 1.535156 13.660156 0.832031 13.421875 0.0625 C 13.179688 -0.695312 13.015625 -1.289062 12.921875 -1.71875 C 12.785156 -2.519531 12.664062 -3.472656 12.5625 -4.578125 C 10.945312 -2.046875 9.648438 -0.148438 8.671875 1.109375 C 7.703125 2.367188 6.835938 3.359375 6.078125 4.078125 C 5.453125 4.691406 4.878906 5.101562 4.359375 5.3125 C 3.835938 5.53125 3.359375 5.640625 2.921875 5.640625 C 2.585938 5.640625 2.28125 5.59375 2 5.5 C 1.71875 5.40625 1.503906 5.285156 1.359375 5.140625 C 0.171875 4.378906 -0.539062 2.734375 -0.78125 0.203125 C -1.019531 -2.316406 -0.804688 -5.40625 -0.140625 -9.0625 C 0.523438 -12.726562 1.617188 -16.707031 3.140625 -21 C 3.285156 -21.332031 3.523438 -21.582031 3.859375 -21.75 C 4.191406 -21.914062 4.546875 -21.925781 4.921875 -21.78125 C 5.253906 -21.6875 5.503906 -21.457031 5.671875 -21.09375 C 5.835938 -20.738281 5.851562 -20.394531 5.71875 -20.0625 C 4 -15.300781 2.890625 -11.265625 2.390625 -7.953125 C 1.890625 -4.648438 1.734375 -2.09375 1.921875 -0.28125 C 2.117188 1.519531 2.429688 2.566406 2.859375 2.859375 C 3.046875 3.003906 3.5 2.742188 4.21875 2.078125 C 4.789062 1.546875 5.421875 0.84375 6.109375 -0.03125 C 6.796875 -0.914062 7.648438 -2.117188 8.671875 -3.640625 C 9.703125 -5.160156 11 -7.160156 12.5625 -9.640625 C 12.894531 -10.210938 13.394531 -10.40625 14.0625 -10.21875 C 14.726562 -10.019531 15.0625 -9.566406 15.0625 -8.859375 C 15.0625 -8.003906 15.109375 -6.957031 15.203125 -5.71875 C 15.304688 -4.476562 15.453125 -3.3125 15.640625 -2.21875 C 15.828125 -1.40625 15.992188 -0.804688 16.140625 -0.421875 C 16.285156 -0.046875 16.40625 0.210938 16.5 0.359375 C 16.976562 0.0664062 17.5625 -0.742188 18.25 -2.078125 C 18.9375 -3.410156 19.648438 -5.023438 20.390625 -6.921875 C 21.128906 -8.828125 21.796875 -10.828125 22.390625 -12.921875 C 22.984375 -15.015625 23.398438 -16.96875 23.640625 -18.78125 C 23.785156 -19.539062 24.238281 -19.921875 25 -19.921875 C 25.757812 -19.972656 26.210938 -19.617188 26.359375 -18.859375 C 27.160156 -14.710938 28.828125 -12.257812 31.359375 -11.5 C 32.785156 -11.070312 34.425781 -11.257812 36.28125 -12.0625 C 38.132812 -12.875 39.992188 -14.207031 41.859375 -16.0625 C 42.085938 -16.351562 42.394531 -16.5 42.78125 -16.5 C 43.164062 -16.5 43.5 -16.351562 43.78125 -16.0625 Z M 43.78125 -16.0625 "/></g></g></g><g fill="#000000" fill-opacity="1"><g transform="translate(308.428227, 113.044641)"><g><path d="M 24.140625 -15.921875 C 24.472656 -15.734375 24.660156 -15.445312 24.703125 -15.0625 C 24.753906 -14.6875 24.6875 -14.351562 24.5 -14.0625 C 21.6875 -10.164062 19.113281 -6.941406 16.78125 -4.390625 C 14.445312 -1.847656 12.113281 0.253906 9.78125 1.921875 C 8.019531 3.160156 6.285156 3.78125 4.578125 3.78125 C 3.242188 3.78125 2.078125 3.425781 1.078125 2.71875 C 0.410156 2.238281 -0.242188 1.390625 -0.890625 0.171875 C -1.535156 -1.035156 -1.878906 -2.796875 -1.921875 -5.109375 C -1.972656 -7.421875 -1.40625 -10.457031 -0.21875 -14.21875 C -0.21875 -14.21875 -0.21875 -14.238281 -0.21875 -14.28125 C 1.207031 -18.851562 2.882812 -22.34375 4.8125 -24.75 C 6.75 -27.15625 8.40625 -28.378906 9.78125 -28.421875 C 10.875 -28.472656 11.585938 -28 11.921875 -27 C 12.453125 -25.613281 11.832031 -23.644531 10.0625 -21.09375 C 8.300781 -18.550781 5.707031 -15.851562 2.28125 -13 C 1.238281 -9.664062 0.738281 -7.054688 0.78125 -5.171875 C 0.832031 -3.296875 1.09375 -1.941406 1.5625 -1.109375 C 2.039062 -0.273438 2.425781 0.257812 2.71875 0.5 C 4.144531 1.550781 5.976562 1.265625 8.21875 -0.359375 C 10.40625 -1.878906 12.617188 -3.863281 14.859375 -6.3125 C 17.097656 -8.769531 19.550781 -11.878906 22.21875 -15.640625 C 22.445312 -15.921875 22.753906 -16.097656 23.140625 -16.171875 C 23.523438 -16.242188 23.859375 -16.160156 24.140625 -15.921875 Z M 9.28125 -25.421875 C 8.757812 -25.085938 8.046875 -24.382812 7.140625 -23.3125 C 6.234375 -22.25 5.304688 -20.691406 4.359375 -18.640625 C 6.066406 -20.304688 7.28125 -21.722656 8 -22.890625 C 8.71875 -24.054688 9.144531 -24.898438 9.28125 -25.421875 Z M 9.28125 -25.421875 "/></g></g></g><g fill="#000000" fill-opacity="1"><g transform="translate(329.21054, 113.044641)"><g><path d="M 21 -66.921875 C 21.613281 -66.015625 21.625 -64.179688 21.03125 -61.421875 C 20.4375 -58.660156 19.207031 -55.242188 17.34375 -51.171875 C 15.488281 -47.097656 13.015625 -42.585938 9.921875 -37.640625 C 9.878906 -37.585938 9.832031 -37.539062 9.78125 -37.5 C 8.539062 -32.445312 7.3125 -27.300781 6.09375 -22.0625 C 4.882812 -16.832031 3.734375 -11.691406 2.640625 -6.640625 C 1.546875 -1.597656 0.546875 3.144531 -0.359375 7.59375 C -1.265625 12.050781 -2.035156 16.019531 -2.671875 19.5 C -3.316406 22.976562 -3.785156 25.765625 -4.078125 27.859375 C -4.023438 27.859375 -3.972656 27.859375 -3.921875 27.859375 C -3.546875 27.992188 -3.273438 28.226562 -3.109375 28.5625 C -2.941406 28.894531 -2.929688 29.253906 -3.078125 29.640625 C -3.410156 30.546875 -3.753906 31.367188 -4.109375 32.109375 C -4.460938 32.847656 -4.953125 33.21875 -5.578125 33.21875 C -5.710938 33.21875 -5.878906 33.191406 -6.078125 33.140625 C -6.503906 32.992188 -6.8125 32.691406 -7 32.234375 C -7.1875 31.785156 -7.207031 30.882812 -7.0625 29.53125 C -6.925781 28.175781 -6.617188 26.09375 -6.140625 23.28125 C -5.285156 18.132812 -4 11.421875 -2.28125 3.140625 C -1.039062 -2.671875 0.253906 -8.585938 1.609375 -14.609375 C 2.960938 -20.628906 4.304688 -26.4375 5.640625 -32.03125 C 6.972656 -37.625 8.257812 -42.707031 9.5 -47.28125 C 9.738281 -48.1875 10.09375 -49.445312 10.5625 -51.0625 C 11.039062 -52.6875 11.585938 -54.425781 12.203125 -56.28125 C 12.828125 -58.132812 13.519531 -59.914062 14.28125 -61.625 C 15.039062 -63.34375 15.828125 -64.757812 16.640625 -65.875 C 17.453125 -67 18.257812 -67.632812 19.0625 -67.78125 C 19.875 -67.925781 20.519531 -67.640625 21 -66.921875 Z M 12.28125 -47.0625 C 14.570312 -51.351562 16.179688 -54.925781 17.109375 -57.78125 C 18.035156 -60.632812 18.570312 -62.707031 18.71875 -64 C 18.050781 -63.039062 17.144531 -61.238281 16 -58.59375 C 14.851562 -55.957031 13.613281 -52.113281 12.28125 -47.0625 Z M 12.28125 -47.0625 "/></g></g></g><g fill="#000000" fill-opacity="1"><g transform="translate(340.065921, 113.044641)"><g><path d="M 21 -66.921875 C 21.613281 -66.015625 21.625 -64.179688 21.03125 -61.421875 C 20.4375 -58.660156 19.207031 -55.242188 17.34375 -51.171875 C 15.488281 -47.097656 13.015625 -42.585938 9.921875 -37.640625 C 9.878906 -37.585938 9.832031 -37.539062 9.78125 -37.5 C 8.539062 -32.445312 7.3125 -27.300781 6.09375 -22.0625 C 4.882812 -16.832031 3.734375 -11.691406 2.640625 -6.640625 C 1.546875 -1.597656 0.546875 3.144531 -0.359375 7.59375 C -1.265625 12.050781 -2.035156 16.019531 -2.671875 19.5 C -3.316406 22.976562 -3.785156 25.765625 -4.078125 27.859375 C -4.023438 27.859375 -3.972656 27.859375 -3.921875 27.859375 C -3.546875 27.992188 -3.273438 28.226562 -3.109375 28.5625 C -2.941406 28.894531 -2.929688 29.253906 -3.078125 29.640625 C -3.410156 30.546875 -3.753906 31.367188 -4.109375 32.109375 C -4.460938 32.847656 -4.953125 33.21875 -5.578125 33.21875 C -5.710938 33.21875 -5.878906 33.191406 -6.078125 33.140625 C -6.503906 32.992188 -6.8125 32.691406 -7 32.234375 C -7.1875 31.785156 -7.207031 30.882812 -7.0625 29.53125 C -6.925781 28.175781 -6.617188 26.09375 -6.140625 23.28125 C -5.285156 18.132812 -4 11.421875 -2.28125 3.140625 C -1.039062 -2.671875 0.253906 -8.585938 1.609375 -14.609375 C 2.960938 -20.628906 4.304688 -26.4375 5.640625 -32.03125 C 6.972656 -37.625 8.257812 -42.707031 9.5 -47.28125 C 9.738281 -48.1875 10.09375 -49.445312 10.5625 -51.0625 C 11.039062 -52.6875 11.585938 -54.425781 12.203125 -56.28125 C 12.828125 -58.132812 13.519531 -59.914062 14.28125 -61.625 C 15.039062 -63.34375 15.828125 -64.757812 16.640625 -65.875 C 17.453125 -67 18.257812 -67.632812 19.0625 -67.78125 C 19.875 -67.925781 20.519531 -67.640625 21 -66.921875 Z M 12.28125 -47.0625 C 14.570312 -51.351562 16.179688 -54.925781 17.109375 -57.78125 C 18.035156 -60.632812 18.570312 -62.707031 18.71875 -64 C 18.050781 -63.039062 17.144531 -61.238281 16 -58.59375 C 14.851562 -55.957031 13.613281 -52.113281 12.28125 -47.0625 Z M 12.28125 -47.0625 "/></g></g></g></svg>