<svg xmlns="http://www.w3.org/2000/svg" xmlns:xlink="http://www.w3.org/1999/xlink" width="500" zoomAndPan="magnify" viewBox="0 0 375 149.999998" height="200" preserveAspectRatio="xMidYMid meet" version="1.0"><defs><g/></defs><path stroke-linecap="butt" transform="matrix(0.775615, 0, 0, 0.775615, 17.995853, 23.421616)" fill="none" stroke-linejoin="miter" d="M 78.884303 52.952278 C 81.372249 55.999256 83.104745 59.595193 84.081793 63.745127 C 85.078986 67.879951 85.300584 72.286738 84.756661 76.965486 C 84.212737 81.639197 82.89322 86.368309 80.793071 91.13771 C 77.685657 98.334622 73.344343 104.604849 67.764093 109.953429 C 62.198951 115.296972 55.68698 119.562741 48.22818 122.750736 C 40.784488 125.933695 32.670965 127.847499 23.88761 128.487113 C 23.88761 128.487113 23.857392 128.487113 23.796956 128.487113 C 22.643637 128.487113 22.039278 127.907935 21.978842 126.759653 C 21.91337 126.245947 22.054387 125.797714 22.396857 125.409917 C 22.754437 125.032192 23.157343 124.845848 23.610612 124.845848 C 31.940697 124.211271 39.61606 122.393157 46.641737 119.391506 C 53.682522 116.41 59.846986 112.401084 65.130094 107.364757 C 70.413201 102.343538 74.522844 96.461108 77.459023 89.717466 C 79.372827 85.381188 80.576509 81.080165 81.075106 76.824469 C 81.588811 72.548627 81.417576 68.569928 80.5614 64.888373 C 79.705225 61.186673 78.194326 57.96846 76.013597 55.233734 C 72.45795 50.83702 67.56264 48.228203 61.327667 47.402245 C 58.653377 50.197407 55.611435 52.957314 52.191769 55.676931 C 48.787212 58.381438 45.352437 60.844202 41.887444 63.070259 C 38.417414 65.291279 35.17402 67.124502 32.142151 68.569928 C 29.125391 70.000245 26.602191 70.841312 24.562478 71.088092 C 23.167416 77.957642 21.797535 84.837265 20.462908 91.721924 C 19.123245 98.591475 17.894381 105.078264 16.776316 111.187329 C 15.658252 117.311503 14.716459 122.791027 13.955973 127.620865 C 13.195488 132.455739 12.651564 136.343783 12.324203 139.279962 C 12.46522 138.952601 12.596165 138.635312 12.722073 138.32306 C 12.908417 137.809355 13.235778 137.451775 13.69912 137.250322 C 14.182608 137.063978 14.681204 137.074051 15.189873 137.275504 C 15.643143 137.461848 15.960431 137.789209 16.146775 138.252551 C 16.348229 138.736039 16.348229 139.199381 16.146775 139.65265 C 15.13951 142.140596 14.258153 143.978855 13.512776 145.177501 C 12.782509 146.391256 11.976697 146.995615 11.090303 146.995615 C 10.838487 146.995615 10.58667 146.935179 10.319745 146.809271 C 9.886621 146.683363 9.488751 146.350965 9.131172 145.807042 C 8.788701 145.263119 8.602357 144.175272 8.572139 142.543502 C 8.541921 140.926841 8.728265 138.479186 9.131172 135.200537 C 9.549187 131.921888 10.234127 127.515102 11.180957 121.980178 C 12.147932 116.445255 13.422122 109.44476 15.003529 100.973657 C 16.589972 92.507591 18.59443 82.253629 21.02194 70.22688 C 20.709688 69.975064 20.437726 69.58223 20.206055 69.038307 C 19.989493 68.494383 19.969348 67.779225 20.155692 66.892831 C 20.795305 64.59123 21.752208 62.390355 23.026398 60.295243 C 23.60054 57.374173 24.204899 54.367486 24.844512 51.270144 C 25.47909 48.17784 26.118703 44.979772 26.75328 41.665868 C 28.339724 33.909925 29.815367 26.692868 31.185248 20.009662 C 32.555129 13.326455 33.688303 7.529643 34.589806 2.619224 C 31.588155 3.379709 28.78292 4.427265 26.174103 5.766928 C 19.178644 9.136231 14.212826 13.870379 11.276647 19.964335 C 8.355577 26.038145 7.715964 32.892586 9.362843 40.522622 C 9.50386 41.036328 9.428315 41.504706 9.131172 41.922721 C 8.849137 42.325627 8.486522 42.592553 8.033252 42.718461 C 7.524583 42.854442 7.041096 42.783933 6.587826 42.506935 C 6.154702 42.209792 5.907922 41.806886 5.84245 41.29318 C 3.933682 32.761642 4.613586 25.106425 7.897271 18.332565 C 11.17592 11.553668 16.730989 6.255452 24.562478 2.43288 C 27.936817 0.770892 31.532755 -0.473081 35.360364 -1.299039 C 35.4208 -1.611291 35.481236 -1.903398 35.546708 -2.185432 C 35.607144 -2.477539 35.66758 -2.789792 35.733052 -3.117153 C 35.793488 -3.615749 36.025159 -4.003546 36.428065 -4.280544 C 36.851116 -4.577688 37.314459 -4.663305 37.828164 -4.537397 C 38.341869 -4.476961 38.739739 -4.235218 39.016737 -3.817202 C 39.31388 -3.414296 39.389425 -2.95599 39.253445 -2.442285 C 39.253445 -2.376813 39.253445 -2.316377 39.253445 -2.255941 C 39.253445 -2.190469 39.253445 -2.130033 39.253445 -2.069597 C 43.52425 -2.628629 47.729583 -2.663883 51.864408 -2.185432 C 55.999232 -1.717054 59.751296 -0.714825 63.125635 0.821255 C 66.510047 2.347262 69.254846 4.371866 71.354994 6.905138 C 73.762358 9.780881 75.137276 12.842968 75.479746 16.091399 C 75.837325 19.33983 75.540182 22.558043 74.593352 25.746038 C 73.646523 28.913888 72.357223 31.905466 70.725453 34.720773 C 69.108792 37.515935 67.532422 39.933372 65.991306 41.968048 C 65.492709 42.73357 64.893386 43.494055 64.198373 44.254541 C 70.367874 45.528731 75.263184 48.429656 78.884303 52.952278 Z M 25.307855 67.26552 C 26.788535 66.81225 28.697303 66.021547 31.044231 64.888373 C 33.406269 63.735054 36.05034 62.274519 38.97141 60.501732 C 41.907589 58.718872 44.884058 56.714414 47.900818 54.488357 C 50.932687 52.252228 53.783249 49.824719 56.457538 47.215901 C 53.969593 47.215901 51.360775 47.502972 48.621013 48.077113 C 45.95176 48.590818 43.206961 49.436921 40.391655 50.620458 C 37.596493 51.78385 34.982639 53.279639 32.560166 55.097753 C 30.152801 56.915867 28.123161 59.091561 26.476282 61.624833 C 26.274829 62.586772 26.078413 63.533601 25.892069 64.465322 C 25.705724 65.381933 25.514344 66.31869 25.307855 67.26552 Z M 59.882241 43.579673 C 61.095996 42.305482 62.17377 41.031291 63.125635 39.7571 C 67.769129 33.461691 70.569327 27.705169 71.516157 22.482498 C 72.478095 17.259827 71.501048 12.86815 68.579978 9.307466 C 66.666173 7.010901 64.132901 5.187751 60.98016 3.853124 C 57.837492 2.518497 54.312063 1.677431 50.3938 1.33496 C 46.480574 0.977381 42.516985 1.148616 38.503032 1.848666 C 37.601529 6.759085 36.438138 12.706987 35.007821 19.6823 C 33.577504 26.647541 32.041424 34.196995 30.394545 42.345773 C 30.001712 44.254541 29.598805 46.198563 29.18079 48.172803 C 28.777884 50.147043 28.380014 52.151502 27.992217 54.186178 C 30.480163 51.82414 33.421378 49.819682 36.825935 48.172803 C 40.230492 46.510815 43.937229 45.266842 47.946145 44.440885 C 52.156515 43.619963 56.14025 43.327856 59.882241 43.579673 Z M 135.41204 70.317534 C 135.860273 70.584459 136.182598 70.957147 136.368942 71.435598 C 136.555286 71.903977 136.525068 72.362283 136.273252 72.815552 C 135.059497 75.42437 133.578816 78.355512 131.821138 81.603943 C 130.078569 84.837265 128.225201 88.090732 126.25096 91.369381 C 124.27672 94.64803 122.272262 97.639609 120.232549 100.344117 C 118.197873 103.048624 116.223633 105.249499 114.314865 106.941705 C 112.401061 108.638947 110.683673 109.48505 109.162702 109.48505 C 108.709433 109.48505 108.291418 109.384324 107.90362 109.182871 C 106.563957 108.684274 105.687637 107.480592 105.269621 105.566788 C 104.861679 103.65802 104.917078 100.913222 105.430784 97.337429 C 106.317177 90.921148 108.669142 81.820505 112.496751 70.040536 C 112.431279 70.040536 112.385952 70.055645 112.355734 70.085863 C 112.325516 70.116081 112.275152 70.13119 112.214717 70.13119 C 110.940526 71.017583 109.409482 71.944268 107.621586 72.906206 C 105.848799 73.853036 104.01054 74.492649 102.096735 74.82001 C 100.187967 75.127226 98.364817 74.709211 96.642393 73.560929 C 94.235028 71.848577 92.996092 69.471431 92.935656 66.424453 C 92.855075 63.362366 93.998321 60.013208 96.360359 56.37698 C 97.12588 55.228698 98.128109 53.954507 99.372082 52.554408 C 100.611019 51.154309 101.920464 50.076535 103.285308 49.316049 C 104.655189 48.550528 105.884053 48.52031 106.9719 49.220359 C 107.530932 49.532612 107.948947 50.076535 108.230982 50.852129 C 108.523089 51.612615 108.50798 52.796152 108.180618 54.397704 C 107.873403 55.97911 107.107881 58.109477 105.899162 60.783766 C 104.700516 63.458056 102.887439 66.923049 100.464965 71.183782 C 101.9255 71.370126 103.567343 70.957147 105.385457 69.944846 C 107.203571 68.922471 108.810159 67.965569 110.210258 67.079175 C 111.544885 66.192782 112.657913 65.538059 113.544307 65.120044 C 114.44581 64.702029 115.276803 64.777574 116.037289 65.351715 C 116.737338 65.925857 117.019373 66.635979 116.878356 67.477045 C 116.752447 68.297967 116.626539 68.927508 116.505667 69.360632 C 114.405519 75.983402 112.783822 81.493144 111.630503 85.889858 C 110.497329 90.276498 109.721735 93.801928 109.298683 96.476217 C 108.880668 99.165616 108.669142 101.175111 108.669142 102.514774 C 108.669142 103.8494 108.764832 104.720685 108.951177 105.123591 C 109.15263 105.546643 109.253356 105.78335 109.253356 105.848822 C 110.013842 105.97473 111.585176 104.745867 113.962322 102.162231 C 116.354578 99.583631 119.210175 95.705659 122.519042 90.533351 C 125.827909 85.340898 129.302975 78.919581 132.939203 71.274436 C 133.191019 70.760731 133.548599 70.428333 134.011941 70.272207 C 134.495428 70.116081 134.95877 70.13119 135.41204 70.317534 Z M 96.919391 63.835781 C 96.546703 65.175444 96.44094 66.268327 96.597066 67.124502 C 96.753192 67.980678 96.989899 68.665619 97.317261 69.174288 C 99.351937 65.618641 100.893053 62.727789 101.935573 60.501732 C 102.993201 58.265603 103.703324 56.543179 104.081048 55.329424 C 104.468845 54.115669 104.690444 53.259494 104.755916 52.765934 C 104.055867 53.138622 103.179546 53.868889 102.121917 54.956736 C 101.079397 56.029474 100.062059 57.333882 99.064866 58.869962 C 98.087819 60.395969 97.37266 62.052921 96.919391 63.835781 Z M 163.857216 70.715404 C 164.310485 70.962184 164.567338 71.344945 164.627774 71.85865 C 164.68821 72.372355 164.597556 72.815552 164.345739 73.18824 C 160.588639 78.410912 157.143791 82.722008 154.021269 86.126565 C 150.913855 89.531122 147.796368 92.351465 144.673845 94.587595 C 142.326917 96.234474 140.000134 97.060431 137.698532 97.060431 C 135.915672 97.060431 134.349375 96.587016 133.014748 95.635151 C 132.128354 95.000573 131.25707 93.8674 130.40593 92.23563 C 129.549755 90.618969 129.091449 88.261968 129.031013 85.169663 C 128.950432 82.077358 129.710917 78.018078 131.312469 73.001896 C 131.312469 73.001896 131.312469 72.966642 131.312469 72.906206 C 133.226274 66.797141 135.462403 62.138538 138.025893 58.920325 C 140.609529 55.702112 142.820477 54.06027 144.673845 53.999834 C 146.13438 53.939398 147.086246 54.573975 147.539515 55.913638 C 148.239565 57.746861 147.408571 60.370788 145.046534 63.790454 C 142.699605 67.195011 139.229576 70.806058 134.646518 74.633666 C 133.246419 79.075707 132.581624 82.555809 132.64206 85.073973 C 132.702496 87.592136 133.055038 89.41025 133.689616 90.533351 C 134.329229 91.636307 134.842935 92.351465 135.230732 92.67379 C 137.1395 94.073889 139.587155 93.696165 142.573697 91.53558 C 145.494767 89.480759 148.446054 86.826614 151.432596 83.563074 C 154.434247 80.279389 157.717933 76.124419 161.293725 71.088092 C 161.605977 70.700295 162.01392 70.458551 162.527625 70.367897 C 163.041331 70.272207 163.484527 70.388042 163.857216 70.715404 Z M 143.993941 58.00875 C 143.293892 58.446911 142.342026 59.383668 141.128271 60.829093 C 139.929625 62.25941 138.695725 64.34445 137.421534 67.079175 C 139.708027 64.858155 141.324688 62.969532 142.271517 61.413307 C 143.233456 59.841973 143.807597 58.7088 143.993941 58.00875 Z M 239.971228 35.652494 C 240.283481 36.040291 240.409389 36.49356 240.343917 37.002229 C 240.283481 37.500826 240.031664 37.913805 239.59854 38.241166 C 238.822946 38.754871 238.082606 38.719617 237.382556 38.145476 C 236.561635 37.818114 234.66294 37.596516 231.696543 37.470608 C 228.745255 37.3447 225.033482 37.269155 220.576332 37.238937 C 216.129255 37.208719 211.233945 37.223828 205.890402 37.284264 C 200.541823 37.3447 195.04719 37.425281 189.406503 37.515935 C 183.780926 37.611625 178.326584 37.727461 173.03844 37.868478 C 171.0642 46.133091 168.989233 55.127971 166.81354 64.83801 C 164.652955 74.537976 162.527625 84.383996 160.427477 94.376069 C 157.692751 107.495701 155.577494 118.258332 154.086741 126.663962 C 152.580879 135.074629 151.608868 141.153476 151.170707 144.895467 C 151.296616 144.895467 151.422524 144.930721 151.543396 144.991157 C 152.057101 145.117065 152.409644 145.419245 152.595988 145.897696 C 152.782332 146.381183 152.782332 146.849562 152.595988 147.297795 C 152.2233 148.370533 151.795212 149.367725 151.311725 150.284337 C 150.828237 151.216057 150.178551 151.6794 149.352593 151.6794 C 149.166249 151.6794 148.944651 151.649182 148.677725 151.588746 C 147.791332 151.261384 147.302808 150.571408 147.207118 149.513779 C 147.116464 148.471259 147.192009 147.025833 147.443825 145.177501 C 147.690605 142.503211 148.264747 138.655457 149.166249 133.639276 C 149.931771 128.925273 150.913855 123.420568 152.12761 117.11005 C 153.341364 110.814641 154.741463 103.9048 156.32287 96.380527 C 158.423019 86.20211 160.583603 76.084128 162.804623 66.031619 C 165.045789 55.974074 167.181192 46.616578 169.215868 37.959132 C 166.153781 38.024604 163.257893 38.08504 160.523167 38.145476 C 157.783405 38.210948 155.305532 38.271384 153.084512 38.33182 C 148.80867 38.457728 145.086824 38.553418 141.918974 38.613854 C 138.730979 38.67429 136.469668 38.704508 135.135042 38.704508 C 134.621336 38.704508 134.193248 38.533273 133.850778 38.195839 C 133.493199 37.83826 133.316927 37.410172 133.316927 36.911576 C 133.316927 36.39787 133.493199 35.969782 133.850778 35.627312 C 134.193248 35.269733 134.621336 35.093461 135.135042 35.093461 C 136.469668 35.093461 138.71587 35.048135 141.868611 34.952444 C 145.011279 34.86179 148.718016 34.740919 152.988821 34.604938 C 156.035799 34.539465 158.992123 34.47903 161.847721 34.418594 C 164.723464 34.353121 167.49848 34.292685 170.17277 34.23225 C 171.119599 30.157861 172.05132 26.325216 172.967931 22.739351 C 173.904688 19.133341 174.781009 15.82951 175.606967 12.827859 C 175.742948 12.329263 176.030018 11.956574 176.468179 11.709794 C 176.916412 11.447905 177.369681 11.377397 177.817915 11.498269 C 178.316511 11.624177 178.689199 11.911247 178.935979 12.364517 C 179.202905 12.81275 179.273413 13.286165 179.147505 13.784761 C 177.626534 19.455666 175.878929 26.239598 173.904688 34.136559 C 183.836326 33.950215 192.327573 33.809198 199.383468 33.718544 C 206.454471 33.607745 212.377192 33.552345 217.146594 33.552345 C 221.921032 33.552345 225.783895 33.622854 228.735182 33.763871 C 231.701579 33.889779 233.947781 34.030796 235.473788 34.181886 C 237.009868 34.338012 238.097715 34.549538 238.737328 34.811427 C 239.371905 35.063244 239.784884 35.340242 239.971228 35.652494 Z M 252.672846 35.652494 C 252.980061 36.040291 253.10597 36.49356 253.045534 37.002229 C 252.980061 37.500826 252.733281 37.913805 252.300157 38.241166 C 251.519527 38.754871 250.784223 38.719617 250.084173 38.145476 C 249.258216 37.818114 247.364557 37.596516 244.393124 37.470608 C 241.441836 37.3447 237.735099 37.269155 233.272913 37.238937 C 228.830873 37.208719 223.935563 37.223828 218.586983 37.284264 C 213.24344 37.3447 207.748807 37.425281 202.103084 37.515935 C 196.477507 37.611625 191.023164 37.727461 185.740057 37.868478 C 183.765817 46.133091 181.69085 55.127971 179.515157 64.83801 C 177.354572 74.537976 175.224206 84.383996 173.129094 94.376069 C 170.394368 107.495701 168.279111 118.258332 166.788358 126.663962 C 165.27746 135.074629 164.305449 141.153476 163.872325 144.895467 C 163.998233 144.895467 164.119105 144.930721 164.245013 144.991157 C 164.758718 145.117065 165.106225 145.419245 165.292569 145.897696 C 165.478913 146.381183 165.478913 146.849562 165.292569 147.297795 C 164.919881 148.370533 164.491793 149.367725 164.013342 150.284337 C 163.529854 151.216057 162.875132 151.6794 162.05421 151.6794 C 161.867866 151.6794 161.641232 151.649182 161.379343 151.588746 C 160.492949 151.261384 160.004425 150.571408 159.908735 149.513779 C 159.818081 148.471259 159.893626 147.025833 160.140406 145.177501 C 160.392222 142.503211 160.966364 138.655457 161.867866 133.639276 C 162.628352 128.925273 163.615472 123.420568 164.829227 117.11005 C 166.037945 110.814641 167.438044 103.9048 169.024487 96.380527 C 171.124636 86.20211 173.28522 76.084128 175.50624 66.031619 C 177.74237 55.974074 179.882809 46.616578 181.917485 37.959132 C 178.855398 38.024604 175.954473 38.08504 173.219748 38.145476 C 170.485022 38.210948 168.007149 38.271384 165.786129 38.33182 C 161.510287 38.457728 157.788441 38.553418 154.615555 38.613854 C 151.432596 38.67429 149.171285 38.704508 147.831622 38.704508 C 147.317917 38.704508 146.894866 38.533273 146.552395 38.195839 C 146.194816 37.83826 146.013508 37.410172 146.013508 36.911576 C 146.013508 36.39787 146.194816 35.969782 146.552395 35.627312 C 146.894866 35.269733 147.317917 35.093461 147.831622 35.093461 C 149.171285 35.093461 151.417487 35.048135 154.570228 34.952444 C 157.70786 34.86179 161.414597 34.740919 165.690439 34.604938 C 168.737417 34.539465 171.688704 34.47903 174.549338 34.418594 C 177.425081 34.353121 180.200097 34.292685 182.874387 34.23225 C 183.821217 30.157861 184.752937 26.325216 185.669549 22.739351 C 186.601269 19.133341 187.482626 15.82951 188.303548 12.827859 C 188.444565 12.329263 188.731636 11.956574 189.16476 11.709794 C 189.618029 11.447905 190.066262 11.377397 190.519532 11.498269 C 191.018128 11.624177 191.390816 11.911247 191.637596 12.364517 C 191.904522 12.81275 191.969994 13.286165 191.849122 13.784761 C 190.323115 19.455666 188.575509 26.239598 186.601269 34.136559 C 196.532906 33.950215 205.02919 33.809198 212.085085 33.718544 C 219.156088 33.607745 225.078809 33.552345 229.848211 33.552345 C 234.617613 33.552345 238.480476 33.622854 241.4368 33.763871 C 244.403196 33.889779 246.649398 34.030796 248.170369 34.181886 C 249.711485 34.338012 250.799332 34.549538 251.433909 34.811427 C 252.073523 35.063244 252.486501 35.340242 252.672846 35.652494 Z M 299.465361 53.904144 C 299.586233 54.40274 299.53587 54.876155 299.299163 55.329424 C 299.082601 55.777657 298.755239 56.099982 298.322115 56.286326 C 295.385936 57.17272 291.895762 58.235385 287.851591 59.479358 C 283.812457 60.723331 279.375452 62.073066 274.540578 63.533601 C 273.906001 67.048957 273.251278 70.518987 272.581447 73.953762 C 271.916652 77.388537 271.292147 80.732658 270.718006 83.98109 C 269.197035 91.938486 267.857372 98.908763 266.709089 104.89192 C 265.560807 110.875077 264.694559 115.206318 264.120417 117.875571 C 263.934073 118.827437 263.329714 119.300852 262.302303 119.300852 C 262.176395 119.300852 262.055523 119.300852 261.929615 119.300852 C 261.476345 119.174944 261.11373 118.902982 260.831696 118.484967 C 260.554698 118.077025 260.474116 117.618719 260.600025 117.11005 C 260.912277 115.337263 261.400801 112.773772 262.070632 109.414542 C 262.735427 106.075457 263.500949 102.157194 264.352088 97.66479 C 265.223373 93.187496 266.134948 88.402985 267.081778 83.306222 C 267.655919 80.380116 268.23006 77.358319 268.809238 74.235796 C 269.383379 71.113274 269.987738 67.935351 270.627352 64.702029 C 270.56188 64.762465 270.516553 64.792683 270.486335 64.792683 C 270.456117 64.792683 270.405754 64.792683 270.345318 64.792683 C 264.286616 66.625906 257.835081 68.585037 250.995749 70.670077 C 244.156416 72.734971 237.397665 74.82001 230.714459 76.915122 C 228.412857 87.859061 226.504089 97.246775 224.978082 105.078264 C 223.457112 112.909753 222.19803 119.456978 221.200837 124.709867 C 220.223789 129.962757 219.463304 134.173126 218.919381 137.346012 C 218.375457 140.528971 217.977588 142.956481 217.725771 144.618469 C 218.798509 145.066702 219.151052 145.827187 218.778364 146.899925 C 218.451002 147.927336 218.078314 148.838911 217.660299 149.629614 C 217.252356 150.420318 216.673179 150.818188 215.907657 150.818188 C 215.721313 150.818188 215.499715 150.78797 215.232789 150.727534 C 214.28596 150.475717 213.797436 149.810922 213.767218 148.718039 C 213.731964 147.630193 213.872981 146.038713 214.185233 143.943601 C 214.57303 141.017495 215.242862 136.852452 216.189691 131.443437 C 217.917152 122.090977 220.465533 109.031781 223.834836 92.280957 C 224.272997 89.994464 224.731302 87.662645 225.209753 85.285498 C 225.693241 82.893243 226.191837 80.516096 226.705543 78.154059 C 224.091689 78.97498 221.543307 79.790865 219.055362 80.601714 C 216.572452 81.392417 214.155015 82.203266 211.808087 83.024187 C 204.485267 85.446661 198.668309 87.476301 194.34714 89.108071 C 190.010863 90.724732 186.762432 92.024104 184.601847 93.001152 C 182.426154 93.983235 180.925328 94.75883 180.099371 95.332971 C 180.738984 95.78624 180.995837 96.3906 180.869929 97.151085 C 180.668476 98.178496 180.064116 98.692201 179.051815 98.692201 C 178.925907 98.692201 178.794962 98.661983 178.653945 98.596511 C 177.379754 98.334622 176.543724 97.931716 176.135781 97.387792 C 175.717766 96.858978 175.476022 96.3352 175.415586 95.821495 C 175.415586 95.186918 175.65733 94.547304 176.135781 93.912727 C 176.619269 93.273113 177.59128 92.527737 179.051815 91.671561 C 180.51235 90.805313 182.672934 89.767829 185.533568 88.57422 C 190.877111 86.333054 198.547437 83.52782 208.544547 80.158517 C 211.541161 79.206651 214.613321 78.229604 217.750953 77.217302 C 220.90873 76.194928 224.137016 75.137299 227.450919 74.049452 C 228.659637 68.187167 229.843174 62.491081 230.991457 56.961194 C 232.144776 51.411162 233.22255 46.238854 234.234852 41.434197 C 235.257226 36.629541 236.153692 32.404063 236.914178 28.752726 C 237.674663 25.086279 238.284059 22.200464 238.732292 20.100315 L 239.20067 18.191547 C 239.774812 15.456822 240.046773 13.437255 240.016555 12.127809 C 239.986337 10.823401 239.865465 9.962189 239.664012 9.544174 C 239.477668 9.121122 239.387014 8.914633 239.387014 8.914633 C 239.261106 8.84916 238.833018 8.934778 238.102751 9.166449 C 237.372484 9.388048 236.244346 10.163642 234.723375 11.498269 C 232.487246 13.412073 230.140318 15.990672 227.68259 19.239103 C 225.245008 22.487535 223.069314 25.861874 221.15551 29.357085 C 219.120834 33.179657 217.705626 36.609396 216.909886 39.641265 C 216.119183 42.652989 216.043638 44.95459 216.678215 46.541033 C 216.804123 46.868394 217.201993 47.361955 217.866788 48.031786 C 218.53662 48.701618 219.951828 48.973579 222.112412 48.847671 C 222.626118 48.787235 223.069314 48.933289 223.442003 49.290868 C 223.8298 49.633338 224.051398 50.051353 224.11687 50.54995 C 224.11687 51.063655 223.950672 51.511888 223.628347 51.899685 C 223.316094 52.272374 222.903116 52.458718 222.38941 52.458718 C 219.46834 52.665207 217.337974 52.237119 216.003347 51.179491 C 214.668721 50.121862 213.742036 49.023942 213.228331 47.890769 C 212.467846 45.982001 212.341937 43.655218 212.855643 40.920492 C 213.369348 38.185766 214.311141 35.269733 215.675986 32.177428 C 217.045867 29.085123 218.677637 26.048218 220.571296 23.061676 C 222.4851 20.065061 224.47445 17.315227 226.539344 14.812172 C 228.624383 12.294008 230.518042 10.264368 232.230393 8.728289 C 236.052966 5.414385 239.044544 4.427265 241.205129 5.766928 C 243.813946 7.303008 244.327651 11.664467 242.741208 18.84627 L 242.348375 20.850728 C 240.18779 31.044254 238.21355 40.45715 236.425654 49.079342 C 234.652867 57.706571 232.995915 65.618641 231.459835 72.815552 C 237.896262 70.841312 244.357869 68.867072 250.854731 66.892831 C 257.351593 64.918591 263.490876 63.035005 269.27258 61.252145 C 269.599941 61.186673 269.932339 61.096019 270.274809 60.970111 C 270.632388 60.844202 271.005077 60.753549 271.392874 60.693113 C 272.59152 54.196251 273.810311 47.744715 275.054284 41.338507 C 276.298256 34.937335 277.496902 28.878634 278.645185 23.157366 C 279.793467 17.420989 280.861169 12.329263 281.838216 7.887222 C 282.835409 3.425036 283.651294 -0.110466 284.285871 -2.719283 C 284.411779 -3.232988 284.688777 -3.615749 285.126938 -3.862529 C 285.575171 -4.129455 286.028441 -4.194927 286.476674 -4.074055 C 286.990379 -3.933038 287.37314 -3.635895 287.61992 -3.187661 C 287.8667 -2.749501 287.932172 -2.306304 287.806264 -1.858071 C 287.171687 0.675201 286.38602 4.094868 285.454299 8.400927 C 284.537688 12.686842 283.515313 17.592224 282.397249 23.112039 C 281.294293 28.611708 280.135938 34.468957 278.927219 40.688821 C 277.713464 46.88854 276.509782 53.138622 275.311136 59.434031 C 279.758213 58.094368 283.837638 56.875577 287.549411 55.772621 C 291.28133 54.654556 294.48947 53.652327 297.178869 52.765934 C 297.611993 52.624916 298.070299 52.670243 298.553786 52.901914 C 299.037274 53.123513 299.339453 53.45591 299.465361 53.904144 Z M 329.920032 71.183782 C 330.358192 71.506107 330.604972 71.929159 330.665408 72.442864 C 330.74599 72.936424 330.620081 73.379621 330.29272 73.767418 C 328.645841 75.867566 326.721964 77.746116 324.511017 79.413141 C 322.320214 81.06002 320.028685 82.278811 317.63643 83.069514 C 315.259284 83.865254 312.947609 84.001235 310.71148 83.492566 C 309.825086 85.728695 308.566005 87.456155 306.934235 88.664874 C 305.317574 89.86352 303.685804 90.462843 302.038925 90.462843 C 302.038925 90.462843 302.023816 90.462843 301.993598 90.462843 C 301.96338 90.462843 301.948271 90.462843 301.948271 90.462843 C 300.220811 90.39737 298.704876 89.818193 297.400467 88.715237 C 296.096059 87.592136 295.184483 86.045984 294.670778 84.071743 C 294.096637 81.850723 294.005983 79.735466 294.39378 77.731007 C 294.781577 75.726549 295.481627 73.963835 296.488892 72.442864 C 297.516303 70.901748 298.664585 69.718211 299.938776 68.89729 C 300.376937 68.569928 300.880569 68.509492 301.454711 68.710945 C 302.033888 67.295738 302.839701 66.207891 303.88222 65.447405 C 304.939849 64.68692 306.042805 64.399849 307.191087 64.586194 C 307.891137 64.722174 308.651622 65.160335 309.47758 65.890602 C 310.298501 66.62087 310.968333 67.925278 311.482038 69.803828 C 311.995743 71.687415 312.156906 74.437249 311.970562 78.058369 C 311.910126 78.697982 311.809399 79.33256 311.668382 79.972173 C 313.390806 80.279389 315.20892 80.088009 317.122725 79.387959 C 319.036529 78.68791 320.874788 77.625245 322.647576 76.194928 C 324.435472 74.764611 325.996733 73.18824 327.33136 71.46078 C 327.658721 71.088092 328.0717 70.87153 328.570296 70.806058 C 329.084002 70.745622 329.532235 70.87153 329.920032 71.183782 Z M 302.038925 86.756106 C 302.864882 86.756106 303.781494 86.373345 304.788759 85.61286 C 305.81617 84.837265 306.647164 83.683946 307.286778 82.162975 C 305.000285 80.888785 303.358442 79.42825 302.366286 77.781371 C 301.384202 76.114346 300.860424 74.462431 300.779843 72.815552 C 299.445216 74.089743 298.563859 75.71144 298.145844 77.685681 C 297.742938 79.659921 297.763083 81.437744 298.216352 83.024187 C 298.402696 83.724237 298.785457 84.525013 299.359599 85.426515 C 299.93374 86.312909 300.82517 86.756106 302.038925 86.756106 Z M 308.238643 77.872025 C 308.364552 75.323643 308.309152 73.349403 308.077481 71.949304 C 307.860919 70.554241 307.593994 69.597339 307.286778 69.083634 C 306.974525 68.569928 306.747891 68.282858 306.606873 68.222422 C 306.546437 68.222422 306.51622 68.222422 306.51622 68.222422 C 306.329875 68.222422 306.042805 68.413802 305.655008 68.801599 C 305.277283 69.174288 304.959994 69.743393 304.698105 70.503878 C 304.325417 71.717633 304.355635 73.047223 304.788759 74.492649 C 305.242029 75.922966 306.390311 77.237447 308.238643 78.431057 C 308.238643 78.244713 308.238643 78.058369 308.238643 77.872025 Z M 384.44331 70.503878 C 384.755562 70.831239 384.921761 71.249254 384.957015 71.76296 C 384.987233 72.261556 384.815998 72.704753 384.44331 73.09255 C 381.441659 76.154637 378.394681 78.29004 375.302376 79.503795 C 372.22518 80.702441 369.379655 80.919003 366.770838 80.158517 C 365.622555 79.785829 364.408801 79.156288 363.13461 78.269894 C 361.875528 77.368392 360.7625 75.95822 359.800561 74.049452 C 358.853732 77.610136 357.770921 81.009656 356.562203 84.258088 C 355.22254 87.773444 354.02893 90.367152 352.971302 92.044249 C 351.928782 93.741492 350.986989 94.849484 350.150958 95.378298 C 349.325001 95.922221 348.594733 96.194183 347.95512 96.194183 C 346.806837 96.194183 345.915407 95.771131 345.275794 94.914956 C 344.656325 94.05878 344.182911 93.116987 343.855549 92.094613 C 343.543297 91.082311 343.316662 90.291607 343.180681 89.717466 C 342.989301 88.62962 342.838211 87.355429 342.712303 85.889858 C 340.551719 89.264197 338.819222 91.792433 337.514813 93.46953 C 336.205368 95.161736 335.041977 96.48629 334.014566 97.433119 C 333.193645 98.26915 332.433159 98.833218 331.73311 99.110216 C 331.03306 99.40736 330.393447 99.553413 329.819305 99.553413 C 329.371072 99.553413 328.948021 99.482905 328.560224 99.341887 C 328.187535 99.221016 327.910537 99.064889 327.724193 98.878545 C 326.122641 97.851135 325.165739 95.65026 324.853487 92.280957 C 324.526126 88.906617 324.813196 84.771793 325.714699 79.876483 C 326.601092 74.966064 328.061627 69.652739 330.10134 63.931471 C 330.302793 63.478202 330.620081 63.145804 331.053206 62.929242 C 331.506475 62.697571 331.989962 62.682462 332.498631 62.883915 C 332.936792 63.004787 333.264153 63.306966 333.480715 63.790454 C 333.712386 64.258832 333.737568 64.717138 333.551224 65.165371 C 331.249622 71.541361 329.763906 76.940304 329.099111 81.367236 C 328.429279 85.784095 328.217753 89.203761 328.46957 91.626234 C 328.731459 94.033599 329.149474 95.433698 329.728652 95.821495 C 329.975432 96.007839 330.579791 95.660332 331.546766 94.773939 C 332.307251 94.073889 333.148318 93.132096 334.064929 91.953595 C 334.99665 90.770059 336.144932 89.16347 337.514813 87.128794 C 338.879658 85.089081 340.612155 82.419828 342.712303 79.105925 C 343.160536 78.345439 343.830368 78.088587 344.716761 78.340403 C 345.603155 78.602292 346.046352 79.206651 346.046352 80.158517 C 346.046352 81.3068 346.106788 82.711935 346.232696 84.378959 C 346.373713 86.025838 346.565093 87.577027 346.81691 89.037562 C 347.06369 90.125409 347.280252 90.926185 347.466596 91.43989 C 347.668049 91.938486 347.834248 92.280957 347.95512 92.467301 C 348.594733 92.094613 349.370328 91.021875 350.286939 89.249088 C 351.223696 87.461192 352.175562 85.295571 353.157646 82.747189 C 354.149802 80.193771 355.046268 77.524518 355.836972 74.72432 C 356.627675 71.91405 357.191744 69.300196 357.514069 66.892831 C 357.700413 65.865421 358.309808 65.351715 359.332183 65.351715 C 360.344485 65.291279 360.943807 65.774767 361.130152 66.797141 C 362.217998 72.332065 364.449091 75.610714 367.818394 76.638124 C 369.732198 77.197157 371.933073 76.940304 374.415983 75.867566 C 376.903928 74.77972 379.381801 72.991824 381.854638 70.503878 C 382.181999 70.13119 382.594978 69.944846 383.088538 69.944846 C 383.602243 69.944846 384.055513 70.13119 384.44331 70.503878 Z M 412.500689 70.715404 C 412.948922 70.962184 413.205775 71.344945 413.266211 71.85865 C 413.331683 72.372355 413.235993 72.815552 412.989213 73.18824 C 409.227076 78.410912 405.787265 82.722008 402.659706 86.126565 C 399.552292 89.531122 396.434805 92.351465 393.312282 94.587595 C 390.965354 96.234474 388.643607 97.060431 386.342005 97.060431 C 384.554109 97.060431 382.992848 96.587016 381.658221 95.635151 C 380.771828 95.000573 379.900543 93.8674 379.044367 92.23563 C 378.188192 90.618969 377.729886 88.261968 377.66945 85.169663 C 377.593905 82.077358 378.354391 78.018078 379.955943 73.001896 C 379.955943 73.001896 379.955943 72.966642 379.955943 72.906206 C 381.864711 66.797141 384.105876 62.138538 386.669367 58.920325 C 389.247966 55.702112 391.46395 54.06027 393.312282 53.999834 C 394.772817 53.939398 395.729719 54.573975 396.177952 55.913638 C 396.878002 57.746861 396.047008 60.370788 393.684971 63.790454 C 391.338042 67.195011 387.873049 70.806058 383.289991 74.633666 C 381.889892 79.075707 381.220061 82.555809 381.280497 85.073973 C 381.345969 87.592136 381.693475 89.41025 382.333089 90.533351 C 382.967666 91.636307 383.481372 92.351465 383.869169 92.67379 C 385.782973 94.073889 388.230628 93.696165 391.212134 91.53558 C 394.13824 89.480759 397.089528 86.826614 400.071033 83.563074 C 403.072684 80.279389 406.361406 76.124419 409.932162 71.088092 C 410.244414 70.700295 410.657393 70.458551 411.171099 70.367897 C 411.684804 70.272207 412.128001 70.388042 412.500689 70.715404 Z M 392.637414 58.00875 C 391.937365 58.446911 390.980463 59.383668 389.766708 60.829093 C 388.573098 62.25941 387.334162 64.34445 386.059971 67.079175 C 388.346464 64.858155 389.963125 62.969532 390.909954 61.413307 C 391.876929 59.841973 392.45107 58.7088 392.637414 58.00875 Z M 436.090845 2.523534 C 436.911767 3.737288 436.926876 6.195016 436.136172 9.89168 C 435.340433 13.573235 433.703626 18.136148 431.215681 23.575381 C 428.742844 29.014615 425.433977 35.048135 421.284044 41.665868 C 421.223608 41.74645 421.158135 41.816958 421.097699 41.877394 C 419.45082 48.621036 417.808978 55.500659 416.177208 62.511227 C 414.560547 69.501649 413.014394 76.371199 411.53875 83.119878 C 410.078216 89.86352 408.748625 96.214328 407.555016 102.162231 C 406.341261 108.115169 405.308814 113.418422 404.452638 118.061916 C 403.581353 122.710446 402.961885 126.432291 402.589197 129.232489 C 402.649633 129.232489 402.710069 129.232489 402.775541 129.232489 C 403.274137 129.433942 403.636753 129.751231 403.868424 130.184355 C 404.090022 130.637625 404.105131 131.121112 403.918787 131.629781 C 403.465518 132.843536 403.007212 133.941455 402.538834 134.918503 C 402.060383 135.915695 401.40566 136.409256 400.584739 136.409256 C 400.383286 136.409256 400.156651 136.379038 399.904835 136.318602 C 399.330693 136.117149 398.917714 135.714242 398.670934 135.104847 C 398.409045 134.500488 398.373791 133.286733 398.580281 131.468619 C 398.766625 129.665613 399.174567 126.885561 399.814181 123.123424 C 400.947354 116.253874 402.664742 107.279139 404.966343 96.194183 C 406.613222 88.443275 408.345719 80.536242 410.163833 72.488191 C 411.981947 64.419995 413.779916 56.648942 415.547667 49.175032 C 417.335563 41.696086 419.063023 34.897045 420.725011 28.772871 C 421.037263 27.579261 421.510678 25.902164 422.145255 23.74158 C 422.784869 21.565887 423.515136 19.239103 424.341094 16.771303 C 425.177124 14.283358 426.103809 11.896138 427.111074 9.609646 C 428.138485 7.313081 429.186041 5.414385 430.258779 3.923633 C 431.346625 2.417771 432.434472 1.566631 433.522319 1.380287 C 434.595056 1.193943 435.451232 1.576704 436.090845 2.523534 Z M 424.45693 29.080087 C 427.503908 23.34371 429.644347 18.574308 430.888319 14.761809 C 432.132292 10.939236 432.847451 8.16422 433.033795 6.441796 C 432.147401 7.715987 430.938683 10.123351 429.397567 13.668926 C 427.876596 17.194355 426.229717 22.331408 424.45693 29.080087 Z M 450.600504 2.523534 C 451.426462 3.737288 451.441571 6.195016 450.650867 9.89168 C 449.855128 13.573235 448.218321 18.136148 445.730376 23.575381 C 443.257539 29.014615 439.948672 35.048135 435.798738 41.665868 C 435.738303 41.74645 435.67283 41.816958 435.612394 41.877394 C 433.965515 48.621036 432.323673 55.500659 430.691903 62.511227 C 429.075242 69.501649 427.529089 76.371199 426.053445 83.119878 C 424.59291 89.86352 423.26332 96.214328 422.064674 102.162231 C 420.855956 108.115169 419.823509 113.418422 418.967333 118.061916 C 418.096048 122.710446 417.47658 126.432291 417.103892 129.232489 C 417.164328 129.232489 417.224764 129.232489 417.290236 129.232489 C 417.783796 129.433942 418.151448 129.751231 418.383119 130.184355 C 418.599681 130.637625 418.61479 131.121112 418.428446 131.629781 C 417.980213 132.843536 417.521907 133.941455 417.053529 134.918503 C 416.575078 135.915695 415.920355 136.409256 415.094397 136.409256 C 414.892944 136.409256 414.671346 136.379038 414.41953 136.318602 C 413.845388 136.117149 413.432409 135.714242 413.185629 135.104847 C 412.918704 134.500488 412.888486 133.286733 413.089939 131.468619 C 413.276283 129.665613 413.689262 126.885561 414.328876 123.123424 C 415.462049 116.253874 417.179437 107.279139 419.481038 96.194183 C 421.127917 88.443275 422.860414 80.536242 424.678528 72.488191 C 426.496642 64.419995 428.289575 56.648942 430.062362 49.175032 C 431.850258 41.696086 433.577718 34.897045 435.239706 28.772871 C 435.551958 27.579261 436.025373 25.902164 436.65995 23.74158 C 437.299564 21.565887 438.029831 19.239103 438.850753 16.771303 C 439.691819 14.283358 440.618504 11.896138 441.625769 9.609646 C 442.65318 7.313081 443.700736 5.414385 444.773474 3.923633 C 445.86132 2.417771 446.949167 1.566631 448.037014 1.380287 C 449.109751 1.193943 449.965927 1.576704 450.600504 2.523534 Z M 438.966588 29.080087 C 442.013566 23.34371 444.159042 18.574308 445.403014 14.761809 C 446.646987 10.939236 447.362146 8.16422 447.54849 6.441796 C 446.662096 7.715987 445.448341 10.123351 443.912262 13.668926 C 442.386254 17.194355 440.739375 22.331408 438.966588 29.080087 Z M 438.966588 29.080087 " stroke="#5271ff" stroke-width="10.743221" stroke-opacity="1" stroke-miterlimit="4"/><g fill="#ffffff" fill-opacity="1"><g transform="translate(18.007972, 94.77818)"><g><path d="M 61.171875 -30.296875 C 63.097656 -27.921875 64.441406 -25.128906 65.203125 -21.921875 C 65.972656 -18.710938 66.144531 -15.289062 65.71875 -11.65625 C 65.300781 -8.03125 64.28125 -4.367188 62.65625 -0.671875 C 60.238281 4.910156 56.867188 9.773438 52.546875 13.921875 C 48.222656 18.066406 43.171875 21.375 37.390625 23.84375 C 31.617188 26.3125 25.328125 27.796875 18.515625 28.296875 C 18.515625 28.296875 18.488281 28.296875 18.4375 28.296875 C 17.550781 28.296875 17.082031 27.847656 17.03125 26.953125 C 16.976562 26.554688 17.085938 26.210938 17.359375 25.921875 C 17.640625 25.628906 17.953125 25.484375 18.296875 25.484375 C 24.765625 24.984375 30.722656 23.570312 36.171875 21.25 C 41.628906 18.9375 46.40625 15.828125 50.5 11.921875 C 54.601562 8.023438 57.789062 3.457031 60.0625 -1.78125 C 61.539062 -5.132812 62.476562 -8.460938 62.875 -11.765625 C 63.269531 -15.078125 63.132812 -18.164062 62.46875 -21.03125 C 61.800781 -23.894531 60.628906 -26.390625 58.953125 -28.515625 C 56.191406 -31.921875 52.390625 -33.945312 47.546875 -34.59375 C 45.472656 -32.414062 43.113281 -30.273438 40.46875 -28.171875 C 37.832031 -26.078125 35.164062 -24.164062 32.46875 -22.4375 C 29.78125 -20.707031 27.265625 -19.285156 24.921875 -18.171875 C 22.578125 -17.066406 20.613281 -16.414062 19.03125 -16.21875 C 17.945312 -10.882812 16.882812 -5.550781 15.84375 -0.21875 C 14.8125 5.113281 13.863281 10.148438 13 14.890625 C 12.132812 19.628906 11.40625 23.875 10.8125 27.625 C 10.21875 31.375 9.796875 34.382812 9.546875 36.65625 C 9.648438 36.414062 9.75 36.171875 9.84375 35.921875 C 10 35.523438 10.257812 35.253906 10.625 35.109375 C 11 34.960938 11.382812 34.960938 11.78125 35.109375 C 12.125 35.253906 12.367188 35.507812 12.515625 35.875 C 12.660156 36.25 12.660156 36.609375 12.515625 36.953125 C 11.722656 38.878906 11.039062 40.3125 10.46875 41.25 C 9.90625 42.1875 9.28125 42.65625 8.59375 42.65625 C 8.394531 42.65625 8.195312 42.609375 8 42.515625 C 7.65625 42.410156 7.347656 42.148438 7.078125 41.734375 C 6.804688 41.316406 6.65625 40.476562 6.625 39.21875 C 6.601562 37.957031 6.75 36.054688 7.0625 33.515625 C 7.382812 30.972656 7.914062 27.550781 8.65625 23.25 C 9.40625 18.957031 10.394531 13.523438 11.625 6.953125 C 12.863281 0.390625 14.421875 -7.554688 16.296875 -16.890625 C 16.046875 -17.085938 15.832031 -17.394531 15.65625 -17.8125 C 15.488281 -18.226562 15.476562 -18.785156 15.625 -19.484375 C 16.125 -21.253906 16.863281 -22.957031 17.84375 -24.59375 C 18.289062 -26.863281 18.757812 -29.195312 19.25 -31.59375 C 19.75 -33.988281 20.242188 -36.46875 20.734375 -39.03125 C 21.972656 -45.050781 23.125 -50.65625 24.1875 -55.84375 C 25.25 -61.03125 26.125 -65.523438 26.8125 -69.328125 C 24.488281 -68.734375 22.316406 -67.914062 20.296875 -66.875 C 14.859375 -64.257812 11.003906 -60.59375 8.734375 -55.875 C 6.460938 -51.164062 5.972656 -45.847656 7.265625 -39.921875 C 7.359375 -39.523438 7.289062 -39.164062 7.0625 -38.84375 C 6.84375 -38.519531 6.5625 -38.3125 6.21875 -38.21875 C 5.820312 -38.113281 5.453125 -38.171875 5.109375 -38.390625 C 4.765625 -38.617188 4.566406 -38.929688 4.515625 -39.328125 C 3.035156 -45.941406 3.566406 -51.878906 6.109375 -57.140625 C 8.648438 -62.398438 12.957031 -66.507812 19.03125 -69.46875 C 21.644531 -70.75 24.4375 -71.710938 27.40625 -72.359375 C 27.457031 -72.609375 27.503906 -72.84375 27.546875 -73.0625 C 27.597656 -73.28125 27.648438 -73.515625 27.703125 -73.765625 C 27.753906 -74.160156 27.9375 -74.46875 28.25 -74.6875 C 28.570312 -74.914062 28.929688 -74.976562 29.328125 -74.875 C 29.722656 -74.820312 30.03125 -74.632812 30.25 -74.3125 C 30.476562 -74 30.539062 -73.644531 30.4375 -73.25 C 30.4375 -73.195312 30.4375 -73.144531 30.4375 -73.09375 C 30.4375 -73.050781 30.4375 -73.003906 30.4375 -72.953125 C 33.75 -73.398438 37.007812 -73.4375 40.21875 -73.0625 C 43.425781 -72.6875 46.335938 -71.90625 48.953125 -70.71875 C 51.566406 -69.539062 53.691406 -67.960938 55.328125 -65.984375 C 57.203125 -63.765625 58.273438 -61.394531 58.546875 -58.875 C 58.816406 -56.363281 58.582031 -53.875 57.84375 -51.40625 C 57.101562 -48.9375 56.101562 -46.613281 54.84375 -44.4375 C 53.582031 -42.257812 52.359375 -40.382812 51.171875 -38.8125 C 50.773438 -38.21875 50.304688 -37.625 49.765625 -37.03125 C 54.554688 -36.039062 58.359375 -33.796875 61.171875 -30.296875 Z M 19.625 -19.1875 C 20.757812 -19.53125 22.238281 -20.144531 24.0625 -21.03125 C 25.894531 -21.914062 27.945312 -23.050781 30.21875 -24.4375 C 32.488281 -25.820312 34.796875 -27.378906 37.140625 -29.109375 C 39.484375 -30.835938 41.691406 -32.710938 43.765625 -34.734375 C 41.835938 -34.734375 39.816406 -34.507812 37.703125 -34.0625 C 35.628906 -33.664062 33.503906 -33.007812 31.328125 -32.09375 C 29.148438 -31.1875 27.125 -30.03125 25.25 -28.625 C 23.375 -27.21875 21.796875 -25.523438 20.515625 -23.546875 C 20.367188 -22.804688 20.21875 -22.078125 20.0625 -21.359375 C 19.914062 -20.648438 19.769531 -19.925781 19.625 -19.1875 Z M 46.4375 -37.546875 C 47.375 -38.535156 48.210938 -39.523438 48.953125 -40.515625 C 52.554688 -45.398438 54.726562 -49.863281 55.46875 -53.90625 C 56.207031 -57.957031 55.441406 -61.367188 53.171875 -64.140625 C 51.691406 -65.910156 49.726562 -67.316406 47.28125 -68.359375 C 44.84375 -69.398438 42.101562 -70.054688 39.0625 -70.328125 C 36.03125 -70.597656 32.957031 -70.460938 29.84375 -69.921875 C 29.15625 -66.117188 28.253906 -61.515625 27.140625 -56.109375 C 26.035156 -50.703125 24.835938 -44.835938 23.546875 -38.515625 C 23.253906 -37.035156 22.945312 -35.53125 22.625 -34 C 22.300781 -32.46875 21.992188 -30.910156 21.703125 -29.328125 C 23.628906 -31.148438 25.910156 -32.703125 28.546875 -33.984375 C 31.191406 -35.273438 34.066406 -36.242188 37.171875 -36.890625 C 40.429688 -37.523438 43.519531 -37.742188 46.4375 -37.546875 Z M 46.4375 -37.546875 "/></g></g></g><g fill="#ffffff" fill-opacity="1"><g transform="translate(90.511732, 94.77818)"><g><path d="M 32.515625 -16.8125 C 32.859375 -16.613281 33.101562 -16.328125 33.25 -15.953125 C 33.394531 -15.585938 33.375 -15.234375 33.1875 -14.890625 C 32.238281 -12.859375 31.085938 -10.582031 29.734375 -8.0625 C 28.378906 -5.550781 26.9375 -3.023438 25.40625 -0.484375 C 23.875 2.054688 22.316406 4.375 20.734375 6.46875 C 19.160156 8.570312 17.628906 10.273438 16.140625 11.578125 C 14.660156 12.890625 13.328125 13.546875 12.140625 13.546875 C 11.796875 13.546875 11.476562 13.472656 11.1875 13.328125 C 10.144531 12.929688 9.460938 11.992188 9.140625 10.515625 C 8.828125 9.035156 8.867188 6.910156 9.265625 4.140625 C 9.953125 -0.835938 11.773438 -7.894531 14.734375 -17.03125 C 14.691406 -17.03125 14.65625 -17.015625 14.625 -16.984375 C 14.601562 -16.960938 14.566406 -16.953125 14.515625 -16.953125 C 13.523438 -16.265625 12.335938 -15.550781 10.953125 -14.8125 C 9.578125 -14.070312 8.144531 -13.578125 6.65625 -13.328125 C 5.175781 -13.085938 3.769531 -13.410156 2.4375 -14.296875 C 0.5625 -15.628906 -0.394531 -17.476562 -0.4375 -19.84375 C -0.488281 -22.21875 0.394531 -24.8125 2.21875 -27.625 C 2.8125 -28.507812 3.585938 -29.492188 4.546875 -30.578125 C 5.515625 -31.671875 6.53125 -32.515625 7.59375 -33.109375 C 8.65625 -33.703125 9.601562 -33.726562 10.4375 -33.1875 C 10.882812 -32.9375 11.21875 -32.515625 11.4375 -31.921875 C 11.664062 -31.328125 11.65625 -30.410156 11.40625 -29.171875 C 11.15625 -27.941406 10.5625 -26.289062 9.625 -24.21875 C 8.6875 -22.144531 7.28125 -19.453125 5.40625 -16.140625 C 6.539062 -15.992188 7.8125 -16.316406 9.21875 -17.109375 C 10.625 -17.898438 11.875 -18.640625 12.96875 -19.328125 C 14 -20.023438 14.859375 -20.53125 15.546875 -20.84375 C 16.242188 -21.164062 16.890625 -21.101562 17.484375 -20.65625 C 18.023438 -20.21875 18.242188 -19.675781 18.140625 -19.03125 C 18.046875 -18.394531 17.945312 -17.898438 17.84375 -17.546875 C 16.21875 -12.410156 14.957031 -8.140625 14.0625 -4.734375 C 13.175781 -1.328125 12.570312 1.410156 12.25 3.484375 C 11.9375 5.554688 11.78125 7.109375 11.78125 8.140625 C 11.78125 9.179688 11.851562 9.863281 12 10.1875 C 12.144531 10.507812 12.21875 10.691406 12.21875 10.734375 C 12.8125 10.835938 14.03125 9.890625 15.875 7.890625 C 17.726562 5.890625 19.9375 2.878906 22.5 -1.140625 C 25.070312 -5.171875 27.769531 -10.148438 30.59375 -16.078125 C 30.789062 -16.472656 31.070312 -16.726562 31.4375 -16.84375 C 31.8125 -16.96875 32.171875 -16.957031 32.515625 -16.8125 Z M 2.671875 -21.84375 C 2.367188 -20.8125 2.28125 -19.960938 2.40625 -19.296875 C 2.53125 -18.628906 2.71875 -18.097656 2.96875 -17.703125 C 4.539062 -20.460938 5.734375 -22.707031 6.546875 -24.4375 C 7.367188 -26.164062 7.925781 -27.5 8.21875 -28.4375 C 8.519531 -29.375 8.691406 -30.039062 8.734375 -30.4375 C 8.191406 -30.144531 7.515625 -29.578125 6.703125 -28.734375 C 5.890625 -27.898438 5.097656 -26.890625 4.328125 -25.703125 C 3.566406 -24.515625 3.015625 -23.226562 2.671875 -21.84375 Z M 2.671875 -21.84375 "/></g></g></g><g fill="#ffffff" fill-opacity="1"><g transform="translate(120.061276, 94.77818)"><g><path d="M 25.03125 -16.515625 C 25.375 -16.316406 25.570312 -16.019531 25.625 -15.625 C 25.675781 -15.226562 25.601562 -14.882812 25.40625 -14.59375 C 22.488281 -10.539062 19.820312 -7.191406 17.40625 -4.546875 C 14.988281 -1.910156 12.566406 0.269531 10.140625 2 C 8.316406 3.28125 6.515625 3.921875 4.734375 3.921875 C 3.359375 3.921875 2.148438 3.550781 1.109375 2.8125 C 0.421875 2.320312 -0.253906 1.445312 -0.921875 0.1875 C -1.585938 -1.070312 -1.945312 -2.898438 -2 -5.296875 C -2.050781 -7.691406 -1.457031 -10.835938 -0.21875 -14.734375 C -0.21875 -14.734375 -0.21875 -14.757812 -0.21875 -14.8125 C 1.257812 -19.550781 3 -23.164062 5 -25.65625 C 7 -28.15625 8.710938 -29.429688 10.140625 -29.484375 C 11.273438 -29.523438 12.019531 -29.03125 12.375 -28 C 12.914062 -26.5625 12.269531 -24.519531 10.4375 -21.875 C 8.613281 -19.238281 5.925781 -16.441406 2.375 -13.484375 C 1.28125 -10.023438 0.757812 -7.316406 0.8125 -5.359375 C 0.863281 -3.410156 1.132812 -2.003906 1.625 -1.140625 C 2.125 -0.285156 2.519531 0.265625 2.8125 0.515625 C 4.289062 1.597656 6.191406 1.300781 8.515625 -0.375 C 10.785156 -1.945312 13.082031 -4.003906 15.40625 -6.546875 C 17.726562 -9.097656 20.269531 -12.320312 23.03125 -16.21875 C 23.28125 -16.519531 23.601562 -16.707031 24 -16.78125 C 24.394531 -16.851562 24.738281 -16.765625 25.03125 -16.515625 Z M 9.625 -26.359375 C 9.082031 -26.015625 8.34375 -25.285156 7.40625 -24.171875 C 6.46875 -23.066406 5.503906 -21.453125 4.515625 -19.328125 C 6.296875 -21.054688 7.554688 -22.523438 8.296875 -23.734375 C 9.035156 -24.941406 9.476562 -25.816406 9.625 -26.359375 Z M 9.625 -26.359375 "/></g></g></g><g fill="#ffffff" fill-opacity="1"><g transform="translate(141.612447, 94.77818)"><g><path d="M 62.515625 -43.703125 C 62.753906 -43.398438 62.847656 -43.050781 62.796875 -42.65625 C 62.753906 -42.257812 62.5625 -41.941406 62.21875 -41.703125 C 61.625 -41.304688 61.054688 -41.328125 60.515625 -41.765625 C 59.867188 -42.015625 58.394531 -42.1875 56.09375 -42.28125 C 53.800781 -42.382812 50.925781 -42.445312 47.46875 -42.46875 C 44.019531 -42.5 40.21875 -42.488281 36.0625 -42.4375 C 31.914062 -42.382812 27.65625 -42.320312 23.28125 -42.25 C 18.914062 -42.175781 14.6875 -42.09375 10.59375 -42 C 9.0625 -35.570312 7.457031 -28.59375 5.78125 -21.0625 C 4.101562 -13.539062 2.445312 -5.898438 0.8125 1.859375 C -1.3125 12.023438 -2.953125 20.363281 -4.109375 26.875 C -5.265625 33.394531 -6.019531 38.113281 -6.375 41.03125 C -6.269531 41.03125 -6.171875 41.054688 -6.078125 41.109375 C -5.679688 41.203125 -5.40625 41.429688 -5.25 41.796875 C -5.101562 42.171875 -5.109375 42.53125 -5.265625 42.875 C -5.554688 43.71875 -5.882812 44.5 -6.25 45.21875 C -6.625 45.9375 -7.132812 46.296875 -7.78125 46.296875 C -7.925781 46.296875 -8.097656 46.269531 -8.296875 46.21875 C -8.984375 45.96875 -9.363281 45.4375 -9.4375 44.625 C -9.507812 43.8125 -9.453125 42.6875 -9.265625 41.25 C -9.066406 39.175781 -8.617188 36.191406 -7.921875 32.296875 C -7.328125 28.640625 -6.5625 24.363281 -5.625 19.46875 C -4.6875 14.582031 -3.601562 9.226562 -2.375 3.40625 C -0.738281 -4.488281 0.941406 -12.335938 2.671875 -20.140625 C 4.398438 -27.941406 6.050781 -35.203125 7.625 -41.921875 C 5.257812 -41.867188 3.015625 -41.816406 0.890625 -41.765625 C -1.234375 -41.722656 -3.160156 -41.675781 -4.890625 -41.625 C -8.191406 -41.519531 -11.078125 -41.441406 -13.546875 -41.390625 C -16.015625 -41.347656 -17.769531 -41.328125 -18.8125 -41.328125 C -19.207031 -41.328125 -19.539062 -41.460938 -19.8125 -41.734375 C -20.082031 -42.003906 -20.21875 -42.335938 -20.21875 -42.734375 C -20.21875 -43.128906 -20.082031 -43.460938 -19.8125 -43.734375 C -19.539062 -44.003906 -19.207031 -44.140625 -18.8125 -44.140625 C -17.769531 -44.140625 -16.023438 -44.175781 -13.578125 -44.25 C -11.140625 -44.320312 -8.269531 -44.410156 -4.96875 -44.515625 C -2.59375 -44.554688 -0.296875 -44.601562 1.921875 -44.65625 C 4.148438 -44.707031 6.300781 -44.757812 8.375 -44.8125 C 9.113281 -47.96875 9.835938 -50.941406 10.546875 -53.734375 C 11.265625 -56.523438 11.945312 -59.078125 12.59375 -61.390625 C 12.6875 -61.785156 12.90625 -62.082031 13.25 -62.28125 C 13.601562 -62.476562 13.953125 -62.53125 14.296875 -62.4375 C 14.691406 -62.332031 14.988281 -62.109375 15.1875 -61.765625 C 15.382812 -61.421875 15.429688 -61.050781 15.328125 -60.65625 C 14.140625 -56.257812 12.78125 -51 11.25 -44.875 C 18.957031 -45.03125 25.550781 -45.144531 31.03125 -45.21875 C 36.507812 -45.289062 41.097656 -45.328125 44.796875 -45.328125 C 48.503906 -45.328125 51.503906 -45.273438 53.796875 -45.171875 C 56.097656 -45.078125 57.84375 -44.96875 59.03125 -44.84375 C 60.21875 -44.71875 61.054688 -44.554688 61.546875 -44.359375 C 62.035156 -44.160156 62.359375 -43.941406 62.515625 -43.703125 Z M 62.515625 -43.703125 "/></g></g></g><g fill="#ffffff" fill-opacity="1"><g transform="translate(151.462291, 94.77818)"><g><path d="M 62.515625 -43.703125 C 62.753906 -43.398438 62.847656 -43.050781 62.796875 -42.65625 C 62.753906 -42.257812 62.5625 -41.941406 62.21875 -41.703125 C 61.625 -41.304688 61.054688 -41.328125 60.515625 -41.765625 C 59.867188 -42.015625 58.394531 -42.1875 56.09375 -42.28125 C 53.800781 -42.382812 50.925781 -42.445312 47.46875 -42.46875 C 44.019531 -42.5 40.21875 -42.488281 36.0625 -42.4375 C 31.914062 -42.382812 27.65625 -42.320312 23.28125 -42.25 C 18.914062 -42.175781 14.6875 -42.09375 10.59375 -42 C 9.0625 -35.570312 7.457031 -28.59375 5.78125 -21.0625 C 4.101562 -13.539062 2.445312 -5.898438 0.8125 1.859375 C -1.3125 12.023438 -2.953125 20.363281 -4.109375 26.875 C -5.265625 33.394531 -6.019531 38.113281 -6.375 41.03125 C -6.269531 41.03125 -6.171875 41.054688 -6.078125 41.109375 C -5.679688 41.203125 -5.40625 41.429688 -5.25 41.796875 C -5.101562 42.171875 -5.109375 42.53125 -5.265625 42.875 C -5.554688 43.71875 -5.882812 44.5 -6.25 45.21875 C -6.625 45.9375 -7.132812 46.296875 -7.78125 46.296875 C -7.925781 46.296875 -8.097656 46.269531 -8.296875 46.21875 C -8.984375 45.96875 -9.363281 45.4375 -9.4375 44.625 C -9.507812 43.8125 -9.453125 42.6875 -9.265625 41.25 C -9.066406 39.175781 -8.617188 36.191406 -7.921875 32.296875 C -7.328125 28.640625 -6.5625 24.363281 -5.625 19.46875 C -4.6875 14.582031 -3.601562 9.226562 -2.375 3.40625 C -0.738281 -4.488281 0.941406 -12.335938 2.671875 -20.140625 C 4.398438 -27.941406 6.050781 -35.203125 7.625 -41.921875 C 5.257812 -41.867188 3.015625 -41.816406 0.890625 -41.765625 C -1.234375 -41.722656 -3.160156 -41.675781 -4.890625 -41.625 C -8.191406 -41.519531 -11.078125 -41.441406 -13.546875 -41.390625 C -16.015625 -41.347656 -17.769531 -41.328125 -18.8125 -41.328125 C -19.207031 -41.328125 -19.539062 -41.460938 -19.8125 -41.734375 C -20.082031 -42.003906 -20.21875 -42.335938 -20.21875 -42.734375 C -20.21875 -43.128906 -20.082031 -43.460938 -19.8125 -43.734375 C -19.539062 -44.003906 -19.207031 -44.140625 -18.8125 -44.140625 C -17.769531 -44.140625 -16.023438 -44.175781 -13.578125 -44.25 C -11.140625 -44.320312 -8.269531 -44.410156 -4.96875 -44.515625 C -2.59375 -44.554688 -0.296875 -44.601562 1.921875 -44.65625 C 4.148438 -44.707031 6.300781 -44.757812 8.375 -44.8125 C 9.113281 -47.96875 9.835938 -50.941406 10.546875 -53.734375 C 11.265625 -56.523438 11.945312 -59.078125 12.59375 -61.390625 C 12.6875 -61.785156 12.90625 -62.082031 13.25 -62.28125 C 13.601562 -62.476562 13.953125 -62.53125 14.296875 -62.4375 C 14.691406 -62.332031 14.988281 -62.109375 15.1875 -61.765625 C 15.382812 -61.421875 15.429688 -61.050781 15.328125 -60.65625 C 14.140625 -56.257812 12.78125 -51 11.25 -44.875 C 18.957031 -45.03125 25.550781 -45.144531 31.03125 -45.21875 C 36.507812 -45.289062 41.097656 -45.328125 44.796875 -45.328125 C 48.503906 -45.328125 51.503906 -45.273438 53.796875 -45.171875 C 56.097656 -45.078125 57.84375 -44.96875 59.03125 -44.84375 C 60.21875 -44.71875 61.054688 -44.554688 61.546875 -44.359375 C 62.035156 -44.160156 62.359375 -43.941406 62.515625 -43.703125 Z M 62.515625 -43.703125 "/></g></g></g><g fill="#ffffff" fill-opacity="1"><g transform="translate(161.312136, 94.77818)"><g/></g></g><g fill="#ffffff" fill-opacity="1"><g transform="translate(184.048245, 94.77818)"><g><path d="M 66.21875 -29.546875 C 66.3125 -29.148438 66.269531 -28.78125 66.09375 -28.4375 C 65.925781 -28.09375 65.671875 -27.847656 65.328125 -27.703125 C 63.054688 -27.003906 60.351562 -26.175781 57.21875 -25.21875 C 54.082031 -24.257812 50.632812 -23.210938 46.875 -22.078125 C 46.382812 -19.359375 45.878906 -16.664062 45.359375 -14 C 44.835938 -11.332031 44.359375 -8.738281 43.921875 -6.21875 C 42.734375 -0.0507812 41.691406 5.347656 40.796875 9.984375 C 39.910156 14.628906 39.25 17.992188 38.8125 20.078125 C 38.664062 20.816406 38.195312 21.1875 37.40625 21.1875 C 37.300781 21.1875 37.203125 21.1875 37.109375 21.1875 C 36.765625 21.082031 36.476562 20.867188 36.25 20.546875 C 36.03125 20.234375 35.96875 19.878906 36.0625 19.484375 C 36.3125 18.097656 36.695312 16.109375 37.21875 13.515625 C 37.738281 10.921875 38.332031 7.882812 39 4.40625 C 39.664062 0.925781 40.367188 -2.785156 41.109375 -6.734375 C 41.546875 -9.003906 41.988281 -11.347656 42.4375 -13.765625 C 42.882812 -16.191406 43.351562 -18.664062 43.84375 -21.1875 C 43.789062 -21.132812 43.753906 -21.109375 43.734375 -21.109375 C 43.710938 -21.109375 43.675781 -21.109375 43.625 -21.109375 C 38.9375 -19.671875 33.9375 -18.148438 28.625 -16.546875 C 23.3125 -14.941406 18.066406 -13.328125 12.890625 -11.703125 C 11.109375 -3.210938 9.625 4.066406 8.4375 10.140625 C 7.257812 16.210938 6.285156 21.285156 5.515625 25.359375 C 4.753906 29.441406 4.160156 32.71875 3.734375 35.1875 C 3.316406 37.65625 3.007812 39.53125 2.8125 40.8125 C 3.65625 41.15625 3.925781 41.75 3.625 42.59375 C 3.382812 43.375 3.101562 44.070312 2.78125 44.6875 C 2.457031 45.3125 2 45.625 1.40625 45.625 C 1.257812 45.625 1.085938 45.597656 0.890625 45.546875 C 0.148438 45.347656 -0.226562 44.828125 -0.25 43.984375 C -0.28125 43.148438 -0.171875 41.921875 0.078125 40.296875 C 0.367188 38.023438 0.882812 34.789062 1.625 30.59375 C 2.957031 23.332031 4.929688 13.207031 7.546875 0.21875 C 7.898438 -1.550781 8.257812 -3.363281 8.625 -5.21875 C 9 -7.070312 9.382812 -8.910156 9.78125 -10.734375 C 7.75 -10.097656 5.769531 -9.46875 3.84375 -8.84375 C 1.925781 -8.226562 0.0507812 -7.601562 -1.78125 -6.96875 C -7.457031 -5.082031 -11.972656 -3.507812 -15.328125 -2.25 C -18.691406 -1 -21.210938 0.00390625 -22.890625 0.765625 C -24.566406 1.535156 -25.722656 2.144531 -26.359375 2.59375 C -25.867188 2.9375 -25.675781 3.40625 -25.78125 4 C -25.925781 4.789062 -26.394531 5.1875 -27.1875 5.1875 C -27.28125 5.1875 -27.378906 5.160156 -27.484375 5.109375 C -28.460938 4.910156 -29.113281 4.601562 -29.4375 4.1875 C -29.757812 3.769531 -29.945312 3.363281 -30 2.96875 C -30 2.46875 -29.8125 1.96875 -29.4375 1.46875 C -29.070312 0.976562 -28.320312 0.398438 -27.1875 -0.265625 C -26.050781 -0.929688 -24.367188 -1.734375 -22.140625 -2.671875 C -17.992188 -4.398438 -12.046875 -6.570312 -4.296875 -9.1875 C -1.972656 -9.925781 0.40625 -10.691406 2.84375 -11.484375 C 5.289062 -12.273438 7.800781 -13.085938 10.375 -13.921875 C 11.3125 -18.460938 12.222656 -22.878906 13.109375 -27.171875 C 13.992188 -31.472656 14.832031 -35.488281 15.625 -39.21875 C 16.414062 -42.945312 17.109375 -46.226562 17.703125 -49.0625 C 18.296875 -51.90625 18.765625 -54.140625 19.109375 -55.765625 L 19.484375 -57.25 C 19.921875 -59.375 20.128906 -60.941406 20.109375 -61.953125 C 20.085938 -62.960938 20 -63.628906 19.84375 -63.953125 C 19.695312 -64.273438 19.625 -64.4375 19.625 -64.4375 C 19.53125 -64.488281 19.195312 -64.425781 18.625 -64.25 C 18.0625 -64.070312 17.1875 -63.46875 16 -62.4375 C 14.269531 -60.957031 12.453125 -58.957031 10.546875 -56.4375 C 8.648438 -53.914062 6.960938 -51.296875 5.484375 -48.578125 C 3.898438 -45.617188 2.800781 -42.96875 2.1875 -40.625 C 1.570312 -38.28125 1.507812 -36.488281 2 -35.25 C 2.09375 -35.007812 2.398438 -34.628906 2.921875 -34.109375 C 3.441406 -33.585938 4.539062 -33.375 6.21875 -33.46875 C 6.613281 -33.519531 6.957031 -33.410156 7.25 -33.140625 C 7.550781 -32.867188 7.726562 -32.535156 7.78125 -32.140625 C 7.78125 -31.742188 7.65625 -31.394531 7.40625 -31.09375 C 7.15625 -30.800781 6.832031 -30.65625 6.4375 -30.65625 C 4.164062 -30.507812 2.507812 -30.84375 1.46875 -31.65625 C 0.4375 -32.476562 -0.273438 -33.332031 -0.671875 -34.21875 C -1.265625 -35.695312 -1.363281 -37.5 -0.96875 -39.625 C -0.570312 -41.75 0.15625 -44.007812 1.21875 -46.40625 C 2.28125 -48.800781 3.550781 -51.15625 5.03125 -53.46875 C 6.519531 -55.789062 8.066406 -57.925781 9.671875 -59.875 C 11.273438 -61.832031 12.742188 -63.398438 14.078125 -64.578125 C 17.035156 -67.148438 19.351562 -67.914062 21.03125 -66.875 C 23.0625 -65.6875 23.457031 -62.304688 22.21875 -56.734375 L 21.921875 -55.171875 C 20.242188 -47.273438 18.710938 -39.976562 17.328125 -33.28125 C 15.941406 -26.59375 14.660156 -20.460938 13.484375 -14.890625 C 18.460938 -16.421875 23.46875 -17.953125 28.5 -19.484375 C 33.539062 -21.015625 38.3125 -22.46875 42.8125 -23.84375 C 43.050781 -23.894531 43.304688 -23.96875 43.578125 -24.0625 C 43.859375 -24.164062 44.144531 -24.242188 44.4375 -24.296875 C 45.375 -29.328125 46.320312 -34.320312 47.28125 -39.28125 C 48.25 -44.25 49.175781 -48.953125 50.0625 -53.390625 C 50.957031 -57.835938 51.785156 -61.789062 52.546875 -65.25 C 53.316406 -68.707031 53.945312 -71.445312 54.4375 -73.46875 C 54.53125 -73.863281 54.75 -74.160156 55.09375 -74.359375 C 55.445312 -74.554688 55.796875 -74.601562 56.140625 -74.5 C 56.535156 -74.40625 56.832031 -74.1875 57.03125 -73.84375 C 57.226562 -73.5 57.273438 -73.148438 57.171875 -72.796875 C 56.679688 -70.828125 56.078125 -68.175781 55.359375 -64.84375 C 54.640625 -61.507812 53.847656 -57.707031 52.984375 -53.4375 C 52.128906 -49.164062 51.226562 -44.625 50.28125 -39.8125 C 49.34375 -35 48.40625 -30.144531 47.46875 -25.25 C 50.925781 -26.289062 54.097656 -27.242188 56.984375 -28.109375 C 59.878906 -28.972656 62.363281 -29.75 64.4375 -30.4375 C 64.78125 -30.539062 65.132812 -30.503906 65.5 -30.328125 C 65.875 -30.148438 66.113281 -29.890625 66.21875 -29.546875 Z M 66.21875 -29.546875 "/></g></g></g><g fill="#ffffff" fill-opacity="1"><g transform="translate(247.07244, 94.77818)"><g><path d="M 26.8125 -16.140625 C 27.15625 -15.898438 27.351562 -15.582031 27.40625 -15.1875 C 27.457031 -14.789062 27.359375 -14.441406 27.109375 -14.140625 C 25.828125 -12.515625 24.332031 -11.054688 22.625 -9.765625 C 20.925781 -8.484375 19.148438 -7.535156 17.296875 -6.921875 C 15.441406 -6.304688 13.648438 -6.195312 11.921875 -6.59375 C 11.234375 -4.863281 10.257812 -3.53125 9 -2.59375 C 7.738281 -1.65625 6.46875 -1.1875 5.1875 -1.1875 C 5.1875 -1.1875 5.171875 -1.1875 5.140625 -1.1875 C 5.117188 -1.1875 5.109375 -1.1875 5.109375 -1.1875 C 3.773438 -1.238281 2.601562 -1.691406 1.59375 -2.546875 C 0.582031 -3.410156 -0.117188 -4.609375 -0.515625 -6.140625 C -0.960938 -7.867188 -1.035156 -9.507812 -0.734375 -11.0625 C -0.441406 -12.625 0.0976562 -13.992188 0.890625 -15.171875 C 1.679688 -16.359375 2.570312 -17.273438 3.5625 -17.921875 C 3.90625 -18.171875 4.296875 -18.222656 4.734375 -18.078125 C 5.179688 -19.160156 5.8125 -20 6.625 -20.59375 C 7.4375 -21.1875 8.289062 -21.40625 9.1875 -21.25 C 9.726562 -21.15625 10.316406 -20.820312 10.953125 -20.25 C 11.597656 -19.6875 12.117188 -18.675781 12.515625 -17.21875 C 12.910156 -15.757812 13.035156 -13.625 12.890625 -10.8125 C 12.835938 -10.320312 12.765625 -9.828125 12.671875 -9.328125 C 14.003906 -9.085938 15.410156 -9.238281 16.890625 -9.78125 C 18.367188 -10.320312 19.796875 -11.144531 21.171875 -12.25 C 22.554688 -13.363281 23.769531 -14.585938 24.8125 -15.921875 C 25.0625 -16.222656 25.378906 -16.394531 25.765625 -16.4375 C 26.160156 -16.488281 26.507812 -16.390625 26.8125 -16.140625 Z M 5.1875 -4.078125 C 5.820312 -4.078125 6.535156 -4.367188 7.328125 -4.953125 C 8.117188 -5.546875 8.765625 -6.4375 9.265625 -7.625 C 7.484375 -8.613281 6.207031 -9.75 5.4375 -11.03125 C 4.675781 -12.320312 4.269531 -13.609375 4.21875 -14.890625 C 3.1875 -13.898438 2.507812 -12.640625 2.1875 -11.109375 C 1.863281 -9.578125 1.875 -8.195312 2.21875 -6.96875 C 2.363281 -6.414062 2.660156 -5.796875 3.109375 -5.109375 C 3.554688 -4.421875 4.25 -4.078125 5.1875 -4.078125 Z M 10 -10.96875 C 10.09375 -12.9375 10.050781 -14.460938 9.875 -15.546875 C 9.707031 -16.640625 9.5 -17.382812 9.25 -17.78125 C 9.007812 -18.175781 8.835938 -18.394531 8.734375 -18.4375 C 8.691406 -18.4375 8.671875 -18.4375 8.671875 -18.4375 C 8.515625 -18.4375 8.285156 -18.285156 7.984375 -17.984375 C 7.691406 -17.691406 7.453125 -17.253906 7.265625 -16.671875 C 6.960938 -15.722656 6.984375 -14.691406 7.328125 -13.578125 C 7.671875 -12.472656 8.5625 -11.453125 10 -10.515625 C 10 -10.660156 10 -10.8125 10 -10.96875 Z M 10 -10.96875 "/></g></g></g><g fill="#ffffff" fill-opacity="1"><g transform="translate(270.771321, 94.77818)"><g><path d="M 45.40625 -16.671875 C 45.644531 -16.421875 45.773438 -16.097656 45.796875 -15.703125 C 45.828125 -15.304688 45.695312 -14.960938 45.40625 -14.671875 C 43.082031 -12.296875 40.722656 -10.640625 38.328125 -9.703125 C 35.929688 -8.765625 33.722656 -8.59375 31.703125 -9.1875 C 30.804688 -9.476562 29.863281 -9.96875 28.875 -10.65625 C 27.894531 -11.351562 27.035156 -12.441406 26.296875 -13.921875 C 25.554688 -11.160156 24.71875 -8.519531 23.78125 -6 C 22.738281 -3.28125 21.8125 -1.269531 21 0.03125 C 20.1875 1.34375 19.457031 2.207031 18.8125 2.625 C 18.164062 3.050781 17.597656 3.265625 17.109375 3.265625 C 16.222656 3.265625 15.53125 2.929688 15.03125 2.265625 C 14.539062 1.597656 14.171875 0.867188 13.921875 0.078125 C 13.671875 -0.710938 13.5 -1.332031 13.40625 -1.78125 C 13.257812 -2.613281 13.132812 -3.597656 13.03125 -4.734375 C 11.351562 -2.117188 10.007812 -0.160156 9 1.140625 C 7.988281 2.453125 7.085938 3.476562 6.296875 4.21875 C 5.648438 4.863281 5.054688 5.296875 4.515625 5.515625 C 3.972656 5.734375 3.476562 5.84375 3.03125 5.84375 C 2.6875 5.84375 2.363281 5.796875 2.0625 5.703125 C 1.769531 5.609375 1.550781 5.484375 1.40625 5.328125 C 0.175781 4.535156 -0.5625 2.832031 -0.8125 0.21875 C -1.0625 -2.394531 -0.835938 -5.601562 -0.140625 -9.40625 C 0.546875 -13.207031 1.679688 -17.332031 3.265625 -21.78125 C 3.410156 -22.125 3.65625 -22.378906 4 -22.546875 C 4.34375 -22.722656 4.710938 -22.738281 5.109375 -22.59375 C 5.453125 -22.488281 5.707031 -22.25 5.875 -21.875 C 6.050781 -21.507812 6.066406 -21.15625 5.921875 -20.8125 C 4.148438 -15.875 3.003906 -11.6875 2.484375 -8.25 C 1.960938 -4.820312 1.800781 -2.171875 2 -0.296875 C 2.195312 1.578125 2.519531 2.664062 2.96875 2.96875 C 3.164062 3.113281 3.632812 2.835938 4.375 2.140625 C 4.96875 1.597656 5.617188 0.875 6.328125 -0.03125 C 7.046875 -0.945312 7.9375 -2.191406 9 -3.765625 C 10.0625 -5.347656 11.40625 -7.425781 13.03125 -10 C 13.375 -10.59375 13.894531 -10.789062 14.59375 -10.59375 C 15.28125 -10.394531 15.625 -9.925781 15.625 -9.1875 C 15.625 -8.289062 15.671875 -7.203125 15.765625 -5.921875 C 15.867188 -4.640625 16.019531 -3.429688 16.21875 -2.296875 C 16.414062 -1.453125 16.585938 -0.832031 16.734375 -0.4375 C 16.878906 -0.0507812 17.003906 0.21875 17.109375 0.375 C 17.597656 0.0703125 18.203125 -0.765625 18.921875 -2.140625 C 19.640625 -3.523438 20.378906 -5.203125 21.140625 -7.171875 C 21.910156 -9.148438 22.601562 -11.226562 23.21875 -13.40625 C 23.832031 -15.582031 24.265625 -17.609375 24.515625 -19.484375 C 24.660156 -20.265625 25.128906 -20.65625 25.921875 -20.65625 C 26.710938 -20.707031 27.179688 -20.335938 27.328125 -19.546875 C 28.171875 -15.253906 29.898438 -12.710938 32.515625 -11.921875 C 33.992188 -11.472656 35.695312 -11.671875 37.625 -12.515625 C 39.550781 -13.359375 41.476562 -14.742188 43.40625 -16.671875 C 43.644531 -16.960938 43.960938 -17.109375 44.359375 -17.109375 C 44.753906 -17.109375 45.101562 -16.960938 45.40625 -16.671875 Z M 45.40625 -16.671875 "/></g></g></g><g fill="#ffffff" fill-opacity="1"><g transform="translate(312.91089, 94.77818)"><g><path d="M 25.03125 -16.515625 C 25.375 -16.316406 25.570312 -16.019531 25.625 -15.625 C 25.675781 -15.226562 25.601562 -14.882812 25.40625 -14.59375 C 22.488281 -10.539062 19.820312 -7.191406 17.40625 -4.546875 C 14.988281 -1.910156 12.566406 0.269531 10.140625 2 C 8.316406 3.28125 6.515625 3.921875 4.734375 3.921875 C 3.359375 3.921875 2.148438 3.550781 1.109375 2.8125 C 0.421875 2.320312 -0.253906 1.445312 -0.921875 0.1875 C -1.585938 -1.070312 -1.945312 -2.898438 -2 -5.296875 C -2.050781 -7.691406 -1.457031 -10.835938 -0.21875 -14.734375 C -0.21875 -14.734375 -0.21875 -14.757812 -0.21875 -14.8125 C 1.257812 -19.550781 3 -23.164062 5 -25.65625 C 7 -28.15625 8.710938 -29.429688 10.140625 -29.484375 C 11.273438 -29.523438 12.019531 -29.03125 12.375 -28 C 12.914062 -26.5625 12.269531 -24.519531 10.4375 -21.875 C 8.613281 -19.238281 5.925781 -16.441406 2.375 -13.484375 C 1.28125 -10.023438 0.757812 -7.316406 0.8125 -5.359375 C 0.863281 -3.410156 1.132812 -2.003906 1.625 -1.140625 C 2.125 -0.285156 2.519531 0.265625 2.8125 0.515625 C 4.289062 1.597656 6.191406 1.300781 8.515625 -0.375 C 10.785156 -1.945312 13.082031 -4.003906 15.40625 -6.546875 C 17.726562 -9.097656 20.269531 -12.320312 23.03125 -16.21875 C 23.28125 -16.519531 23.601562 -16.707031 24 -16.78125 C 24.394531 -16.851562 24.738281 -16.765625 25.03125 -16.515625 Z M 9.625 -26.359375 C 9.082031 -26.015625 8.34375 -25.285156 7.40625 -24.171875 C 6.46875 -23.066406 5.503906 -21.453125 4.515625 -19.328125 C 6.296875 -21.054688 7.554688 -22.523438 8.296875 -23.734375 C 9.035156 -24.941406 9.476562 -25.816406 9.625 -26.359375 Z M 9.625 -26.359375 "/></g></g></g><g fill="#ffffff" fill-opacity="1"><g transform="translate(334.462061, 94.77818)"><g><path d="M 21.78125 -69.390625 C 22.414062 -68.453125 22.425781 -66.550781 21.8125 -63.6875 C 21.195312 -60.820312 19.925781 -57.28125 18 -53.0625 C 16.070312 -48.84375 13.503906 -44.164062 10.296875 -39.03125 C 10.242188 -38.976562 10.191406 -38.929688 10.140625 -38.890625 C 8.859375 -33.648438 7.585938 -28.3125 6.328125 -22.875 C 5.066406 -17.445312 3.867188 -12.113281 2.734375 -6.875 C 1.597656 -1.644531 0.5625 3.273438 -0.375 7.890625 C -1.3125 12.503906 -2.113281 16.613281 -2.78125 20.21875 C -3.445312 23.820312 -3.925781 26.710938 -4.21875 28.890625 C -4.164062 28.890625 -4.117188 28.890625 -4.078125 28.890625 C -3.679688 29.035156 -3.394531 29.28125 -3.21875 29.625 C -3.050781 29.96875 -3.039062 30.335938 -3.1875 30.734375 C -3.53125 31.671875 -3.882812 32.519531 -4.25 33.28125 C -4.625 34.050781 -5.132812 34.4375 -5.78125 34.4375 C -5.925781 34.4375 -6.097656 34.410156 -6.296875 34.359375 C -6.742188 34.210938 -7.0625 33.90625 -7.25 33.4375 C -7.445312 32.96875 -7.472656 32.03125 -7.328125 30.625 C -7.179688 29.21875 -6.863281 27.054688 -6.375 24.140625 C -5.476562 18.804688 -4.144531 11.847656 -2.375 3.265625 C -1.082031 -2.765625 0.265625 -8.898438 1.671875 -15.140625 C 3.078125 -21.390625 4.46875 -27.414062 5.84375 -33.21875 C 7.226562 -39.019531 8.5625 -44.289062 9.84375 -49.03125 C 10.09375 -49.96875 10.460938 -51.273438 10.953125 -52.953125 C 11.453125 -54.628906 12.019531 -56.429688 12.65625 -58.359375 C 13.300781 -60.285156 14.019531 -62.132812 14.8125 -63.90625 C 15.601562 -65.6875 16.414062 -67.15625 17.25 -68.3125 C 18.09375 -69.476562 18.9375 -70.132812 19.78125 -70.28125 C 20.613281 -70.425781 21.28125 -70.128906 21.78125 -69.390625 Z M 12.734375 -48.8125 C 15.109375 -53.25 16.773438 -56.945312 17.734375 -59.90625 C 18.703125 -62.875 19.257812 -65.023438 19.40625 -66.359375 C 18.71875 -65.367188 17.78125 -63.503906 16.59375 -60.765625 C 15.40625 -58.023438 14.117188 -54.039062 12.734375 -48.8125 Z M 12.734375 -48.8125 "/></g></g></g><g fill="#ffffff" fill-opacity="1"><g transform="translate(345.719032, 94.77818)"><g><path d="M 21.78125 -69.390625 C 22.414062 -68.453125 22.425781 -66.550781 21.8125 -63.6875 C 21.195312 -60.820312 19.925781 -57.28125 18 -53.0625 C 16.070312 -48.84375 13.503906 -44.164062 10.296875 -39.03125 C 10.242188 -38.976562 10.191406 -38.929688 10.140625 -38.890625 C 8.859375 -33.648438 7.585938 -28.3125 6.328125 -22.875 C 5.066406 -17.445312 3.867188 -12.113281 2.734375 -6.875 C 1.597656 -1.644531 0.5625 3.273438 -0.375 7.890625 C -1.3125 12.503906 -2.113281 16.613281 -2.78125 20.21875 C -3.445312 23.820312 -3.925781 26.710938 -4.21875 28.890625 C -4.164062 28.890625 -4.117188 28.890625 -4.078125 28.890625 C -3.679688 29.035156 -3.394531 29.28125 -3.21875 29.625 C -3.050781 29.96875 -3.039062 30.335938 -3.1875 30.734375 C -3.53125 31.671875 -3.882812 32.519531 -4.25 33.28125 C -4.625 34.050781 -5.132812 34.4375 -5.78125 34.4375 C -5.925781 34.4375 -6.097656 34.410156 -6.296875 34.359375 C -6.742188 34.210938 -7.0625 33.90625 -7.25 33.4375 C -7.445312 32.96875 -7.472656 32.03125 -7.328125 30.625 C -7.179688 29.21875 -6.863281 27.054688 -6.375 24.140625 C -5.476562 18.804688 -4.144531 11.847656 -2.375 3.265625 C -1.082031 -2.765625 0.265625 -8.898438 1.671875 -15.140625 C 3.078125 -21.390625 4.46875 -27.414062 5.84375 -33.21875 C 7.226562 -39.019531 8.5625 -44.289062 9.84375 -49.03125 C 10.09375 -49.96875 10.460938 -51.273438 10.953125 -52.953125 C 11.453125 -54.628906 12.019531 -56.429688 12.65625 -58.359375 C 13.300781 -60.285156 14.019531 -62.132812 14.8125 -63.90625 C 15.601562 -65.6875 16.414062 -67.15625 17.25 -68.3125 C 18.09375 -69.476562 18.9375 -70.132812 19.78125 -70.28125 C 20.613281 -70.425781 21.28125 -70.128906 21.78125 -69.390625 Z M 12.734375 -48.8125 C 15.109375 -53.25 16.773438 -56.945312 17.734375 -59.90625 C 18.703125 -62.875 19.257812 -65.023438 19.40625 -66.359375 C 18.71875 -65.367188 17.78125 -63.503906 16.59375 -60.765625 C 15.40625 -58.023438 14.117188 -54.039062 12.734375 -48.8125 Z M 12.734375 -48.8125 "/></g></g></g></svg>