<svg xmlns="http://www.w3.org/2000/svg" xmlns:xlink="http://www.w3.org/1999/xlink" width="500" zoomAndPan="magnify" viewBox="0 0 375 149.999998" height="200" preserveAspectRatio="xMidYMid meet" version="1.0"><defs><g/></defs><path stroke-linecap="butt" transform="matrix(0.75, 0, 0, 0.75, 18.00625, 23.421613)" fill="none" stroke-linejoin="miter" d="M 81.55938 55.620145 C 84.132297 58.765978 85.923964 62.489937 86.934381 66.781604 C 87.965631 71.057646 88.200006 75.609729 87.637506 80.448271 C 87.075006 85.286813 85.705214 90.17223 83.538547 95.10973 C 80.325005 102.547231 75.830213 109.036815 70.05938 114.562857 C 64.304171 120.094107 57.569796 124.505565 49.856254 127.797232 C 42.158336 131.094107 33.767711 133.073274 24.689585 133.729524 C 24.689585 133.729524 24.653127 133.729524 24.590627 133.729524 C 23.403127 133.729524 22.772919 133.135774 22.710419 131.948274 C 22.647919 131.417024 22.788544 130.948274 23.14271 130.547232 C 23.512502 130.161816 23.934377 129.969107 24.397919 129.969107 C 33.012503 129.312857 40.955211 127.427441 48.215628 124.328482 C 55.496879 121.23994 61.871879 117.094107 67.335421 111.885773 C 72.798963 106.698273 77.054172 100.614939 80.09063 93.635772 C 82.064589 89.151397 83.314589 84.708688 83.825006 80.307646 C 84.356256 75.885771 84.179172 71.771187 83.293756 67.963895 C 82.413547 64.13577 80.845839 60.807645 78.595839 57.97952 C 74.913547 53.432645 69.851046 50.729519 63.408338 49.880561 C 60.642713 52.771186 57.491671 55.625353 53.955212 58.437853 C 50.434379 61.234728 46.882295 63.781604 43.298962 66.078479 C 39.715628 68.380562 36.356253 70.276396 33.220836 71.771187 C 30.106252 73.250354 27.491669 74.114937 25.387502 74.375354 C 23.939585 81.479521 22.528127 88.588897 21.14271 95.708689 C 19.762502 102.812856 18.491668 109.526398 17.335418 115.844107 C 16.179168 122.172232 15.20521 127.838899 14.418751 132.838899 C 13.627085 137.8389 13.064585 141.854525 12.731251 144.890983 C 12.871876 144.55765 13.012501 144.224317 13.137501 143.906608 C 13.33021 143.375358 13.668751 143.005566 14.153126 142.797233 C 14.647918 142.604525 15.163543 142.609733 15.694793 142.818066 C 16.163543 143.010775 16.491668 143.349317 16.684377 143.833692 C 16.89271 144.328483 16.89271 144.812858 16.684377 145.2764 C 15.637502 147.849317 14.731252 149.755567 13.960418 150.989942 C 13.20521 152.24515 12.366668 152.875359 11.450001 152.875359 C 11.194793 152.875359 10.929168 152.80765 10.658335 152.677442 C 10.20521 152.552442 9.793751 152.203484 9.429168 151.640984 C 9.075001 151.078484 8.882293 149.953484 8.845834 148.265983 C 8.814584 146.594108 9.007293 144.062858 9.429168 140.672233 C 9.86146 137.281608 10.569793 132.724316 11.54896 127.005566 C 12.543751 121.281607 13.86146 114.042023 15.502085 105.281606 C 17.14271 96.521189 19.215627 85.92223 21.720835 73.484729 C 21.403127 73.224312 21.121877 72.812854 20.877085 72.250354 C 20.653127 71.687854 20.637502 70.948271 20.83021 70.036812 C 21.48646 67.656604 22.476044 65.380562 23.793752 63.213895 C 24.39271 60.187853 25.01771 57.078478 25.67396 53.880561 C 26.335419 50.682644 26.991669 47.370144 27.653127 43.948269 C 29.293752 35.927435 30.819794 28.463893 32.231253 21.552434 C 33.647919 14.640976 34.819794 8.646184 35.752086 3.568058 C 32.653128 4.354517 29.752086 5.43785 27.048961 6.823267 C 19.819793 10.307642 14.684377 15.203476 11.64271 21.505559 C 8.621876 27.78681 7.965626 34.875352 9.668751 42.765977 C 9.814585 43.297227 9.731251 43.781602 9.429168 44.213894 C 9.137501 44.630561 8.757293 44.906602 8.293751 45.031602 C 7.762501 45.177436 7.262501 45.104519 6.798959 44.818061 C 6.351043 44.510769 6.090626 44.094102 6.028126 43.562852 C 4.048959 34.739935 4.757293 26.823268 8.147918 19.818059 C 11.538543 12.807642 17.288543 7.328475 25.387502 3.37535 C 28.871877 1.651392 32.595836 0.370142 36.548961 -0.484025 C 36.611461 -0.806942 36.679169 -1.109025 36.741669 -1.400692 C 36.804169 -1.702775 36.871878 -2.025692 36.934378 -2.364234 C 36.996878 -2.879859 37.241669 -3.2809 37.658336 -3.567359 C 38.090628 -3.87465 38.575003 -3.963192 39.106253 -3.832984 C 39.637503 -3.770484 40.043753 -3.520484 40.33542 -3.088192 C 40.637503 -2.671525 40.720836 -2.197567 40.575003 -1.666317 C 40.575003 -1.598609 40.575003 -1.536109 40.575003 -1.473609 C 40.575003 -1.4059 40.575003 -1.3434 40.575003 -1.2809 C 44.996878 -1.859025 49.340629 -1.900692 53.61667 -1.400692 C 57.892712 -0.916317 61.772921 0.120141 65.262504 1.708683 C 68.767713 3.286808 71.601046 5.380558 73.772922 8.00035 C 76.262505 10.974309 77.68438 14.140976 78.038547 17.500351 C 78.408339 20.859726 78.106255 24.187851 77.12188 27.484726 C 76.142713 30.760768 74.80938 33.854518 73.12188 36.765977 C 71.450005 39.656602 69.819796 42.156602 68.226046 44.260769 C 67.71563 45.052436 67.095838 45.838894 66.37188 46.625353 C 72.752088 47.943061 77.814589 50.943061 81.55938 55.620145 Z M 26.158336 70.422229 C 27.684377 69.953479 29.663544 69.135771 32.090628 67.963895 C 34.533336 66.771187 37.262503 65.26077 40.288545 63.427437 C 43.325003 61.578478 46.403128 59.505562 49.517712 57.208686 C 52.653129 54.896186 55.601046 52.38577 58.366671 49.687853 C 55.793754 49.687853 53.095837 49.984728 50.267712 50.578478 C 47.502087 51.109728 44.663545 51.984728 41.757295 53.208686 C 38.861461 54.411811 36.163544 55.953478 33.658336 57.833687 C 31.163544 59.713895 29.069794 61.963895 27.361461 64.583687 C 27.153127 65.583687 26.955211 66.562854 26.762502 67.526395 C 26.569794 68.474312 26.366669 69.437854 26.158336 70.422229 Z M 61.913546 45.927436 C 63.163546 44.609727 64.283338 43.292019 65.262504 41.974311 C 70.069796 35.463894 72.960422 29.50556 73.939588 24.109726 C 74.939588 18.708684 73.923963 14.167017 70.90313 10.484725 C 68.929171 8.104517 66.30938 6.224309 63.043754 4.8441 C 59.798962 3.463892 56.147921 2.5941 52.101045 2.239933 C 48.048962 1.870142 43.950003 2.047225 39.80417 2.771183 C 38.871878 7.849309 37.663545 13.995142 36.189586 21.213893 C 34.710419 28.417018 33.116669 36.22431 31.413544 44.646186 C 31.012502 46.625353 30.595836 48.635769 30.158336 50.677436 C 29.741669 52.719103 29.330211 54.79202 28.929169 56.896186 C 31.502086 54.453478 34.548961 52.380561 38.069795 50.677436 C 41.58542 48.953478 45.418753 47.672228 49.569795 46.818061 C 53.923962 45.963894 58.038546 45.667019 61.913546 45.927436 Z M 140.022925 73.578479 C 140.491676 73.854521 140.819801 74.239937 141.012509 74.734729 C 141.205217 75.219104 141.173967 75.693063 140.918759 76.156604 C 139.66355 78.859729 138.127092 81.885771 136.309384 85.245146 C 134.512508 88.588897 132.590633 91.958689 130.548967 95.349314 C 128.5073 98.739939 126.434383 101.833689 124.330216 104.630564 C 122.226049 107.427439 120.184383 109.703481 118.205216 111.453481 C 116.231257 113.203481 114.455216 114.08369 112.877091 114.08369 C 112.413549 114.08369 111.976049 113.979523 111.575007 113.765981 C 110.194799 113.255565 109.28334 112.010773 108.851049 110.031606 C 108.434382 108.052439 108.491674 105.219106 109.017715 101.521189 C 109.934382 94.880564 112.371882 85.474313 116.325007 73.292021 C 116.262507 73.292021 116.210424 73.307646 116.179174 73.338896 C 116.147924 73.370146 116.101049 73.385771 116.033341 73.385771 C 114.715632 74.302437 113.132299 75.260771 111.288549 76.255563 C 109.455215 77.234729 107.548965 77.896188 105.575007 78.229521 C 103.59584 78.552438 101.715632 78.120146 99.929173 76.927438 C 97.43959 75.161813 96.163548 72.703479 96.09584 69.552437 C 96.017715 66.38577 97.200006 62.922228 99.642715 59.161812 C 100.429173 57.974312 101.465632 56.656603 102.75209 55.208686 C 104.038548 53.76077 105.387507 52.646186 106.804174 51.85452 C 108.215632 51.068061 109.486465 51.036811 110.611465 51.76077 C 111.18959 52.083686 111.621882 52.646186 111.913549 53.44827 C 112.220841 54.234728 112.200007 55.458686 111.866674 57.114936 C 111.543757 58.750353 110.757299 60.953478 109.50209 63.719104 C 108.262507 66.484729 106.392715 70.068062 103.887507 74.469104 C 105.397923 74.661813 107.090632 74.239937 108.97084 73.193062 C 110.851049 72.130562 112.517716 71.146187 113.960424 70.229521 C 115.345841 69.312854 116.491674 68.63577 117.408341 68.203479 C 118.340633 67.765979 119.200008 67.849312 119.991674 68.443062 C 120.710424 69.036812 121.002091 69.771187 120.856258 70.635771 C 120.731258 71.489937 120.601049 72.140979 120.470841 72.588896 C 118.304174 79.437854 116.621882 85.135771 115.434382 89.682647 C 114.257299 94.213897 113.455216 97.864939 113.022924 100.630564 C 112.590632 103.411814 112.371882 105.489939 112.371882 106.875356 C 112.371882 108.255564 112.465632 109.156606 112.658341 109.573273 C 112.871882 110.005565 112.976049 110.255565 112.976049 110.323273 C 113.762507 110.448273 115.382299 109.17744 117.845841 106.510773 C 120.319799 103.844106 123.267716 99.833689 126.689591 94.479522 C 130.116675 89.114938 133.705217 82.474313 137.470842 74.568063 C 137.72605 74.036812 138.095842 73.693062 138.575009 73.531604 C 139.075009 73.370146 139.559384 73.385771 140.022925 73.578479 Z M 100.22084 66.875354 C 99.835423 68.26077 99.72084 69.390979 99.882298 70.276396 C 100.043756 71.161812 100.293756 71.864937 100.632298 72.396187 C 102.736465 68.719104 104.325007 65.72952 105.403132 63.427437 C 106.496882 61.114937 107.236465 59.328478 107.621882 58.078478 C 108.022924 56.82327 108.257299 55.937853 108.319799 55.422228 C 107.59584 55.812853 106.68959 56.568061 105.59584 57.693062 C 104.517715 58.802437 103.465632 60.151395 102.43959 61.739937 C 101.423965 63.318062 100.684382 65.026395 100.22084 66.875354 Z M 169.444802 73.989937 C 169.908344 74.245146 170.173969 74.640979 170.241677 75.172229 C 170.304177 75.698271 170.205219 76.156604 169.950011 76.542021 C 166.059385 81.943063 162.502093 86.406605 159.272927 89.92223 C 156.054176 93.443064 152.835426 96.35973 149.601051 98.677439 C 147.173968 100.380564 144.772926 101.229522 142.392717 101.229522 C 140.543759 101.229522 138.929175 100.739939 137.548967 99.760772 C 136.6323 99.104522 135.731259 97.927439 134.845842 96.239939 C 133.965633 94.568064 133.491675 92.135772 133.423967 88.937855 C 133.345842 85.739938 134.1323 81.542021 135.78855 76.349313 C 135.78855 76.349313 135.78855 76.318063 135.78855 76.255563 C 137.767717 69.937854 140.080217 65.114937 142.731259 61.79202 C 145.397926 58.463895 147.689593 56.765978 149.601051 56.703478 C 151.111468 56.63577 152.101051 57.297228 152.569801 58.677437 C 153.29376 60.578478 152.429176 63.29202 149.986468 66.828479 C 147.559384 70.349312 143.976051 74.083687 139.236467 78.036813 C 137.78855 82.635771 137.095842 86.23473 137.16355 88.838897 C 137.22605 91.443063 137.590634 93.323272 138.246884 94.479522 C 138.908342 95.620147 139.434384 96.35973 139.840634 96.698272 C 141.814592 98.146189 144.345842 97.750356 147.434384 95.51598 C 150.455218 93.396189 153.507301 90.646188 156.595843 87.271188 C 159.694802 83.880563 163.095843 79.583688 166.79376 74.375354 C 167.111469 73.974312 167.538552 73.724312 168.069802 73.625354 C 168.601052 73.531604 169.059386 73.651396 169.444802 73.989937 Z M 148.903134 60.849312 C 148.179176 61.297228 147.189593 62.271187 145.939592 63.765979 C 144.700009 65.245145 143.423967 67.401395 142.106259 70.229521 C 144.465634 67.927437 146.137509 65.974312 147.121884 64.370145 C 148.116676 62.745145 148.710426 61.57327 148.903134 60.849312 Z M 248.158348 37.729519 C 248.481265 38.13056 248.606265 38.59931 248.543765 39.125352 C 248.481265 39.640977 248.220848 40.06806 247.772932 40.406602 C 246.970848 40.937852 246.205223 40.901394 245.481265 40.307644 C 244.632307 39.969102 242.668765 39.739935 239.601056 39.609727 C 236.543764 39.479519 232.710431 39.401394 228.101056 39.370144 C 223.502097 39.333685 218.439597 39.354519 212.913555 39.417019 C 207.382304 39.479519 201.700012 39.562852 195.866679 39.656602 C 190.04897 39.75556 184.408345 39.875352 178.939594 40.021185 C 176.897928 48.568061 174.757303 57.870145 172.502094 67.911812 C 170.272927 77.943063 168.069802 88.125355 165.897927 98.458689 C 163.069802 112.026398 160.882302 123.156607 159.340635 131.849316 C 157.783343 140.547233 156.778135 146.828483 156.32501 150.703484 C 156.455218 150.703484 156.585426 150.734734 156.715635 150.797234 C 157.241676 150.927442 157.60626 151.239942 157.798968 151.739942 C 157.991677 152.239942 157.991677 152.719109 157.798968 153.187859 C 157.413551 154.297234 156.970843 155.323276 156.470843 156.271192 C 155.976051 157.234734 155.298968 157.719109 154.444801 157.719109 C 154.252093 157.719109 154.022926 157.687859 153.746885 157.620151 C 152.830218 157.286817 152.32501 156.568067 152.23126 155.474317 C 152.132301 154.4014 152.210426 152.906609 152.470843 150.989942 C 152.726051 148.229525 153.319801 144.250358 154.252093 139.05765 C 155.04376 134.187858 156.064593 128.489941 157.314593 121.963899 C 158.569802 115.453482 160.017718 108.312856 161.653135 100.531606 C 163.82501 90.005563 166.059385 79.542021 168.35626 69.140979 C 170.673969 58.745145 172.882302 49.068061 174.986469 40.114935 C 171.819802 40.177435 168.82501 40.245144 165.996885 40.307644 C 163.16876 40.375352 160.601052 40.437852 158.304177 40.500352 C 153.882301 40.630561 150.033343 40.724311 146.757301 40.792019 C 143.460426 40.854519 141.121884 40.885769 139.741675 40.885769 C 139.210425 40.885769 138.767717 40.708686 138.41355 40.354519 C 138.043759 39.984727 137.861467 39.547227 137.861467 39.031602 C 137.861467 38.500352 138.043759 38.057644 138.41355 37.703477 C 138.767717 37.333685 139.210425 37.151394 139.741675 37.151394 C 141.121884 37.151394 143.444801 37.104519 146.710426 37.00556 C 149.955218 36.906602 153.788551 36.78681 158.210427 36.646185 C 161.35626 36.578477 164.413552 36.515977 167.371885 36.453477 C 170.340636 36.385769 173.210427 36.323269 175.976053 36.260769 C 176.955219 32.047227 177.918761 28.083685 178.871886 24.370143 C 179.835428 20.646184 180.741678 17.229517 181.595845 14.125351 C 181.73647 13.609726 182.033345 13.224309 182.48647 12.969101 C 182.950011 12.698267 183.418761 12.625351 183.882303 12.750351 C 184.397928 12.880559 184.783345 13.177434 185.043761 13.646184 C 185.314595 14.109726 185.387511 14.599309 185.257303 15.114934 C 183.684386 20.979518 181.877095 27.995143 179.835428 36.16181 C 190.106262 35.969102 198.887512 35.823269 206.184388 35.729519 C 213.496888 35.614935 219.621888 35.557644 224.55418 35.557644 C 229.491681 35.557644 233.486473 35.63056 236.538556 35.776394 C 239.606265 35.906602 241.929181 36.047227 243.507307 36.208685 C 245.095848 36.370144 246.220848 36.588894 246.882307 36.859727 C 247.538557 37.120144 247.96564 37.406602 248.158348 37.729519 Z M 261.293766 37.729519 C 261.611474 38.13056 261.741683 38.59931 261.679183 39.125352 C 261.611474 39.640977 261.356266 40.06806 260.908349 40.406602 C 260.101057 40.937852 259.340641 40.901394 258.616682 40.307644 C 257.762516 39.969102 255.804182 39.739935 252.731265 39.609727 C 249.679182 39.479519 245.845848 39.401394 241.231265 39.370144 C 236.637514 39.333685 231.575014 39.354519 226.043764 39.417019 C 220.517722 39.479519 214.83543 39.562852 209.002096 39.656602 C 203.179179 39.75556 197.538554 39.875352 192.075012 40.021185 C 190.033345 48.568061 187.887512 57.870145 185.637511 67.911812 C 183.403136 77.943063 181.200011 88.125355 179.033344 98.458689 C 176.205219 112.026398 174.017719 123.156607 172.476052 131.849316 C 170.913552 140.547233 169.913552 146.828483 169.460427 150.703484 C 169.590636 150.703484 169.720844 150.734734 169.845844 150.797234 C 170.377094 150.927442 170.741677 151.239942 170.934386 151.739942 C 171.127094 152.239942 171.127094 152.719109 170.934386 153.187859 C 170.543761 154.297234 170.106261 155.323276 169.606261 156.271192 C 169.106261 157.234734 168.434385 157.719109 167.580219 157.719109 C 167.38751 157.719109 167.153135 157.687859 166.882302 157.620151 C 165.965635 157.286817 165.460427 156.568067 165.361469 155.474317 C 165.267719 154.4014 165.345844 152.906609 165.60626 150.989942 C 165.861469 148.229525 166.455219 144.250358 167.38751 139.05765 C 168.173969 134.187858 169.194802 128.489941 170.450011 121.963899 C 171.705219 115.453482 173.147927 108.312856 174.788553 100.531606 C 176.960428 90.005563 179.194803 79.542021 181.491678 69.140979 C 183.804178 58.745145 186.01772 49.068061 188.121887 40.114935 C 184.95522 40.177435 181.95522 40.245144 179.127094 40.307644 C 176.298969 40.375352 173.736469 40.437852 171.439594 40.500352 C 167.017719 40.630561 163.16876 40.724311 159.892718 40.792019 C 156.595843 40.854519 154.257301 40.885769 152.871885 40.885769 C 152.345843 40.885769 151.903135 40.708686 151.548968 40.354519 C 151.179176 39.984727 150.991676 39.547227 150.991676 39.031602 C 150.991676 38.500352 151.179176 38.057644 151.548968 37.703477 C 151.903135 37.333685 152.345843 37.151394 152.871885 37.151394 C 154.257301 37.151394 156.580218 37.104519 159.840635 37.00556 C 163.090635 36.906602 166.923969 36.78681 171.340636 36.646185 C 174.491677 36.578477 177.543761 36.515977 180.502095 36.453477 C 183.476053 36.385769 186.345845 36.323269 189.11147 36.260769 C 190.090637 32.047227 191.054178 28.083685 192.002095 24.370143 C 192.965637 20.646184 193.877095 17.229517 194.726054 14.125351 C 194.871887 13.609726 195.168762 13.224309 195.621887 12.969101 C 196.085429 12.698267 196.554179 12.625351 197.01772 12.750351 C 197.533346 12.880559 197.918762 13.177434 198.173971 13.646184 C 198.450012 14.109726 198.522929 14.599309 198.392721 15.114934 C 196.814595 20.979518 195.007304 27.995143 192.965637 36.16181 C 203.236471 35.969102 212.02293 35.823269 219.319805 35.729519 C 226.632306 35.614935 232.757306 35.557644 237.689598 35.557644 C 242.62189 35.557644 246.616682 35.63056 249.673974 35.776394 C 252.741682 35.906602 255.064599 36.047227 256.637516 36.208685 C 258.231266 36.370144 259.356266 36.588894 260.012516 36.859727 C 260.673974 37.120144 261.101058 37.406602 261.293766 37.729519 Z M 309.684394 56.60452 C 309.814602 57.120145 309.75731 57.609728 309.517727 58.078478 C 309.28856 58.54202 308.955227 58.870145 308.502102 59.062853 C 305.465643 59.97952 301.856268 61.083687 297.679185 62.370145 C 293.496893 63.651395 288.908351 65.052437 283.913559 66.562854 C 283.252101 70.193062 282.580225 73.786812 281.887517 77.338896 C 281.194809 80.89098 280.554184 84.349313 279.960434 87.708688 C 278.382309 95.937855 277.0021 103.146189 275.809392 109.33369 C 274.621892 115.52119 273.731267 119.995148 273.137517 122.760774 C 272.944808 123.73994 272.3146 124.229524 271.257308 124.229524 C 271.1271 124.229524 270.996891 124.229524 270.866683 124.229524 C 270.403141 124.104524 270.022933 123.823274 269.736475 123.385774 C 269.444808 122.969107 269.366683 122.495149 269.496891 121.963899 C 269.8146 120.130565 270.325016 117.479523 271.012516 114.010773 C 271.705225 110.55244 272.491683 106.505564 273.3771 101.859731 C 274.278142 97.229522 275.215642 92.281605 276.194808 87.005563 C 276.793767 83.98473 277.387517 80.85973 277.981267 77.630563 C 278.575017 74.396187 279.205225 71.109729 279.861475 67.765979 C 279.798975 67.833687 279.746892 67.864937 279.715642 67.864937 C 279.684392 67.864937 279.637517 67.864937 279.575017 67.864937 C 273.304183 69.760771 266.632308 71.786812 259.564599 73.937854 C 252.491682 76.078479 245.49689 78.229521 238.585431 80.401396 C 236.210431 91.719105 234.231264 101.422231 232.658348 109.526398 C 231.080222 117.625357 229.778139 124.390982 228.752097 129.823274 C 227.736472 135.255566 226.950014 139.614941 226.387514 142.890983 C 225.825014 146.187858 225.413555 148.693067 225.158347 150.411817 C 226.267722 150.880567 226.627097 151.667025 226.241681 152.7764 C 225.908347 153.8389 225.52293 154.776401 225.08543 155.599317 C 224.668764 156.417026 224.064597 156.828484 223.278139 156.828484 C 223.08543 156.828484 222.851055 156.792026 222.580222 156.729526 C 221.601055 156.474317 221.090639 155.781609 221.059389 154.656609 C 221.028139 153.531609 221.173972 151.885775 221.49168 149.7139 C 221.89793 146.693067 222.58543 142.385775 223.569805 136.792024 C 225.351055 127.114941 227.986472 113.61494 231.476056 96.286814 C 231.923973 93.927439 232.397931 91.51598 232.897931 89.057647 C 233.397931 86.583688 233.908348 84.120146 234.439598 81.677438 C 231.741681 82.531605 229.106264 83.375355 226.533347 84.208688 C 223.96043 85.031605 221.46043 85.864938 219.033347 86.719105 C 211.465638 89.224313 205.444804 91.323272 200.976054 93.010772 C 196.491679 94.682647 193.132304 96.026397 190.897928 97.036814 C 188.647928 98.047231 187.101053 98.854522 186.246887 99.448272 C 186.908345 99.911814 187.168762 100.542022 187.043762 101.328481 C 186.835428 102.390981 186.20522 102.917022 185.163553 102.917022 C 185.033345 102.917022 184.897928 102.885772 184.752095 102.823272 C 183.434386 102.547231 182.564595 102.130564 182.147928 101.568064 C 181.715636 101.021189 181.465636 100.484731 181.403136 99.953481 C 181.403136 99.297231 181.647928 98.635772 182.147928 97.979522 C 182.647928 97.318064 183.653136 96.54723 185.163553 95.661814 C 186.67397 94.760772 188.908345 93.693064 191.866679 92.45348 C 197.39272 90.14098 205.325013 87.239938 215.658347 83.750355 C 218.762513 82.771188 221.934389 81.760771 225.184389 80.713896 C 228.444806 79.656604 231.788556 78.562854 235.210431 77.437854 C 236.465639 71.375354 237.689598 65.484729 238.877098 59.765978 C 240.064598 54.026395 241.18439 48.672228 242.226056 43.708686 C 243.288557 38.739935 244.210432 34.370143 245.002098 30.594102 C 245.788557 26.797226 246.413557 23.81806 246.882307 21.646184 L 247.361473 19.672226 C 247.955223 16.844101 248.236473 14.755559 248.205223 13.401392 C 248.173973 12.052434 248.054182 11.161809 247.845848 10.724309 C 247.65314 10.292017 247.554182 10.078475 247.554182 10.078475 C 247.429182 10.010767 246.986473 10.099309 246.231265 10.338892 C 245.476057 10.568059 244.30939 11.370142 242.736473 12.750351 C 240.418765 14.729517 237.991681 17.396184 235.455223 20.755559 C 232.929181 24.114935 230.679181 27.604518 228.705222 31.219102 C 226.595847 35.172227 225.132305 38.719102 224.314597 41.849311 C 223.496889 44.969102 223.413555 47.349311 224.075014 48.989936 C 224.200014 49.323269 224.611472 49.838894 225.30418 50.531603 C 225.996889 51.224311 227.455222 51.505561 229.689597 51.375353 C 230.220847 51.307644 230.679181 51.463894 231.064597 51.833686 C 231.465639 52.187853 231.700014 52.620145 231.762514 53.13577 C 231.762514 53.66702 231.595847 54.130561 231.257306 54.531603 C 230.934389 54.91702 230.512514 55.109728 229.981264 55.109728 C 226.960431 55.318061 224.757305 54.880561 223.377097 53.786811 C 221.99168 52.693061 221.038555 51.557644 220.507305 50.385769 C 219.715638 48.406603 219.590638 46.005561 220.121888 43.177436 C 220.64793 40.349311 221.621889 37.333685 223.038555 34.135768 C 224.450014 30.937852 226.137514 27.797226 228.101056 24.708685 C 230.075014 21.609726 232.132306 18.760768 234.272931 16.177434 C 236.423973 13.573267 238.387515 11.474309 240.15314 9.880559 C 244.106265 6.458684 247.200015 5.43785 249.43439 6.823267 C 252.137515 8.411809 252.668765 12.922226 251.02814 20.344101 L 250.616682 22.422226 C 248.382307 32.963893 246.34064 42.693061 244.491682 51.614936 C 242.663556 60.536812 240.950015 68.719104 239.356265 76.156604 C 246.012515 74.114937 252.700015 72.078479 259.418766 70.036812 C 266.137516 67.995145 272.486475 66.047229 278.465642 64.19827 C 278.798975 64.13577 279.147934 64.04202 279.5021 63.911812 C 279.871892 63.781604 280.257309 63.687854 280.65835 63.620145 C 281.892725 56.901395 283.15835 50.234728 284.444809 43.609727 C 285.726059 36.989935 286.965642 30.719102 288.153142 24.807643 C 289.345851 18.875351 290.444809 13.609726 291.460434 9.015975 C 292.486476 4.401392 293.330226 0.745142 293.991684 -1.952775 C 294.116684 -2.484025 294.408351 -2.879859 294.856268 -3.135067 C 295.325018 -3.411109 295.78856 -3.478817 296.25731 -3.353817 C 296.78856 -3.207984 297.179185 -2.900692 297.439601 -2.43715 C 297.69481 -1.984025 297.75731 -1.5309 297.63231 -1.06215 C 296.970851 1.557642 296.158351 5.0941 295.19481 9.547225 C 294.246893 13.979517 293.194809 19.052434 292.038559 24.760768 C 290.897934 30.448268 289.700018 36.50556 288.444809 42.937852 C 287.189601 49.349311 285.944809 55.812853 284.705226 62.318062 C 289.304184 60.937853 293.522934 59.677437 297.366685 58.536812 C 301.220852 57.375353 304.543768 56.338895 307.31981 55.422228 C 307.772935 55.281603 308.246894 55.328478 308.741685 55.568061 C 309.241685 55.79202 309.554185 56.140978 309.684394 56.60452 Z M 341.189604 74.469104 C 341.637521 74.807646 341.892729 75.239938 341.960437 75.771188 C 342.038562 76.286813 341.908354 76.745146 341.575021 77.146188 C 339.871895 79.318063 337.877104 81.260771 335.595854 82.979521 C 333.330228 84.682646 330.955228 85.948272 328.48127 86.76598 C 326.022936 87.583688 323.63752 87.729522 321.319811 87.198272 C 320.403144 89.51598 319.106269 91.29723 317.418769 92.552439 C 315.746894 93.792022 314.059394 94.406605 312.351061 94.406605 C 312.351061 94.406605 312.335436 94.406605 312.304186 94.406605 C 312.272936 94.406605 312.257311 94.406605 312.257311 94.406605 C 310.470852 94.344105 308.908352 93.739939 307.554185 92.599314 C 306.205227 91.443063 305.267727 89.844105 304.736477 87.802438 C 304.142727 85.505563 304.043768 83.318063 304.44481 81.245146 C 304.845852 79.172229 305.56981 77.349313 306.616685 75.771188 C 307.673977 74.182646 308.866685 72.958687 310.184394 72.109729 C 310.63231 71.771187 311.158352 71.708687 311.752102 71.917021 C 312.345852 70.453479 313.179186 69.328479 314.257311 68.54202 C 315.351061 67.750354 316.491686 67.453479 317.679186 67.646187 C 318.403144 67.79202 319.194811 68.245145 320.043769 69.000354 C 320.897936 69.755562 321.585436 71.104521 322.116686 73.047229 C 322.647936 74.995146 322.814603 77.838896 322.621894 81.583688 C 322.559394 82.239938 322.455228 82.901396 322.309394 83.557646 C 324.095853 83.880563 325.976061 83.682646 327.95002 82.958688 C 329.929187 82.23473 331.835437 81.130563 333.663562 79.656604 C 335.51252 78.177438 337.127104 76.542021 338.51252 74.760771 C 338.851062 74.375354 339.272937 74.151396 339.788562 74.083687 C 340.319812 74.021187 340.783354 74.151396 341.189604 74.469104 Z M 312.351061 90.573272 C 313.205227 90.573272 314.153144 90.182647 315.200019 89.396188 C 316.257311 88.588897 317.116686 87.401397 317.778144 85.82848 C 315.413561 84.505563 313.720852 82.995146 312.689602 81.292021 C 311.679185 79.573271 311.13231 77.859729 311.048977 76.156604 C 309.668769 77.474313 308.762519 79.156604 308.325019 81.198271 C 307.908352 83.239938 307.934394 85.07848 308.397935 86.719105 C 308.590644 87.443063 308.986477 88.271188 309.580227 89.20348 C 310.173977 90.114938 311.10106 90.573272 312.351061 90.573272 Z M 318.767728 81.39098 C 318.892728 78.755563 318.840644 76.713896 318.595853 75.265979 C 318.371894 73.818062 318.101061 72.833687 317.778144 72.302437 C 317.455227 71.771187 317.220852 71.474312 317.080227 71.406604 C 317.012519 71.406604 316.981269 71.406604 316.981269 71.406604 C 316.788561 71.406604 316.491686 71.609729 316.090644 72.010771 C 315.705227 72.396187 315.377102 72.984729 315.101061 73.771187 C 314.715644 75.026396 314.746894 76.401396 315.200019 77.896188 C 315.663561 79.375354 316.856269 80.729521 318.767728 81.969105 C 318.767728 81.776396 318.767728 81.583688 318.767728 81.39098 Z M 397.569816 73.771187 C 397.892732 74.109729 398.069816 74.542021 398.101066 75.073271 C 398.132316 75.588896 397.955232 76.047229 397.569816 76.448271 C 394.470857 79.614938 391.319815 81.823271 388.121898 83.07848 C 384.939606 84.312855 381.996898 84.542021 379.298981 83.750355 C 378.106273 83.364938 376.856273 82.713896 375.538564 81.802438 C 374.236481 80.870146 373.085439 79.411813 372.090647 77.437854 C 371.106272 81.114938 369.991689 84.635771 368.73648 87.995147 C 367.356272 91.630564 366.116689 94.312855 365.022939 96.04723 C 363.950022 97.802439 362.976063 98.948272 362.106272 99.495147 C 361.257313 100.057647 360.502105 100.338897 359.840647 100.338897 C 358.653147 100.338897 357.726063 99.896189 357.069813 99.015981 C 356.42398 98.130564 355.934396 97.156605 355.595855 96.094105 C 355.278146 95.052439 355.043771 94.229522 354.897938 93.635772 C 354.70523 92.510772 354.543771 91.193063 354.418771 89.682647 C 352.184396 93.17223 350.392729 95.781605 349.038563 97.521189 C 347.689604 99.271189 346.486479 100.635772 345.423979 101.614939 C 344.569812 102.484731 343.783354 103.062856 343.059396 103.354523 C 342.340646 103.656606 341.679187 103.812856 341.085437 103.812856 C 340.616687 103.812856 340.184395 103.739939 339.783354 103.594106 C 339.397937 103.463898 339.10627 103.302439 338.913562 103.109731 C 337.257312 102.052439 336.272937 99.776397 335.95002 96.286814 C 335.611479 92.802439 335.908354 88.526397 336.840645 83.463896 C 337.757312 78.385771 339.267729 72.885771 341.371896 66.974312 C 341.580229 66.505562 341.913562 66.161812 342.361479 65.937854 C 342.830229 65.693062 343.325021 65.677437 343.856271 65.88577 C 344.309396 66.015979 344.642729 66.328479 344.871896 66.828479 C 345.111479 67.312854 345.132312 67.786812 344.939604 68.250354 C 342.564604 74.838896 341.028146 80.427438 340.335437 85.005563 C 339.647937 89.573272 339.429187 93.104522 339.684395 95.614939 C 339.960437 98.104522 340.392729 99.552439 340.986479 99.953481 C 341.246896 100.146189 341.871896 99.786814 342.866687 98.870147 C 343.658354 98.146189 344.522937 97.17223 345.470854 95.95348 C 346.434396 94.729522 347.627104 93.068064 349.038563 90.958688 C 350.455229 88.854522 352.246896 86.088897 354.418771 82.667021 C 354.882313 81.880563 355.575021 81.614938 356.491688 81.870146 C 357.408355 82.146188 357.866688 82.771188 357.866688 83.750355 C 357.866688 84.943063 357.929188 86.396188 358.059397 88.114938 C 358.200022 89.818063 358.403147 91.427438 358.658355 92.937855 C 358.918772 94.062855 359.14273 94.89098 359.335438 95.42223 C 359.543772 95.937855 359.710438 96.286814 359.840647 96.48473 C 360.502105 96.094105 361.304188 94.989939 362.252105 93.156605 C 363.215647 91.307647 364.20523 89.062855 365.215647 86.427438 C 366.246897 83.792021 367.168772 81.026396 367.991689 78.135771 C 368.809397 75.224313 369.387522 72.526396 369.726064 70.036812 C 369.918772 68.974312 370.543772 68.443062 371.606272 68.443062 C 372.653147 68.380562 373.267731 68.875354 373.460439 69.937854 C 374.585439 75.661813 376.892731 79.052438 380.382315 80.109729 C 382.356273 80.693063 384.632315 80.427438 387.205232 79.318063 C 389.778148 78.193063 392.340649 76.344104 394.89794 73.771187 C 395.231274 73.385771 395.658357 73.193062 396.173982 73.193062 C 396.705232 73.193062 397.168774 73.385771 397.569816 73.771187 Z M 426.590651 73.989937 C 427.054192 74.245146 427.319817 74.640979 427.387526 75.172229 C 427.450026 75.698271 427.351067 76.156604 427.095859 76.542021 C 423.205234 81.943063 419.647942 86.406605 416.413567 89.92223 C 413.200025 93.443064 409.976066 96.35973 406.746899 98.677439 C 404.319816 100.380564 401.918774 101.229522 399.538566 101.229522 C 397.689607 101.229522 396.075024 100.739939 394.694815 99.760772 C 393.778149 99.104522 392.877107 97.927439 391.99169 96.239939 C 391.111482 94.568064 390.637523 92.135772 390.569815 88.937855 C 390.49169 85.739938 391.278148 81.542021 392.934399 76.349313 C 392.934399 76.349313 392.934399 76.318063 392.934399 76.255563 C 394.908357 69.937854 397.226065 65.114937 399.877107 61.79202 C 402.543774 58.463895 404.835441 56.765978 406.746899 56.703478 C 408.257316 56.63577 409.2469 57.297228 409.71565 58.677437 C 410.4344 60.578478 409.575025 63.29202 407.132316 66.828479 C 404.705233 70.349312 401.121899 74.083687 396.382315 78.036813 C 394.934399 82.635771 394.24169 86.23473 394.309399 88.838897 C 394.371899 91.443063 394.731274 93.323272 395.392732 94.479522 C 396.05419 95.620147 396.580232 96.35973 396.986482 96.698272 C 398.960441 98.146189 401.491691 97.750356 404.580233 95.51598 C 407.601066 93.396189 410.65315 90.646188 413.741691 87.271188 C 416.84065 83.880563 420.241692 79.583688 423.939609 74.375354 C 424.257317 73.974312 424.6844 73.724312 425.21565 73.625354 C 425.7469 73.531604 426.205234 73.651396 426.590651 73.989937 Z M 406.048983 60.849312 C 405.325024 61.297228 404.335441 62.271187 403.085441 63.765979 C 401.845857 65.245145 400.569816 67.401395 399.252107 70.229521 C 401.611482 67.927437 403.283358 65.974312 404.262524 64.370145 C 405.262524 62.745145 405.856274 61.57327 406.048983 60.849312 Z M 450.986485 3.4691 C 451.840652 4.724308 451.856277 7.260767 451.03336 11.088892 C 450.215652 14.896184 448.517735 19.614934 445.950027 25.239935 C 443.392735 30.864935 439.97086 37.104519 435.679193 43.948269 C 435.611484 44.031602 435.548984 44.099311 435.486484 44.167019 C 433.778151 51.140978 432.085443 58.255562 430.397942 65.500354 C 428.726067 72.734729 427.127109 79.838896 425.601067 86.812855 C 424.09065 93.792022 422.71565 100.354522 421.476067 106.510773 C 420.220858 112.667023 419.15315 118.14619 418.272942 122.953482 C 417.3719 127.760774 416.726067 131.609732 416.34065 134.500358 C 416.408358 134.500358 416.470858 134.500358 416.533358 134.500358 C 417.048983 134.708691 417.429192 135.042024 417.668775 135.489941 C 417.892733 135.958691 417.908358 136.453483 417.71565 136.984733 C 417.252108 138.239941 416.77815 139.37015 416.293775 140.385775 C 415.793775 141.411816 415.1219 141.927441 414.267733 141.927441 C 414.0594 141.927441 413.825025 141.896191 413.569816 141.828483 C 412.976066 141.62015 412.548983 141.203483 412.293775 140.578483 C 412.017733 139.948275 411.986483 138.698275 412.194816 136.818066 C 412.387525 134.953483 412.814608 132.073274 413.470858 128.187857 C 414.647942 121.08369 416.423983 111.797231 418.798983 100.338897 C 420.502109 92.318064 422.298984 84.146188 424.179192 75.823271 C 426.059401 67.47952 427.913567 59.443062 429.746901 51.713895 C 431.595859 43.979519 433.377109 36.948269 435.101068 30.614935 C 435.418776 29.38056 435.908359 27.640976 436.569818 25.406601 C 437.226068 23.156601 437.981276 20.755559 438.835443 18.198268 C 439.705235 15.630559 440.65836 13.161809 441.705235 10.797225 C 442.767735 8.422225 443.851068 6.458684 444.960443 4.917017 C 446.085443 3.359725 447.210443 2.479517 448.335443 2.286808 C 449.444819 2.0941 450.325027 2.489933 450.986485 3.4691 Z M 438.955235 30.932643 C 442.106276 25.000351 444.325027 20.062851 445.611485 16.125351 C 446.897943 12.172226 447.637527 9.302434 447.830235 7.521184 C 446.913568 8.838892 445.65836 11.328475 444.06461 14.995142 C 442.491693 18.640976 440.788568 23.953476 438.955235 30.932643 Z M 465.996903 3.4691 C 466.845861 4.724308 466.866695 7.260767 466.043778 11.088892 C 465.226069 14.896184 463.528153 19.614934 460.955236 25.239935 C 458.403152 30.864935 454.976069 37.104519 450.68961 43.948269 C 450.621902 44.031602 450.559402 44.099311 450.496902 44.167019 C 448.788568 51.140978 447.09586 58.255562 445.40836 65.500354 C 443.736485 72.734729 442.137526 79.838896 440.611485 86.812855 C 439.101068 93.792022 437.726068 100.354522 436.486484 106.510773 C 435.231276 112.667023 434.163568 118.14619 433.278151 122.953482 C 432.382318 127.760774 431.736484 131.609732 431.351067 134.500358 C 431.413567 134.500358 431.481276 134.500358 431.543776 134.500358 C 432.059401 134.708691 432.434401 135.042024 432.679193 135.489941 C 432.903151 135.958691 432.918776 136.453483 432.726068 136.984733 C 432.262526 138.239941 431.783359 139.37015 431.304192 140.385775 C 430.804192 141.411816 430.132317 141.927441 429.278151 141.927441 C 429.069817 141.927441 428.835442 141.896191 428.580234 141.828483 C 427.986484 141.62015 427.559401 141.203483 427.298984 140.578483 C 427.028151 139.948275 426.996901 138.698275 427.205234 136.818066 C 427.397942 134.953483 427.825026 132.073274 428.481276 128.187857 C 429.658359 121.08369 431.434401 111.797231 433.809401 100.338897 C 435.512526 92.318064 437.304193 84.146188 439.18961 75.823271 C 441.069818 67.47952 442.923985 59.443062 444.757318 51.713895 C 446.606277 43.979519 448.387527 36.948269 450.106277 30.614935 C 450.429194 29.38056 450.918777 27.640976 451.580235 25.406601 C 452.236485 23.156601 452.991694 20.755559 453.84586 18.198268 C 454.715652 15.630559 455.668777 13.161809 456.715652 10.797225 C 457.772944 8.422225 458.861486 6.458684 459.970861 4.917017 C 461.095861 3.359725 462.220861 2.479517 463.345861 2.286808 C 464.455236 2.0941 465.335444 2.489933 465.996903 3.4691 Z M 453.965652 30.932643 C 457.116694 25.000351 459.335444 20.062851 460.621903 16.125351 C 461.908361 12.172226 462.642736 9.302434 462.840653 7.521184 C 461.923986 8.838892 460.668778 11.328475 459.075027 14.995142 C 457.502111 18.640976 455.798986 23.953476 453.965652 30.932643 Z M 453.965652 30.932643 " stroke="#004aad" stroke-width="6.1723" stroke-opacity="1" stroke-miterlimit="4"/><g fill="#d9d9d9" fill-opacity="1"><g transform="translate(18.00625, 95.421608)"><g><path d="M 61.171875 -30.296875 C 63.097656 -27.921875 64.441406 -25.128906 65.203125 -21.921875 C 65.972656 -18.710938 66.144531 -15.289062 65.71875 -11.65625 C 65.300781 -8.03125 64.28125 -4.367188 62.65625 -0.671875 C 60.238281 4.910156 56.867188 9.773438 52.546875 13.921875 C 48.222656 18.066406 43.171875 21.375 37.390625 23.84375 C 31.617188 26.3125 25.328125 27.796875 18.515625 28.296875 C 18.515625 28.296875 18.488281 28.296875 18.4375 28.296875 C 17.550781 28.296875 17.082031 27.847656 17.03125 26.953125 C 16.976562 26.554688 17.085938 26.210938 17.359375 25.921875 C 17.640625 25.628906 17.953125 25.484375 18.296875 25.484375 C 24.765625 24.984375 30.722656 23.570312 36.171875 21.25 C 41.628906 18.9375 46.40625 15.828125 50.5 11.921875 C 54.601562 8.023438 57.789062 3.457031 60.0625 -1.78125 C 61.539062 -5.132812 62.476562 -8.460938 62.875 -11.765625 C 63.269531 -15.078125 63.132812 -18.164062 62.46875 -21.03125 C 61.800781 -23.894531 60.628906 -26.390625 58.953125 -28.515625 C 56.191406 -31.921875 52.390625 -33.945312 47.546875 -34.59375 C 45.472656 -32.414062 43.113281 -30.273438 40.46875 -28.171875 C 37.832031 -26.078125 35.164062 -24.164062 32.46875 -22.4375 C 29.78125 -20.707031 27.265625 -19.285156 24.921875 -18.171875 C 22.578125 -17.066406 20.613281 -16.414062 19.03125 -16.21875 C 17.945312 -10.882812 16.882812 -5.550781 15.84375 -0.21875 C 14.8125 5.113281 13.863281 10.148438 13 14.890625 C 12.132812 19.628906 11.40625 23.875 10.8125 27.625 C 10.21875 31.375 9.796875 34.382812 9.546875 36.65625 C 9.648438 36.414062 9.75 36.171875 9.84375 35.921875 C 10 35.523438 10.257812 35.253906 10.625 35.109375 C 11 34.960938 11.382812 34.960938 11.78125 35.109375 C 12.125 35.253906 12.367188 35.507812 12.515625 35.875 C 12.660156 36.25 12.660156 36.609375 12.515625 36.953125 C 11.722656 38.878906 11.039062 40.3125 10.46875 41.25 C 9.90625 42.1875 9.28125 42.65625 8.59375 42.65625 C 8.394531 42.65625 8.195312 42.609375 8 42.515625 C 7.65625 42.410156 7.347656 42.148438 7.078125 41.734375 C 6.804688 41.316406 6.65625 40.476562 6.625 39.21875 C 6.601562 37.957031 6.75 36.054688 7.0625 33.515625 C 7.382812 30.972656 7.914062 27.550781 8.65625 23.25 C 9.40625 18.957031 10.394531 13.523438 11.625 6.953125 C 12.863281 0.390625 14.421875 -7.554688 16.296875 -16.890625 C 16.046875 -17.085938 15.832031 -17.394531 15.65625 -17.8125 C 15.488281 -18.226562 15.476562 -18.785156 15.625 -19.484375 C 16.125 -21.253906 16.863281 -22.957031 17.84375 -24.59375 C 18.289062 -26.863281 18.757812 -29.195312 19.25 -31.59375 C 19.75 -33.988281 20.242188 -36.46875 20.734375 -39.03125 C 21.972656 -45.050781 23.125 -50.65625 24.1875 -55.84375 C 25.25 -61.03125 26.125 -65.523438 26.8125 -69.328125 C 24.488281 -68.734375 22.316406 -67.914062 20.296875 -66.875 C 14.859375 -64.257812 11.003906 -60.59375 8.734375 -55.875 C 6.460938 -51.164062 5.972656 -45.847656 7.265625 -39.921875 C 7.359375 -39.523438 7.289062 -39.164062 7.0625 -38.84375 C 6.84375 -38.519531 6.5625 -38.3125 6.21875 -38.21875 C 5.820312 -38.113281 5.453125 -38.171875 5.109375 -38.390625 C 4.765625 -38.617188 4.566406 -38.929688 4.515625 -39.328125 C 3.035156 -45.941406 3.566406 -51.878906 6.109375 -57.140625 C 8.648438 -62.398438 12.957031 -66.507812 19.03125 -69.46875 C 21.644531 -70.75 24.4375 -71.710938 27.40625 -72.359375 C 27.457031 -72.609375 27.503906 -72.84375 27.546875 -73.0625 C 27.597656 -73.28125 27.648438 -73.515625 27.703125 -73.765625 C 27.753906 -74.160156 27.9375 -74.46875 28.25 -74.6875 C 28.570312 -74.914062 28.929688 -74.976562 29.328125 -74.875 C 29.722656 -74.820312 30.03125 -74.632812 30.25 -74.3125 C 30.476562 -74 30.539062 -73.644531 30.4375 -73.25 C 30.4375 -73.195312 30.4375 -73.144531 30.4375 -73.09375 C 30.4375 -73.050781 30.4375 -73.003906 30.4375 -72.953125 C 33.75 -73.398438 37.007812 -73.4375 40.21875 -73.0625 C 43.425781 -72.6875 46.335938 -71.90625 48.953125 -70.71875 C 51.566406 -69.539062 53.691406 -67.960938 55.328125 -65.984375 C 57.203125 -63.765625 58.273438 -61.394531 58.546875 -58.875 C 58.816406 -56.363281 58.582031 -53.875 57.84375 -51.40625 C 57.101562 -48.9375 56.101562 -46.613281 54.84375 -44.4375 C 53.582031 -42.257812 52.359375 -40.382812 51.171875 -38.8125 C 50.773438 -38.21875 50.304688 -37.625 49.765625 -37.03125 C 54.554688 -36.039062 58.359375 -33.796875 61.171875 -30.296875 Z M 19.625 -19.1875 C 20.757812 -19.53125 22.238281 -20.144531 24.0625 -21.03125 C 25.894531 -21.914062 27.945312 -23.050781 30.21875 -24.4375 C 32.488281 -25.820312 34.796875 -27.378906 37.140625 -29.109375 C 39.484375 -30.835938 41.691406 -32.710938 43.765625 -34.734375 C 41.835938 -34.734375 39.816406 -34.507812 37.703125 -34.0625 C 35.628906 -33.664062 33.503906 -33.007812 31.328125 -32.09375 C 29.148438 -31.1875 27.125 -30.03125 25.25 -28.625 C 23.375 -27.21875 21.796875 -25.523438 20.515625 -23.546875 C 20.367188 -22.804688 20.21875 -22.078125 20.0625 -21.359375 C 19.914062 -20.648438 19.769531 -19.925781 19.625 -19.1875 Z M 46.4375 -37.546875 C 47.375 -38.535156 48.210938 -39.523438 48.953125 -40.515625 C 52.554688 -45.398438 54.726562 -49.863281 55.46875 -53.90625 C 56.207031 -57.957031 55.441406 -61.367188 53.171875 -64.140625 C 51.691406 -65.910156 49.726562 -67.316406 47.28125 -68.359375 C 44.84375 -69.398438 42.101562 -70.054688 39.0625 -70.328125 C 36.03125 -70.597656 32.957031 -70.460938 29.84375 -69.921875 C 29.15625 -66.117188 28.253906 -61.515625 27.140625 -56.109375 C 26.035156 -50.703125 24.835938 -44.835938 23.546875 -38.515625 C 23.253906 -37.035156 22.945312 -35.53125 22.625 -34 C 22.300781 -32.46875 21.992188 -30.910156 21.703125 -29.328125 C 23.628906 -31.148438 25.910156 -32.703125 28.546875 -33.984375 C 31.191406 -35.273438 34.066406 -36.242188 37.171875 -36.890625 C 40.429688 -37.523438 43.519531 -37.742188 46.4375 -37.546875 Z M 46.4375 -37.546875 "/></g></g></g><g fill="#d9d9d9" fill-opacity="1"><g transform="translate(90.513516, 95.421608)"><g><path d="M 32.515625 -16.8125 C 32.859375 -16.613281 33.101562 -16.328125 33.25 -15.953125 C 33.394531 -15.585938 33.375 -15.234375 33.1875 -14.890625 C 32.238281 -12.859375 31.085938 -10.582031 29.734375 -8.0625 C 28.378906 -5.550781 26.9375 -3.023438 25.40625 -0.484375 C 23.875 2.054688 22.316406 4.375 20.734375 6.46875 C 19.160156 8.570312 17.628906 10.273438 16.140625 11.578125 C 14.660156 12.890625 13.328125 13.546875 12.140625 13.546875 C 11.796875 13.546875 11.476562 13.472656 11.1875 13.328125 C 10.144531 12.929688 9.460938 11.992188 9.140625 10.515625 C 8.828125 9.035156 8.867188 6.910156 9.265625 4.140625 C 9.953125 -0.835938 11.773438 -7.894531 14.734375 -17.03125 C 14.691406 -17.03125 14.65625 -17.015625 14.625 -16.984375 C 14.601562 -16.960938 14.566406 -16.953125 14.515625 -16.953125 C 13.523438 -16.265625 12.335938 -15.550781 10.953125 -14.8125 C 9.578125 -14.070312 8.144531 -13.578125 6.65625 -13.328125 C 5.175781 -13.085938 3.769531 -13.410156 2.4375 -14.296875 C 0.5625 -15.628906 -0.394531 -17.476562 -0.4375 -19.84375 C -0.488281 -22.21875 0.394531 -24.8125 2.21875 -27.625 C 2.8125 -28.507812 3.585938 -29.492188 4.546875 -30.578125 C 5.515625 -31.671875 6.53125 -32.515625 7.59375 -33.109375 C 8.65625 -33.703125 9.601562 -33.726562 10.4375 -33.1875 C 10.882812 -32.9375 11.21875 -32.515625 11.4375 -31.921875 C 11.664062 -31.328125 11.65625 -30.410156 11.40625 -29.171875 C 11.15625 -27.941406 10.5625 -26.289062 9.625 -24.21875 C 8.6875 -22.144531 7.28125 -19.453125 5.40625 -16.140625 C 6.539062 -15.992188 7.8125 -16.316406 9.21875 -17.109375 C 10.625 -17.898438 11.875 -18.640625 12.96875 -19.328125 C 14 -20.023438 14.859375 -20.53125 15.546875 -20.84375 C 16.242188 -21.164062 16.890625 -21.101562 17.484375 -20.65625 C 18.023438 -20.21875 18.242188 -19.675781 18.140625 -19.03125 C 18.046875 -18.394531 17.945312 -17.898438 17.84375 -17.546875 C 16.21875 -12.410156 14.957031 -8.140625 14.0625 -4.734375 C 13.175781 -1.328125 12.570312 1.410156 12.25 3.484375 C 11.9375 5.554688 11.78125 7.109375 11.78125 8.140625 C 11.78125 9.179688 11.851562 9.863281 12 10.1875 C 12.144531 10.507812 12.21875 10.691406 12.21875 10.734375 C 12.8125 10.835938 14.03125 9.890625 15.875 7.890625 C 17.726562 5.890625 19.9375 2.878906 22.5 -1.140625 C 25.070312 -5.171875 27.769531 -10.148438 30.59375 -16.078125 C 30.789062 -16.472656 31.070312 -16.726562 31.4375 -16.84375 C 31.8125 -16.96875 32.171875 -16.957031 32.515625 -16.8125 Z M 2.671875 -21.84375 C 2.367188 -20.8125 2.28125 -19.960938 2.40625 -19.296875 C 2.53125 -18.628906 2.71875 -18.097656 2.96875 -17.703125 C 4.539062 -20.460938 5.734375 -22.707031 6.546875 -24.4375 C 7.367188 -26.164062 7.925781 -27.5 8.21875 -28.4375 C 8.519531 -29.375 8.691406 -30.039062 8.734375 -30.4375 C 8.191406 -30.144531 7.515625 -29.578125 6.703125 -28.734375 C 5.890625 -27.898438 5.097656 -26.890625 4.328125 -25.703125 C 3.566406 -24.515625 3.015625 -23.226562 2.671875 -21.84375 Z M 2.671875 -21.84375 "/></g></g></g><g fill="#d9d9d9" fill-opacity="1"><g transform="translate(120.064483, 95.421608)"><g><path d="M 25.03125 -16.515625 C 25.375 -16.316406 25.570312 -16.019531 25.625 -15.625 C 25.675781 -15.226562 25.601562 -14.882812 25.40625 -14.59375 C 22.488281 -10.539062 19.820312 -7.191406 17.40625 -4.546875 C 14.988281 -1.910156 12.566406 0.269531 10.140625 2 C 8.316406 3.28125 6.515625 3.921875 4.734375 3.921875 C 3.359375 3.921875 2.148438 3.550781 1.109375 2.8125 C 0.421875 2.320312 -0.253906 1.445312 -0.921875 0.1875 C -1.585938 -1.070312 -1.945312 -2.898438 -2 -5.296875 C -2.050781 -7.691406 -1.457031 -10.835938 -0.21875 -14.734375 C -0.21875 -14.734375 -0.21875 -14.757812 -0.21875 -14.8125 C 1.257812 -19.550781 3 -23.164062 5 -25.65625 C 7 -28.15625 8.710938 -29.429688 10.140625 -29.484375 C 11.273438 -29.523438 12.019531 -29.03125 12.375 -28 C 12.914062 -26.5625 12.269531 -24.519531 10.4375 -21.875 C 8.613281 -19.238281 5.925781 -16.441406 2.375 -13.484375 C 1.28125 -10.023438 0.757812 -7.316406 0.8125 -5.359375 C 0.863281 -3.410156 1.132812 -2.003906 1.625 -1.140625 C 2.125 -0.285156 2.519531 0.265625 2.8125 0.515625 C 4.289062 1.597656 6.191406 1.300781 8.515625 -0.375 C 10.785156 -1.945312 13.082031 -4.003906 15.40625 -6.546875 C 17.726562 -9.097656 20.269531 -12.320312 23.03125 -16.21875 C 23.28125 -16.519531 23.601562 -16.707031 24 -16.78125 C 24.394531 -16.851562 24.738281 -16.765625 25.03125 -16.515625 Z M 9.625 -26.359375 C 9.082031 -26.015625 8.34375 -25.285156 7.40625 -24.171875 C 6.46875 -23.066406 5.503906 -21.453125 4.515625 -19.328125 C 6.296875 -21.054688 7.554688 -22.523438 8.296875 -23.734375 C 9.035156 -24.941406 9.476562 -25.816406 9.625 -26.359375 Z M 9.625 -26.359375 "/></g></g></g><g fill="#d9d9d9" fill-opacity="1"><g transform="translate(141.616693, 95.421608)"><g><path d="M 62.515625 -43.703125 C 62.753906 -43.398438 62.847656 -43.050781 62.796875 -42.65625 C 62.753906 -42.257812 62.5625 -41.941406 62.21875 -41.703125 C 61.625 -41.304688 61.054688 -41.328125 60.515625 -41.765625 C 59.867188 -42.015625 58.394531 -42.1875 56.09375 -42.28125 C 53.800781 -42.382812 50.925781 -42.445312 47.46875 -42.46875 C 44.019531 -42.5 40.21875 -42.488281 36.0625 -42.4375 C 31.914062 -42.382812 27.65625 -42.320312 23.28125 -42.25 C 18.914062 -42.175781 14.6875 -42.09375 10.59375 -42 C 9.0625 -35.570312 7.457031 -28.59375 5.78125 -21.0625 C 4.101562 -13.539062 2.445312 -5.898438 0.8125 1.859375 C -1.3125 12.023438 -2.953125 20.363281 -4.109375 26.875 C -5.265625 33.394531 -6.019531 38.113281 -6.375 41.03125 C -6.269531 41.03125 -6.171875 41.054688 -6.078125 41.109375 C -5.679688 41.203125 -5.40625 41.429688 -5.25 41.796875 C -5.101562 42.171875 -5.109375 42.53125 -5.265625 42.875 C -5.554688 43.71875 -5.882812 44.5 -6.25 45.21875 C -6.625 45.9375 -7.132812 46.296875 -7.78125 46.296875 C -7.925781 46.296875 -8.097656 46.269531 -8.296875 46.21875 C -8.984375 45.96875 -9.363281 45.4375 -9.4375 44.625 C -9.507812 43.8125 -9.453125 42.6875 -9.265625 41.25 C -9.066406 39.175781 -8.617188 36.191406 -7.921875 32.296875 C -7.328125 28.640625 -6.5625 24.363281 -5.625 19.46875 C -4.6875 14.582031 -3.601562 9.226562 -2.375 3.40625 C -0.738281 -4.488281 0.941406 -12.335938 2.671875 -20.140625 C 4.398438 -27.941406 6.050781 -35.203125 7.625 -41.921875 C 5.257812 -41.867188 3.015625 -41.816406 0.890625 -41.765625 C -1.234375 -41.722656 -3.160156 -41.675781 -4.890625 -41.625 C -8.191406 -41.519531 -11.078125 -41.441406 -13.546875 -41.390625 C -16.015625 -41.347656 -17.769531 -41.328125 -18.8125 -41.328125 C -19.207031 -41.328125 -19.539062 -41.460938 -19.8125 -41.734375 C -20.082031 -42.003906 -20.21875 -42.335938 -20.21875 -42.734375 C -20.21875 -43.128906 -20.082031 -43.460938 -19.8125 -43.734375 C -19.539062 -44.003906 -19.207031 -44.140625 -18.8125 -44.140625 C -17.769531 -44.140625 -16.023438 -44.175781 -13.578125 -44.25 C -11.140625 -44.320312 -8.269531 -44.410156 -4.96875 -44.515625 C -2.59375 -44.554688 -0.296875 -44.601562 1.921875 -44.65625 C 4.148438 -44.707031 6.300781 -44.757812 8.375 -44.8125 C 9.113281 -47.96875 9.835938 -50.941406 10.546875 -53.734375 C 11.265625 -56.523438 11.945312 -59.078125 12.59375 -61.390625 C 12.6875 -61.785156 12.90625 -62.082031 13.25 -62.28125 C 13.601562 -62.476562 13.953125 -62.53125 14.296875 -62.4375 C 14.691406 -62.332031 14.988281 -62.109375 15.1875 -61.765625 C 15.382812 -61.421875 15.429688 -61.050781 15.328125 -60.65625 C 14.140625 -56.257812 12.78125 -51 11.25 -44.875 C 18.957031 -45.03125 25.550781 -45.144531 31.03125 -45.21875 C 36.507812 -45.289062 41.097656 -45.328125 44.796875 -45.328125 C 48.503906 -45.328125 51.503906 -45.273438 53.796875 -45.171875 C 56.097656 -45.078125 57.84375 -44.96875 59.03125 -44.84375 C 60.21875 -44.71875 61.054688 -44.554688 61.546875 -44.359375 C 62.035156 -44.160156 62.359375 -43.941406 62.515625 -43.703125 Z M 62.515625 -43.703125 "/></g></g></g><g fill="#d9d9d9" fill-opacity="1"><g transform="translate(151.467011, 95.421608)"><g><path d="M 62.515625 -43.703125 C 62.753906 -43.398438 62.847656 -43.050781 62.796875 -42.65625 C 62.753906 -42.257812 62.5625 -41.941406 62.21875 -41.703125 C 61.625 -41.304688 61.054688 -41.328125 60.515625 -41.765625 C 59.867188 -42.015625 58.394531 -42.1875 56.09375 -42.28125 C 53.800781 -42.382812 50.925781 -42.445312 47.46875 -42.46875 C 44.019531 -42.5 40.21875 -42.488281 36.0625 -42.4375 C 31.914062 -42.382812 27.65625 -42.320312 23.28125 -42.25 C 18.914062 -42.175781 14.6875 -42.09375 10.59375 -42 C 9.0625 -35.570312 7.457031 -28.59375 5.78125 -21.0625 C 4.101562 -13.539062 2.445312 -5.898438 0.8125 1.859375 C -1.3125 12.023438 -2.953125 20.363281 -4.109375 26.875 C -5.265625 33.394531 -6.019531 38.113281 -6.375 41.03125 C -6.269531 41.03125 -6.171875 41.054688 -6.078125 41.109375 C -5.679688 41.203125 -5.40625 41.429688 -5.25 41.796875 C -5.101562 42.171875 -5.109375 42.53125 -5.265625 42.875 C -5.554688 43.71875 -5.882812 44.5 -6.25 45.21875 C -6.625 45.9375 -7.132812 46.296875 -7.78125 46.296875 C -7.925781 46.296875 -8.097656 46.269531 -8.296875 46.21875 C -8.984375 45.96875 -9.363281 45.4375 -9.4375 44.625 C -9.507812 43.8125 -9.453125 42.6875 -9.265625 41.25 C -9.066406 39.175781 -8.617188 36.191406 -7.921875 32.296875 C -7.328125 28.640625 -6.5625 24.363281 -5.625 19.46875 C -4.6875 14.582031 -3.601562 9.226562 -2.375 3.40625 C -0.738281 -4.488281 0.941406 -12.335938 2.671875 -20.140625 C 4.398438 -27.941406 6.050781 -35.203125 7.625 -41.921875 C 5.257812 -41.867188 3.015625 -41.816406 0.890625 -41.765625 C -1.234375 -41.722656 -3.160156 -41.675781 -4.890625 -41.625 C -8.191406 -41.519531 -11.078125 -41.441406 -13.546875 -41.390625 C -16.015625 -41.347656 -17.769531 -41.328125 -18.8125 -41.328125 C -19.207031 -41.328125 -19.539062 -41.460938 -19.8125 -41.734375 C -20.082031 -42.003906 -20.21875 -42.335938 -20.21875 -42.734375 C -20.21875 -43.128906 -20.082031 -43.460938 -19.8125 -43.734375 C -19.539062 -44.003906 -19.207031 -44.140625 -18.8125 -44.140625 C -17.769531 -44.140625 -16.023438 -44.175781 -13.578125 -44.25 C -11.140625 -44.320312 -8.269531 -44.410156 -4.96875 -44.515625 C -2.59375 -44.554688 -0.296875 -44.601562 1.921875 -44.65625 C 4.148438 -44.707031 6.300781 -44.757812 8.375 -44.8125 C 9.113281 -47.96875 9.835938 -50.941406 10.546875 -53.734375 C 11.265625 -56.523438 11.945312 -59.078125 12.59375 -61.390625 C 12.6875 -61.785156 12.90625 -62.082031 13.25 -62.28125 C 13.601562 -62.476562 13.953125 -62.53125 14.296875 -62.4375 C 14.691406 -62.332031 14.988281 -62.109375 15.1875 -61.765625 C 15.382812 -61.421875 15.429688 -61.050781 15.328125 -60.65625 C 14.140625 -56.257812 12.78125 -51 11.25 -44.875 C 18.957031 -45.03125 25.550781 -45.144531 31.03125 -45.21875 C 36.507812 -45.289062 41.097656 -45.328125 44.796875 -45.328125 C 48.503906 -45.328125 51.503906 -45.273438 53.796875 -45.171875 C 56.097656 -45.078125 57.84375 -44.96875 59.03125 -44.84375 C 60.21875 -44.71875 61.054688 -44.554688 61.546875 -44.359375 C 62.035156 -44.160156 62.359375 -43.941406 62.515625 -43.703125 Z M 62.515625 -43.703125 "/></g></g></g><g fill="#d9d9d9" fill-opacity="1"><g transform="translate(161.317329, 95.421608)"><g/></g></g><g fill="#d9d9d9" fill-opacity="1"><g transform="translate(184.054541, 95.421608)"><g><path d="M 66.21875 -29.546875 C 66.3125 -29.148438 66.269531 -28.78125 66.09375 -28.4375 C 65.925781 -28.09375 65.671875 -27.847656 65.328125 -27.703125 C 63.054688 -27.003906 60.351562 -26.175781 57.21875 -25.21875 C 54.082031 -24.257812 50.632812 -23.210938 46.875 -22.078125 C 46.382812 -19.359375 45.878906 -16.664062 45.359375 -14 C 44.835938 -11.332031 44.359375 -8.738281 43.921875 -6.21875 C 42.734375 -0.0507812 41.691406 5.347656 40.796875 9.984375 C 39.910156 14.628906 39.25 17.992188 38.8125 20.078125 C 38.664062 20.816406 38.195312 21.1875 37.40625 21.1875 C 37.300781 21.1875 37.203125 21.1875 37.109375 21.1875 C 36.765625 21.082031 36.476562 20.867188 36.25 20.546875 C 36.03125 20.234375 35.96875 19.878906 36.0625 19.484375 C 36.3125 18.097656 36.695312 16.109375 37.21875 13.515625 C 37.738281 10.921875 38.332031 7.882812 39 4.40625 C 39.664062 0.925781 40.367188 -2.785156 41.109375 -6.734375 C 41.546875 -9.003906 41.988281 -11.347656 42.4375 -13.765625 C 42.882812 -16.191406 43.351562 -18.664062 43.84375 -21.1875 C 43.789062 -21.132812 43.753906 -21.109375 43.734375 -21.109375 C 43.710938 -21.109375 43.675781 -21.109375 43.625 -21.109375 C 38.9375 -19.671875 33.9375 -18.148438 28.625 -16.546875 C 23.3125 -14.941406 18.066406 -13.328125 12.890625 -11.703125 C 11.109375 -3.210938 9.625 4.066406 8.4375 10.140625 C 7.257812 16.210938 6.285156 21.285156 5.515625 25.359375 C 4.753906 29.441406 4.160156 32.71875 3.734375 35.1875 C 3.316406 37.65625 3.007812 39.53125 2.8125 40.8125 C 3.65625 41.15625 3.925781 41.75 3.625 42.59375 C 3.382812 43.375 3.101562 44.070312 2.78125 44.6875 C 2.457031 45.3125 2 45.625 1.40625 45.625 C 1.257812 45.625 1.085938 45.597656 0.890625 45.546875 C 0.148438 45.347656 -0.226562 44.828125 -0.25 43.984375 C -0.28125 43.148438 -0.171875 41.921875 0.078125 40.296875 C 0.367188 38.023438 0.882812 34.789062 1.625 30.59375 C 2.957031 23.332031 4.929688 13.207031 7.546875 0.21875 C 7.898438 -1.550781 8.257812 -3.363281 8.625 -5.21875 C 9 -7.070312 9.382812 -8.910156 9.78125 -10.734375 C 7.75 -10.097656 5.769531 -9.46875 3.84375 -8.84375 C 1.925781 -8.226562 0.0507812 -7.601562 -1.78125 -6.96875 C -7.457031 -5.082031 -11.972656 -3.507812 -15.328125 -2.25 C -18.691406 -1 -21.210938 0.00390625 -22.890625 0.765625 C -24.566406 1.535156 -25.722656 2.144531 -26.359375 2.59375 C -25.867188 2.9375 -25.675781 3.40625 -25.78125 4 C -25.925781 4.789062 -26.394531 5.1875 -27.1875 5.1875 C -27.28125 5.1875 -27.378906 5.160156 -27.484375 5.109375 C -28.460938 4.910156 -29.113281 4.601562 -29.4375 4.1875 C -29.757812 3.769531 -29.945312 3.363281 -30 2.96875 C -30 2.46875 -29.8125 1.96875 -29.4375 1.46875 C -29.070312 0.976562 -28.320312 0.398438 -27.1875 -0.265625 C -26.050781 -0.929688 -24.367188 -1.734375 -22.140625 -2.671875 C -17.992188 -4.398438 -12.046875 -6.570312 -4.296875 -9.1875 C -1.972656 -9.925781 0.40625 -10.691406 2.84375 -11.484375 C 5.289062 -12.273438 7.800781 -13.085938 10.375 -13.921875 C 11.3125 -18.460938 12.222656 -22.878906 13.109375 -27.171875 C 13.992188 -31.472656 14.832031 -35.488281 15.625 -39.21875 C 16.414062 -42.945312 17.109375 -46.226562 17.703125 -49.0625 C 18.296875 -51.90625 18.765625 -54.140625 19.109375 -55.765625 L 19.484375 -57.25 C 19.921875 -59.375 20.128906 -60.941406 20.109375 -61.953125 C 20.085938 -62.960938 20 -63.628906 19.84375 -63.953125 C 19.695312 -64.273438 19.625 -64.4375 19.625 -64.4375 C 19.53125 -64.488281 19.195312 -64.425781 18.625 -64.25 C 18.0625 -64.070312 17.1875 -63.46875 16 -62.4375 C 14.269531 -60.957031 12.453125 -58.957031 10.546875 -56.4375 C 8.648438 -53.914062 6.960938 -51.296875 5.484375 -48.578125 C 3.898438 -45.617188 2.800781 -42.96875 2.1875 -40.625 C 1.570312 -38.28125 1.507812 -36.488281 2 -35.25 C 2.09375 -35.007812 2.398438 -34.628906 2.921875 -34.109375 C 3.441406 -33.585938 4.539062 -33.375 6.21875 -33.46875 C 6.613281 -33.519531 6.957031 -33.410156 7.25 -33.140625 C 7.550781 -32.867188 7.726562 -32.535156 7.78125 -32.140625 C 7.78125 -31.742188 7.65625 -31.394531 7.40625 -31.09375 C 7.15625 -30.800781 6.832031 -30.65625 6.4375 -30.65625 C 4.164062 -30.507812 2.507812 -30.84375 1.46875 -31.65625 C 0.4375 -32.476562 -0.273438 -33.332031 -0.671875 -34.21875 C -1.265625 -35.695312 -1.363281 -37.5 -0.96875 -39.625 C -0.570312 -41.75 0.15625 -44.007812 1.21875 -46.40625 C 2.28125 -48.800781 3.550781 -51.15625 5.03125 -53.46875 C 6.519531 -55.789062 8.066406 -57.925781 9.671875 -59.875 C 11.273438 -61.832031 12.742188 -63.398438 14.078125 -64.578125 C 17.035156 -67.148438 19.351562 -67.914062 21.03125 -66.875 C 23.0625 -65.6875 23.457031 -62.304688 22.21875 -56.734375 L 21.921875 -55.171875 C 20.242188 -47.273438 18.710938 -39.976562 17.328125 -33.28125 C 15.941406 -26.59375 14.660156 -20.460938 13.484375 -14.890625 C 18.460938 -16.421875 23.46875 -17.953125 28.5 -19.484375 C 33.539062 -21.015625 38.3125 -22.46875 42.8125 -23.84375 C 43.050781 -23.894531 43.304688 -23.96875 43.578125 -24.0625 C 43.859375 -24.164062 44.144531 -24.242188 44.4375 -24.296875 C 45.375 -29.328125 46.320312 -34.320312 47.28125 -39.28125 C 48.25 -44.25 49.175781 -48.953125 50.0625 -53.390625 C 50.957031 -57.835938 51.785156 -61.789062 52.546875 -65.25 C 53.316406 -68.707031 53.945312 -71.445312 54.4375 -73.46875 C 54.53125 -73.863281 54.75 -74.160156 55.09375 -74.359375 C 55.445312 -74.554688 55.796875 -74.601562 56.140625 -74.5 C 56.535156 -74.40625 56.832031 -74.1875 57.03125 -73.84375 C 57.226562 -73.5 57.273438 -73.148438 57.171875 -72.796875 C 56.679688 -70.828125 56.078125 -68.175781 55.359375 -64.84375 C 54.640625 -61.507812 53.847656 -57.707031 52.984375 -53.4375 C 52.128906 -49.164062 51.226562 -44.625 50.28125 -39.8125 C 49.34375 -35 48.40625 -30.144531 47.46875 -25.25 C 50.925781 -26.289062 54.097656 -27.242188 56.984375 -28.109375 C 59.878906 -28.972656 62.363281 -29.75 64.4375 -30.4375 C 64.78125 -30.539062 65.132812 -30.503906 65.5 -30.328125 C 65.875 -30.148438 66.113281 -29.890625 66.21875 -29.546875 Z M 66.21875 -29.546875 "/></g></g></g><g fill="#d9d9d9" fill-opacity="1"><g transform="translate(247.081797, 95.421608)"><g><path d="M 26.8125 -16.140625 C 27.15625 -15.898438 27.351562 -15.582031 27.40625 -15.1875 C 27.457031 -14.789062 27.359375 -14.441406 27.109375 -14.140625 C 25.828125 -12.515625 24.332031 -11.054688 22.625 -9.765625 C 20.925781 -8.484375 19.148438 -7.535156 17.296875 -6.921875 C 15.441406 -6.304688 13.648438 -6.195312 11.921875 -6.59375 C 11.234375 -4.863281 10.257812 -3.53125 9 -2.59375 C 7.738281 -1.65625 6.46875 -1.1875 5.1875 -1.1875 C 5.1875 -1.1875 5.171875 -1.1875 5.140625 -1.1875 C 5.117188 -1.1875 5.109375 -1.1875 5.109375 -1.1875 C 3.773438 -1.238281 2.601562 -1.691406 1.59375 -2.546875 C 0.582031 -3.410156 -0.117188 -4.609375 -0.515625 -6.140625 C -0.960938 -7.867188 -1.035156 -9.507812 -0.734375 -11.0625 C -0.441406 -12.625 0.0976562 -13.992188 0.890625 -15.171875 C 1.679688 -16.359375 2.570312 -17.273438 3.5625 -17.921875 C 3.90625 -18.171875 4.296875 -18.222656 4.734375 -18.078125 C 5.179688 -19.160156 5.8125 -20 6.625 -20.59375 C 7.4375 -21.1875 8.289062 -21.40625 9.1875 -21.25 C 9.726562 -21.15625 10.316406 -20.820312 10.953125 -20.25 C 11.597656 -19.6875 12.117188 -18.675781 12.515625 -17.21875 C 12.910156 -15.757812 13.035156 -13.625 12.890625 -10.8125 C 12.835938 -10.320312 12.765625 -9.828125 12.671875 -9.328125 C 14.003906 -9.085938 15.410156 -9.238281 16.890625 -9.78125 C 18.367188 -10.320312 19.796875 -11.144531 21.171875 -12.25 C 22.554688 -13.363281 23.769531 -14.585938 24.8125 -15.921875 C 25.0625 -16.222656 25.378906 -16.394531 25.765625 -16.4375 C 26.160156 -16.488281 26.507812 -16.390625 26.8125 -16.140625 Z M 5.1875 -4.078125 C 5.820312 -4.078125 6.535156 -4.367188 7.328125 -4.953125 C 8.117188 -5.546875 8.765625 -6.4375 9.265625 -7.625 C 7.484375 -8.613281 6.207031 -9.75 5.4375 -11.03125 C 4.675781 -12.320312 4.269531 -13.609375 4.21875 -14.890625 C 3.1875 -13.898438 2.507812 -12.640625 2.1875 -11.109375 C 1.863281 -9.578125 1.875 -8.195312 2.21875 -6.96875 C 2.363281 -6.414062 2.660156 -5.796875 3.109375 -5.109375 C 3.554688 -4.421875 4.25 -4.078125 5.1875 -4.078125 Z M 10 -10.96875 C 10.09375 -12.9375 10.050781 -14.460938 9.875 -15.546875 C 9.707031 -16.640625 9.5 -17.382812 9.25 -17.78125 C 9.007812 -18.175781 8.835938 -18.394531 8.734375 -18.4375 C 8.691406 -18.4375 8.671875 -18.4375 8.671875 -18.4375 C 8.515625 -18.4375 8.285156 -18.285156 7.984375 -17.984375 C 7.691406 -17.691406 7.453125 -17.253906 7.265625 -16.671875 C 6.960938 -15.722656 6.984375 -14.691406 7.328125 -13.578125 C 7.671875 -12.472656 8.5625 -11.453125 10 -10.515625 C 10 -10.660156 10 -10.8125 10 -10.96875 Z M 10 -10.96875 "/></g></g></g><g fill="#d9d9d9" fill-opacity="1"><g transform="translate(270.781823, 95.421608)"><g><path d="M 45.40625 -16.671875 C 45.644531 -16.421875 45.773438 -16.097656 45.796875 -15.703125 C 45.828125 -15.304688 45.695312 -14.960938 45.40625 -14.671875 C 43.082031 -12.296875 40.722656 -10.640625 38.328125 -9.703125 C 35.929688 -8.765625 33.722656 -8.59375 31.703125 -9.1875 C 30.804688 -9.476562 29.863281 -9.96875 28.875 -10.65625 C 27.894531 -11.351562 27.035156 -12.441406 26.296875 -13.921875 C 25.554688 -11.160156 24.71875 -8.519531 23.78125 -6 C 22.738281 -3.28125 21.8125 -1.269531 21 0.03125 C 20.1875 1.34375 19.457031 2.207031 18.8125 2.625 C 18.164062 3.050781 17.597656 3.265625 17.109375 3.265625 C 16.222656 3.265625 15.53125 2.929688 15.03125 2.265625 C 14.539062 1.597656 14.171875 0.867188 13.921875 0.078125 C 13.671875 -0.710938 13.5 -1.332031 13.40625 -1.78125 C 13.257812 -2.613281 13.132812 -3.597656 13.03125 -4.734375 C 11.351562 -2.117188 10.007812 -0.160156 9 1.140625 C 7.988281 2.453125 7.085938 3.476562 6.296875 4.21875 C 5.648438 4.863281 5.054688 5.296875 4.515625 5.515625 C 3.972656 5.734375 3.476562 5.84375 3.03125 5.84375 C 2.6875 5.84375 2.363281 5.796875 2.0625 5.703125 C 1.769531 5.609375 1.550781 5.484375 1.40625 5.328125 C 0.175781 4.535156 -0.5625 2.832031 -0.8125 0.21875 C -1.0625 -2.394531 -0.835938 -5.601562 -0.140625 -9.40625 C 0.546875 -13.207031 1.679688 -17.332031 3.265625 -21.78125 C 3.410156 -22.125 3.65625 -22.378906 4 -22.546875 C 4.34375 -22.722656 4.710938 -22.738281 5.109375 -22.59375 C 5.453125 -22.488281 5.707031 -22.25 5.875 -21.875 C 6.050781 -21.507812 6.066406 -21.15625 5.921875 -20.8125 C 4.148438 -15.875 3.003906 -11.6875 2.484375 -8.25 C 1.960938 -4.820312 1.800781 -2.171875 2 -0.296875 C 2.195312 1.578125 2.519531 2.664062 2.96875 2.96875 C 3.164062 3.113281 3.632812 2.835938 4.375 2.140625 C 4.96875 1.597656 5.617188 0.875 6.328125 -0.03125 C 7.046875 -0.945312 7.9375 -2.191406 9 -3.765625 C 10.0625 -5.347656 11.40625 -7.425781 13.03125 -10 C 13.375 -10.59375 13.894531 -10.789062 14.59375 -10.59375 C 15.28125 -10.394531 15.625 -9.925781 15.625 -9.1875 C 15.625 -8.289062 15.671875 -7.203125 15.765625 -5.921875 C 15.867188 -4.640625 16.019531 -3.429688 16.21875 -2.296875 C 16.414062 -1.453125 16.585938 -0.832031 16.734375 -0.4375 C 16.878906 -0.0507812 17.003906 0.21875 17.109375 0.375 C 17.597656 0.0703125 18.203125 -0.765625 18.921875 -2.140625 C 19.640625 -3.523438 20.378906 -5.203125 21.140625 -7.171875 C 21.910156 -9.148438 22.601562 -11.226562 23.21875 -13.40625 C 23.832031 -15.582031 24.265625 -17.609375 24.515625 -19.484375 C 24.660156 -20.265625 25.128906 -20.65625 25.921875 -20.65625 C 26.710938 -20.707031 27.179688 -20.335938 27.328125 -19.546875 C 28.171875 -15.253906 29.898438 -12.710938 32.515625 -11.921875 C 33.992188 -11.472656 35.695312 -11.671875 37.625 -12.515625 C 39.550781 -13.359375 41.476562 -14.742188 43.40625 -16.671875 C 43.644531 -16.960938 43.960938 -17.109375 44.359375 -17.109375 C 44.753906 -17.109375 45.101562 -16.960938 45.40625 -16.671875 Z M 45.40625 -16.671875 "/></g></g></g><g fill="#d9d9d9" fill-opacity="1"><g transform="translate(312.92343, 95.421608)"><g><path d="M 25.03125 -16.515625 C 25.375 -16.316406 25.570312 -16.019531 25.625 -15.625 C 25.675781 -15.226562 25.601562 -14.882812 25.40625 -14.59375 C 22.488281 -10.539062 19.820312 -7.191406 17.40625 -4.546875 C 14.988281 -1.910156 12.566406 0.269531 10.140625 2 C 8.316406 3.28125 6.515625 3.921875 4.734375 3.921875 C 3.359375 3.921875 2.148438 3.550781 1.109375 2.8125 C 0.421875 2.320312 -0.253906 1.445312 -0.921875 0.1875 C -1.585938 -1.070312 -1.945312 -2.898438 -2 -5.296875 C -2.050781 -7.691406 -1.457031 -10.835938 -0.21875 -14.734375 C -0.21875 -14.734375 -0.21875 -14.757812 -0.21875 -14.8125 C 1.257812 -19.550781 3 -23.164062 5 -25.65625 C 7 -28.15625 8.710938 -29.429688 10.140625 -29.484375 C 11.273438 -29.523438 12.019531 -29.03125 12.375 -28 C 12.914062 -26.5625 12.269531 -24.519531 10.4375 -21.875 C 8.613281 -19.238281 5.925781 -16.441406 2.375 -13.484375 C 1.28125 -10.023438 0.757812 -7.316406 0.8125 -5.359375 C 0.863281 -3.410156 1.132812 -2.003906 1.625 -1.140625 C 2.125 -0.285156 2.519531 0.265625 2.8125 0.515625 C 4.289062 1.597656 6.191406 1.300781 8.515625 -0.375 C 10.785156 -1.945312 13.082031 -4.003906 15.40625 -6.546875 C 17.726562 -9.097656 20.269531 -12.320312 23.03125 -16.21875 C 23.28125 -16.519531 23.601562 -16.707031 24 -16.78125 C 24.394531 -16.851562 24.738281 -16.765625 25.03125 -16.515625 Z M 9.625 -26.359375 C 9.082031 -26.015625 8.34375 -25.285156 7.40625 -24.171875 C 6.46875 -23.066406 5.503906 -21.453125 4.515625 -19.328125 C 6.296875 -21.054688 7.554688 -22.523438 8.296875 -23.734375 C 9.035156 -24.941406 9.476562 -25.816406 9.625 -26.359375 Z M 9.625 -26.359375 "/></g></g></g><g fill="#d9d9d9" fill-opacity="1"><g transform="translate(334.475652, 95.421608)"><g><path d="M 21.78125 -69.390625 C 22.414062 -68.453125 22.425781 -66.550781 21.8125 -63.6875 C 21.195312 -60.820312 19.925781 -57.28125 18 -53.0625 C 16.070312 -48.84375 13.503906 -44.164062 10.296875 -39.03125 C 10.242188 -38.976562 10.191406 -38.929688 10.140625 -38.890625 C 8.859375 -33.648438 7.585938 -28.3125 6.328125 -22.875 C 5.066406 -17.445312 3.867188 -12.113281 2.734375 -6.875 C 1.597656 -1.644531 0.5625 3.273438 -0.375 7.890625 C -1.3125 12.503906 -2.113281 16.613281 -2.78125 20.21875 C -3.445312 23.820312 -3.925781 26.710938 -4.21875 28.890625 C -4.164062 28.890625 -4.117188 28.890625 -4.078125 28.890625 C -3.679688 29.035156 -3.394531 29.28125 -3.21875 29.625 C -3.050781 29.96875 -3.039062 30.335938 -3.1875 30.734375 C -3.53125 31.671875 -3.882812 32.519531 -4.25 33.28125 C -4.625 34.050781 -5.132812 34.4375 -5.78125 34.4375 C -5.925781 34.4375 -6.097656 34.410156 -6.296875 34.359375 C -6.742188 34.210938 -7.0625 33.90625 -7.25 33.4375 C -7.445312 32.96875 -7.472656 32.03125 -7.328125 30.625 C -7.179688 29.21875 -6.863281 27.054688 -6.375 24.140625 C -5.476562 18.804688 -4.144531 11.847656 -2.375 3.265625 C -1.082031 -2.765625 0.265625 -8.898438 1.671875 -15.140625 C 3.078125 -21.390625 4.46875 -27.414062 5.84375 -33.21875 C 7.226562 -39.019531 8.5625 -44.289062 9.84375 -49.03125 C 10.09375 -49.96875 10.460938 -51.273438 10.953125 -52.953125 C 11.453125 -54.628906 12.019531 -56.429688 12.65625 -58.359375 C 13.300781 -60.285156 14.019531 -62.132812 14.8125 -63.90625 C 15.601562 -65.6875 16.414062 -67.15625 17.25 -68.3125 C 18.09375 -69.476562 18.9375 -70.132812 19.78125 -70.28125 C 20.613281 -70.425781 21.28125 -70.128906 21.78125 -69.390625 Z M 12.734375 -48.8125 C 15.109375 -53.25 16.773438 -56.945312 17.734375 -59.90625 C 18.703125 -62.875 19.257812 -65.023438 19.40625 -66.359375 C 18.71875 -65.367188 17.78125 -63.503906 16.59375 -60.765625 C 15.40625 -58.023438 14.117188 -54.039062 12.734375 -48.8125 Z M 12.734375 -48.8125 "/></g></g></g><g fill="#d9d9d9" fill-opacity="1"><g transform="translate(345.733159, 95.421608)"><g><path d="M 21.78125 -69.390625 C 22.414062 -68.453125 22.425781 -66.550781 21.8125 -63.6875 C 21.195312 -60.820312 19.925781 -57.28125 18 -53.0625 C 16.070312 -48.84375 13.503906 -44.164062 10.296875 -39.03125 C 10.242188 -38.976562 10.191406 -38.929688 10.140625 -38.890625 C 8.859375 -33.648438 7.585938 -28.3125 6.328125 -22.875 C 5.066406 -17.445312 3.867188 -12.113281 2.734375 -6.875 C 1.597656 -1.644531 0.5625 3.273438 -0.375 7.890625 C -1.3125 12.503906 -2.113281 16.613281 -2.78125 20.21875 C -3.445312 23.820312 -3.925781 26.710938 -4.21875 28.890625 C -4.164062 28.890625 -4.117188 28.890625 -4.078125 28.890625 C -3.679688 29.035156 -3.394531 29.28125 -3.21875 29.625 C -3.050781 29.96875 -3.039062 30.335938 -3.1875 30.734375 C -3.53125 31.671875 -3.882812 32.519531 -4.25 33.28125 C -4.625 34.050781 -5.132812 34.4375 -5.78125 34.4375 C -5.925781 34.4375 -6.097656 34.410156 -6.296875 34.359375 C -6.742188 34.210938 -7.0625 33.90625 -7.25 33.4375 C -7.445312 32.96875 -7.472656 32.03125 -7.328125 30.625 C -7.179688 29.21875 -6.863281 27.054688 -6.375 24.140625 C -5.476562 18.804688 -4.144531 11.847656 -2.375 3.265625 C -1.082031 -2.765625 0.265625 -8.898438 1.671875 -15.140625 C 3.078125 -21.390625 4.46875 -27.414062 5.84375 -33.21875 C 7.226562 -39.019531 8.5625 -44.289062 9.84375 -49.03125 C 10.09375 -49.96875 10.460938 -51.273438 10.953125 -52.953125 C 11.453125 -54.628906 12.019531 -56.429688 12.65625 -58.359375 C 13.300781 -60.285156 14.019531 -62.132812 14.8125 -63.90625 C 15.601562 -65.6875 16.414062 -67.15625 17.25 -68.3125 C 18.09375 -69.476562 18.9375 -70.132812 19.78125 -70.28125 C 20.613281 -70.425781 21.28125 -70.128906 21.78125 -69.390625 Z M 12.734375 -48.8125 C 15.109375 -53.25 16.773438 -56.945312 17.734375 -59.90625 C 18.703125 -62.875 19.257812 -65.023438 19.40625 -66.359375 C 18.71875 -65.367188 17.78125 -63.503906 16.59375 -60.765625 C 15.40625 -58.023438 14.117188 -54.039062 12.734375 -48.8125 Z M 12.734375 -48.8125 "/></g></g></g></svg>